<svg width="803" height="497" viewBox="0 0 803 497" fill="none" xmlns="http://www.w3.org/2000/svg">
<path d="M331.668 107.035L342.953 98.8847L344.697 93.6566C348.956 80.8849 357.397 69.9219 368.654 62.538C375.623 57.9672 383.776 55.5321 392.11 55.5321H543.373C543.373 55.5321 569.274 61.5574 569.25 81.1007C569.234 94.6543 544.414 176.599 544.414 176.599L516.049 194.929L496.544 290.959C496.544 290.959 484.129 323.124 446.054 334.211C440.966 350.284 403.265 502.319 403.265 502.319H218.438L285.248 178.752C291.209 149.883 307.771 124.295 331.668 107.035Z" fill="#4BB4A3"/>
<path d="M351.746 98.0588L341.665 96.5518L343.117 86.8389C344.655 76.555 349.84 67.1535 357.717 60.3663C365.595 53.5788 375.66 49.8409 386.058 49.8409H399.978C408.242 49.8409 415.908 53.5703 421.009 60.073C426.11 66.5756 427.907 74.9087 425.939 82.9358L424.787 87.6351L414.888 85.2082L416.04 80.5089C417.257 75.5428 416.145 70.3872 412.989 66.3639C409.834 62.3409 405.091 60.0336 399.978 60.0336H386.058C378.101 60.0336 370.399 62.894 364.371 68.0878C358.342 73.2819 354.375 80.4764 353.198 88.346L351.746 98.0588Z" fill="#07074B"/>
<path d="M410.197 193.919C401.017 193.919 392.295 189.842 386.374 182.645L394.245 176.169C398.692 181.574 405.493 184.353 412.438 183.606L417.075 183.107C430.041 181.711 440.839 172.264 443.944 159.598L450.023 134.8L459.922 137.226L453.843 162.025C449.72 178.843 435.383 191.388 418.166 193.241L413.529 193.74C412.415 193.86 411.302 193.919 410.197 193.919Z" fill="#07074B"/>
<path d="M472.079 87.635L462.18 85.2081C463.677 79.102 462.31 72.7632 458.429 67.8168C454.549 62.8704 448.718 60.0336 442.431 60.0336H400.332V49.8408H442.431C451.869 49.8408 460.624 54.0998 466.449 61.5258C472.274 68.9516 474.327 78.4682 472.079 87.635Z" fill="#07074B"/>
<g style="mix-blend-mode:multiply">
<path d="M446.831 174.215C446.831 174.215 448.025 188.332 459.119 185.6L476.168 121.4L457.803 135.705L446.831 174.215Z" fill="#4BB4A3"/>
<path d="M478.608 119.498L483.435 97.3052L482.739 96.6519L476.167 121.4L478.608 119.498Z" fill="#4BB4A3"/>
<path d="M459.119 55.5321L471.845 86.4216L482.74 96.6519L493.66 55.5321H459.119Z" fill="#4BB4A3"/>
<path d="M423.992 73.9381L423.495 86.1145C423.495 86.1145 428.11 89.1539 439.204 86.4216L446.053 55.5321H411.513L423.992 73.9381Z" fill="#4BB4A3"/>
<path d="M351.272 73.9381L347.929 92.5026C347.929 92.5026 355.391 89.1539 366.485 86.4216L373.334 55.5321L363.775 62.0817L351.272 73.9381Z" fill="#4BB4A3"/>
<path d="M393.033 172.328L392.537 184.504C392.537 184.504 397.152 187.544 408.246 184.812L415.095 153.922L405.536 160.472L393.033 172.328Z" fill="#4BB4A3"/>
<path d="M508.831 55.5321L521.309 73.9381L496.543 174.215C496.543 174.215 497.737 188.332 508.831 185.6L543.371 55.5321H508.831Z" fill="#4BB4A3"/>
</g>
<path d="M464.328 193.917C452.593 193.917 441.679 187.183 436.487 176.44L445.665 172.005C449.469 179.877 457.85 184.54 466.524 183.606L471.161 183.107C484.127 181.711 494.925 172.264 498.03 159.598L515.55 88.1293C517.221 81.3148 515.695 74.2402 511.364 68.7198C507.034 63.1995 500.526 60.0336 493.51 60.0336H442.432V49.8408H493.51C503.677 49.8408 513.108 54.4289 519.384 62.4288C525.66 70.4286 527.871 80.6806 525.45 90.5562L507.93 162.025C503.807 178.843 489.469 191.388 472.252 193.241L467.615 193.74C466.515 193.859 465.417 193.917 464.328 193.917Z" fill="#07074B"/>
<path d="M513.327 193.923C503.621 193.924 494.582 189.421 488.66 181.487L496.828 175.39C501.258 181.325 508.287 184.398 515.632 183.606L520.269 183.107C533.235 181.711 544.033 172.264 547.138 159.598L563.364 93.4084C565.348 85.3135 563.536 76.91 558.392 70.3522C553.247 63.7947 545.517 60.0336 537.182 60.0336H493.508V49.8408H537.182C548.668 49.8408 559.322 55.024 566.411 64.0612C573.5 73.0983 575.998 84.6795 573.263 95.8353L557.037 162.025C552.915 178.843 538.577 191.388 521.36 193.241L516.723 193.74C515.585 193.863 514.451 193.923 513.327 193.923Z" fill="#07074B"/>
<g style="mix-blend-mode:multiply">
<path d="M411.175 342.315L421.622 416.155L440.967 337.291L411.175 342.315Z" fill="#4BB4A3"/>
</g>
<path d="M424.074 342.388H411.175V332.195H424.074C459.763 332.195 490.615 306.769 497.432 271.736L513.553 188.897L523.557 190.844L507.437 273.683C499.69 313.493 464.63 342.388 424.074 342.388Z" fill="#07074B"/>
<path d="M407.329 507.415H212.193L280.232 174.874C285.62 148.54 300.056 124.677 320.881 107.681C341.706 90.6852 367.978 81.3253 394.858 81.3253H471.846C477.248 81.3253 482.248 83.7715 485.563 88.0368C488.878 92.3024 490.015 97.7513 488.682 102.986L486.415 111.883C482.885 125.741 472.116 136.665 458.309 140.391L430.892 147.79C412.953 152.631 399.17 166.875 394.921 184.964L387.067 219.77C382.966 237.94 372.695 254.353 358.146 265.985C343.597 277.616 325.326 284.022 306.699 284.022H287.987V273.829H306.699C323.021 273.829 339.032 268.216 351.781 258.024C364.531 247.831 373.531 233.449 377.124 217.526L384.989 182.677C390.106 160.891 406.674 143.769 428.237 137.949L455.653 130.55C465.912 127.782 473.915 119.665 476.538 109.367L478.804 100.47C479.355 98.3067 478.886 96.0546 477.515 94.2917C476.145 92.5289 474.079 91.5179 471.846 91.5179H394.858C370.32 91.5179 346.336 100.062 327.325 115.578C308.314 131.093 295.136 152.877 290.217 176.917L224.682 497.223H399.202L435.998 336.156L445.935 338.426L407.329 507.415Z" fill="#07074B"/>
<g style="mix-blend-mode:multiply">
<path d="M468.758 86.1145L392.779 86.2594C343.186 86.354 300.369 121.015 289.951 169.502L218.438 502.319H249.4L250.49 497.238L336.49 494.319L251.746 491.377L252.508 487.824L338.143 484.918L253.76 481.988L254.527 478.41L339.796 475.516L255.773 472.599L256.546 468.996L341.45 466.115L257.787 463.21L258.565 459.582L343.103 456.713L259.8 453.821L260.584 450.169L344.756 447.312L261.814 444.432L262.602 440.755L346.41 437.911L263.827 435.043L264.621 431.341L348.063 428.509L265.841 425.654L266.64 421.927L349.716 419.108L267.854 416.265L268.659 412.513L351.369 409.706L269.868 406.876L270.678 403.099L353.023 400.305L271.881 397.488L272.696 393.686L354.676 390.904L273.895 388.099L274.715 384.272L356.329 381.502L275.908 378.71L276.734 374.858L357.982 372.101L277.921 369.321L278.753 365.444L359.636 362.699L279.935 359.932L280.771 356.03L361.289 353.298L281.948 350.543L282.79 346.617L362.942 343.896L283.962 341.154L284.317 339.496C293.436 316.137 310.175 295.526 345.689 272.385C336.004 278.892 314.288 278.651 297.658 277.285L315.413 194.495C326.748 141.638 373.463 103.878 427.522 103.878H483.744C485.35 94.5879 478.187 86.0965 468.758 86.1145Z" fill="#4BB4A3"/>
</g>
<g style="mix-blend-mode:multiply">
<path d="M516.051 194.929L511.658 188.825L495.777 181.823L467.069 188.673L439.767 181.823L412.983 188.673L392.279 185.951C392.279 185.951 375.878 215.736 382.397 222.648C394.23 213.543 415.003 207.399 436.694 203.263L421.623 285.689C421.623 285.689 415.098 310.019 392.54 310.019C418.167 310.019 432.554 305.808 436.765 287.092C440.473 270.613 451.767 213.688 454.412 200.32C486.631 195.677 516.051 194.929 516.051 194.929Z" fill="#4BB4A3"/>
</g>
<mask id="mask0_747_1726" style="mask-type:luminance" maskUnits="userSpaceOnUse" x="0" y="0" width="803" height="258">
<path d="M0 0H400.332L362.057 70.6795H384.164L381.59 82.2222C341.082 86.5909 305.921 112.095 289.191 149.245L283.067 162.844L0 162.419V0ZM802.39 254.479V65.5163H568.288L571.011 71.7372C574.398 79.4741 575.143 88.1105 573.133 96.3133L558.893 154.405L555.566 164.822C546.757 191.295 514.826 201.664 492.143 185.419L488.477 187.215C478.954 192.838 467.796 195.041 456.849 193.46L389.961 183.799L390.309 257.199L802.39 254.479Z" fill="white"/>
</mask>
<g mask="url(#mask0_747_1726)">
<path d="M551.613 177.872L604.647 83.7023L344.301 83.3709L384.698 11.6382H25.7588L278.58 67.3637L225.546 161.533L488.001 161.865L447.604 233.598H804.435L551.613 177.872Z" fill="#DE5851"/>
</g>
<path d="M289.518 69.7602L246.967 147.002L296.349 71.2631L289.518 69.7602Z" fill="#FFFDEC"/>
</svg>
