<svg width="70" height="91" viewBox="0 0 70 91" fill="none" xmlns="http://www.w3.org/2000/svg">
<path d="M0.928594 8.55966e-05L12.5786 2.2601C27.4486 5.1501 42.5386 5.1501 57.4086 2.2601L69.0586 9.15527e-05L34.9886 60.3401L0.918584 8.55957e-05L0.928594 8.55966e-05ZM34.9987 42.6701L52.3687 11.9001C40.8187 13.5101 29.1787 13.5101 17.6187 11.9001L34.9886 42.6701L34.9987 42.6701Z" fill="#DE5851"/>
<path d="M52.3381 41.9401C52.3381 41.9401 52.3582 41.9401 52.3682 41.9401L43.0281 58.4801L34.9982 72.7101L24.0082 53.2401L17.6282 41.9401C17.6282 41.9401 17.6481 41.9401 17.6581 41.9401L12.1881 32.2201L0.938116 30.0301L35.0082 90.3701L69.0781 30.0301L57.8281 32.2201L52.3582 41.9401L52.3381 41.9401Z" fill="#DE5851"/>
</svg>
