<svg width="163" height="163" viewBox="0 0 163 163" fill="none" xmlns="http://www.w3.org/2000/svg">
<g clip-path="url(#clip0_769_5544)">
<path d="M81.5 0C36.5609 0 0 36.5609 0 81.5C0 126.439 36.5609 163 81.5 163C126.439 163 163 126.439 163 81.5C163 36.5609 126.439 0 81.5 0ZM81.5 9.60885C121.142 9.60885 153.391 41.8584 153.391 81.5C153.391 95.8195 149.169 109.161 141.924 120.375H107.792V113.293H110.18C120.237 113.293 128.42 105.111 128.42 95.0534V86.1536H119.52C115.054 86.1536 110.962 87.7755 107.784 90.4487V82.8773H110.172C120.229 82.8773 128.411 74.6947 128.411 64.6376V55.7379H119.512C112.356 55.7379 106.17 59.8862 103.187 65.9009C100.196 59.8944 94.0103 55.7379 86.8627 55.7379H77.9629V64.6376C77.9629 74.6947 86.1455 82.8773 96.2026 82.8773H99.3322V120.367H80.2286L83.1056 116.741L87.5473 111.142C94.3118 104.369 94.3118 93.4153 87.5473 86.659C84.4421 83.5538 80.465 81.883 76.3981 81.6223L76.3818 81.5897C76.2596 81.5897 76.1373 81.5896 76.0232 81.6059C71.3614 81.4103 66.6263 83.0974 63.0728 86.659C62.3719 87.3598 61.7526 88.0933 61.2146 88.8595C61.2065 88.8839 61.1902 88.9002 61.1739 88.9247C61.1576 88.9002 61.1331 88.8676 61.1168 88.8432L54.9717 87.7999C50.7419 87.0746 47.1396 84.8089 44.6783 81.6712C41.0434 82.1601 37.5471 83.7901 34.7516 86.5856C27.9871 93.3419 27.9871 104.304 34.7516 111.06C34.7516 111.06 34.757 111.065 34.7679 111.076L34.7516 111.133L39.1852 116.732L42.0621 120.359H21.0841C13.8387 109.145 9.617 95.8033 9.617 81.4837C9.617 41.8584 41.8584 9.60885 81.5 9.60885ZM71.0028 130.873L56.7648 148.998C52.486 147.425 48.3947 145.453 44.5398 143.13L54.1975 130.881H71.0028V130.873ZM79.9026 130.873H94.7926L77.3109 153.253C72.7225 152.992 68.2481 152.291 63.9286 151.207L79.9026 130.873ZM109.74 104.842V104.393C109.74 98.998 114.133 94.6052 119.528 94.6052H119.976V95.0534C119.976 100.449 115.583 104.842 110.188 104.842H109.74ZM109.74 74.4258V73.9775C109.74 68.5822 114.133 64.1894 119.528 64.1894H119.976V64.6376C119.976 70.033 115.583 74.4258 110.188 74.4258H109.74ZM96.659 73.9775V74.4258H96.2108C90.8155 74.4258 86.4226 70.033 86.4226 64.6376V64.1894H86.8708C92.2661 64.1894 96.659 68.5822 96.659 73.9775ZM72.5839 118.428L81.28 98.5172L85.5098 99.2181L72.5839 118.428ZM29.3237 130.865H45.2733L38.6962 139.21C35.3302 136.708 32.2006 133.905 29.3156 130.865H29.3237Z" fill="#DE5851"/>
<path d="M101.671 56.5363L103.587 58.4516L108.411 53.6268L109.878 52.1598C115.054 46.9927 116.439 39.4621 114.092 33.0073C113.212 30.5867 111.818 28.3047 109.878 26.365L103.587 20.0732L101.068 22.5916L97.2947 26.365C90.1798 33.48 90.1798 45.053 97.2947 52.1598L101.671 56.5363ZM103.269 32.339L103.399 32.2086L103.587 32.0211L103.864 32.2982L103.904 32.339C107.246 35.6805 107.662 40.8557 105.159 44.6536C104.801 45.1997 104.385 45.7131 103.904 46.1858L103.676 46.414L103.587 46.5037L103.269 46.1858C99.8049 42.7221 99.4952 37.286 102.323 33.4555C102.609 33.0725 102.918 32.6894 103.269 32.339Z" fill="#DE5851"/>
<path d="M47.5879 81.5407C48.7289 82.6899 50.0736 83.6434 51.5651 84.3525C52.7387 84.9148 54.0101 85.3305 55.3548 85.5587L57.5553 85.9336L58.7452 86.1373L59.3565 86.2433L60.0411 82.2416C60.6931 78.4356 59.8129 74.6132 57.5879 71.4673C55.5667 68.623 52.6653 66.6507 49.3157 65.8194C48.9571 65.7297 48.5903 65.6401 48.2236 65.5749L44.2219 64.8984L43.5373 68.9001C43.3825 69.7966 43.3173 70.6931 43.3336 71.5733C43.3988 75.3875 44.9799 78.9409 47.5797 81.5407H47.5879Z" fill="#DE5851"/>
<path d="M56.5447 133.497H57.1397V133.481L57.1071 133.432C57.05 133.448 56.9848 133.456 56.9278 133.464C56.7974 133.481 56.667 133.489 56.5447 133.489V133.497Z" fill="#DE5851"/>
</g>
<defs>
<clipPath id="clip0_769_5544">
<rect width="163" height="163" fill="white"/>
</clipPath>
</defs>
</svg>
