<svg width="38" height="39" viewBox="0 0 38 39" fill="none" xmlns="http://www.w3.org/2000/svg">
<path d="M22.0052 38.0205H18.0012V36.4198C18.0012 31.702 19.792 27.2249 23.0484 23.8165C24.8772 21.8989 27.0566 20.4375 29.443 19.4999C27.0566 18.5623 24.8772 17.1051 23.0484 15.1833C19.7962 11.7749 18.0012 7.29781 18.0012 2.58001V0.979248L22.0052 0.979248V2.58001C22.0052 6.26302 23.4032 9.76019 25.9458 12.4211C28.4884 15.0862 31.8969 16.6109 35.5377 16.7123C35.6897 16.7123 35.8418 16.7165 35.9981 16.7165H38.0001V22.2748H35.9981C35.846 22.2748 35.6897 22.2748 35.5377 22.279C31.8969 22.3804 28.4926 23.9051 25.9458 26.5703C23.4074 29.2312 22.0052 32.7283 22.0052 36.4113V38.0121V38.0205Z" fill="#de5851"/>
<path d="M20.0032 17.498L0 17.498L0 21.5021L20.0032 21.5021V17.498Z" fill="#de5851"/>
</svg>
