<svg width="48" height="49" viewBox="0 0 48 49" fill="none" xmlns="http://www.w3.org/2000/svg">
<rect y="0.663086" width="48" height="48" rx="24" fill="#4BB4A3"/>
<path d="M25.7323 37.8391H22.2677V35.5254C22.2677 33.1606 21.3692 30.9159 19.7376 29.2061C18.1029 27.4933 15.9184 26.5168 13.5806 26.4506C13.4814 26.4506 13.3852 26.4476 13.2861 26.4476H12V22.8778H13.2861C13.3852 22.8778 13.4844 22.8778 13.5806 22.8748C15.9184 22.8087 18.1059 21.8321 19.7376 20.1194C21.3692 18.4096 22.2677 16.1649 22.2677 13.8001V11.4863H25.7323V13.8001C25.7323 16.1649 26.6308 18.4096 28.2624 20.1194C29.8971 21.8321 32.0816 22.8087 34.4194 22.8748C34.5186 22.8748 34.6147 22.8778 34.7139 22.8778H36V26.4476H34.7139C34.6147 26.4476 34.5156 26.4476 34.4194 26.4506C32.0816 26.5168 29.8941 27.4933 28.2624 29.2061C26.6308 30.9159 25.7323 33.1606 25.7323 35.5254V37.8391ZM17.4899 24.6627C19.0224 25.2637 20.4197 26.2012 21.5946 27.4332C22.6403 28.527 23.4486 29.7951 23.9985 31.1653C24.5484 29.7951 25.3567 28.53 26.4024 27.4332C27.5773 26.2012 28.9746 25.2637 30.5071 24.6627C28.9746 24.0618 27.5773 23.1242 26.4024 21.8922C25.3567 20.7985 24.5484 19.5304 23.9985 18.1602C23.4486 19.5304 22.6403 20.7955 21.5946 21.8922C20.4197 23.1242 19.0224 24.0618 17.4899 24.6627Z" fill="#07074B"/>
</svg>
