<svg width="163" height="163" viewBox="0 0 163 163" fill="none" xmlns="http://www.w3.org/2000/svg">
<g clip-path="url(#clip0_769_5533)">
<path d="M81.5 0C36.5609 0 0 36.5609 0 81.5C0 126.439 36.5609 163 81.5 163C126.439 163 163 126.439 163 81.5C163 36.5609 126.439 0 81.5 0ZM153.391 81.5C153.391 121.142 121.142 153.391 81.5 153.391C41.8584 153.391 9.617 121.142 9.617 81.5C9.617 41.8584 41.8584 9.60885 81.5 9.60885C121.142 9.60885 153.391 41.8584 153.391 81.5ZM69.6092 107.727L62.266 115.07C61.2309 116.105 59.8699 116.627 58.5089 116.627C57.1478 116.627 55.7949 116.105 54.7517 115.07C53.0321 113.35 52.7631 110.75 53.8959 108.721C54.1241 108.305 54.4012 107.914 54.7517 107.556L62.0949 100.212C62.3801 99.9271 62.6979 99.6826 63.0321 99.4789C63.0565 99.4626 63.0728 99.4544 63.0973 99.4463C63.4233 99.2507 63.7575 99.0958 64.1079 98.9736C64.6702 98.778 65.2652 98.6558 65.852 98.6558C67.2131 98.6558 68.566 99.1773 69.6092 100.212C69.9515 100.555 70.2204 100.938 70.4486 101.345C71.6059 103.375 71.3451 105.991 69.6092 107.719V107.727ZM80.0085 118.395L72.6654 125.738C71.6304 126.773 70.2693 127.295 68.9082 127.295C67.5472 127.295 66.1943 126.773 65.1511 125.738C63.081 123.668 63.081 120.302 65.1511 118.232L72.4942 110.889C72.8039 110.579 73.1544 110.327 73.5211 110.107C74.3606 109.601 75.306 109.332 76.2514 109.332C77.5391 109.332 78.8268 109.813 79.8374 110.75C79.8944 110.799 79.9515 110.832 80.0085 110.889C80.0656 110.946 80.0982 111.003 80.1471 111.06C81.7689 112.82 81.9809 115.396 80.7909 117.368C80.5709 117.735 80.3264 118.077 80.0085 118.395ZM90.302 121.549C92.3721 123.627 92.3721 126.985 90.302 129.055L82.9588 136.407C81.9238 137.442 80.5628 137.963 79.2017 137.963C77.8407 137.963 76.4877 137.442 75.4445 136.407C73.4967 134.459 73.4071 131.394 75.1104 129.308C75.2245 129.169 75.3141 129.023 75.4445 128.9L82.7877 121.557C83.1708 121.174 83.6027 120.889 84.0591 120.644C84.8334 120.229 85.681 120.001 86.5449 120.001C87.9059 120.001 89.2588 120.522 90.302 121.557V121.549ZM126.17 47.9709C137.882 59.6824 138.216 78.4193 127.238 90.5709L111.704 75.037L108.884 77.8814L116.675 85.6728L124.467 93.4642L124.508 93.505C126.749 95.7462 126.749 99.3811 124.508 101.622C123.391 102.747 121.916 103.301 120.449 103.301C118.982 103.301 117.507 102.739 116.39 101.622L116.349 101.582L100.815 86.0477L97.3843 89.5115L111.72 103.847L113.668 105.795C115.909 108.036 115.909 111.671 113.668 113.913C112.551 115.037 111.076 115.591 109.609 115.591C108.142 115.591 106.667 115.029 105.551 113.913L104.793 113.155L89.3077 97.6696L86.17 100.832L101.639 116.3L102.926 117.588C105.168 119.829 105.168 123.464 102.926 125.706C101.81 126.83 100.335 127.384 98.8676 127.384C97.7837 127.384 96.6998 127.075 95.7625 126.464C96.1048 123.709 95.2654 120.824 93.1463 118.713C91.3859 116.952 89.0469 115.983 86.5611 115.983C86.1781 115.983 85.8113 116.048 85.4446 116.089C85.8928 113.244 85.0452 110.229 82.861 108.045C81.1006 106.284 78.7616 105.314 76.2758 105.314C75.8602 105.314 75.4527 105.379 75.0452 105.437C75.1186 104.956 75.1919 104.467 75.1919 103.97C75.1919 101.484 74.2221 99.1366 72.4617 97.3843C70.7013 95.6239 68.3622 94.6541 65.8764 94.6541C65.4608 94.6541 65.0614 94.7193 64.6621 94.7764C65.0696 91.9646 64.222 89.0061 62.0623 86.8546C60.3018 85.0941 57.9628 84.1243 55.4771 84.1243C52.9913 84.1243 50.6523 85.0941 48.8918 86.8546L41.5487 94.2058C41.1819 94.5726 40.8804 94.9801 40.587 95.3876L36.8951 91.6956C24.8086 79.6092 24.8086 60.0003 36.8951 47.9138C48.3458 36.4631 66.5366 35.8763 78.6964 46.129L66.5774 58.2481C64.6295 60.1959 63.5537 62.7876 63.5537 65.5505C63.5537 68.3133 64.6295 70.8969 66.5774 72.8529C68.5252 74.8007 71.1169 75.8765 73.8716 75.8765C76.6263 75.8765 79.2262 74.8007 81.174 72.8529L90.3998 63.6108L87.0175 60.8886L77.8814 70.0248C76.6507 71.2554 75.037 71.8749 73.4152 71.8749C71.7934 71.8749 70.1796 71.2554 68.949 70.0248C66.4795 67.5554 66.4795 63.5618 68.949 61.0924L77.1235 52.9179L81.9564 47.9872C82.2824 47.6612 82.6329 47.3841 82.967 47.0744L83.6598 46.3816C84.0183 46.023 84.4177 45.7296 84.8333 45.477C90.2775 41.2227 96.8057 39.0385 103.375 38.9407C103.391 38.9407 103.407 38.9407 103.424 38.9407C103.758 38.9407 104.092 38.9407 104.434 38.9407C112.315 38.9651 120.188 41.9643 126.203 47.979L126.17 47.9709ZM59.2098 97.1969L51.8666 104.548C50.8316 105.583 49.4705 106.105 48.1094 106.105C46.7484 106.105 45.3955 105.583 44.3523 104.548C42.274 102.478 42.274 99.1122 44.3523 97.0421L51.6954 89.6908C52.7305 88.6557 54.0915 88.1341 55.4526 88.1341C56.8137 88.1341 58.1665 88.6557 59.2098 89.6908C61.288 91.7608 61.288 95.1268 59.2098 97.1969Z" fill="#003A73"/>
</g>
<defs>
<clipPath id="clip0_769_5533">
<rect width="163" height="163" fill="white"/>
</clipPath>
</defs>
</svg>
