<svg width="163" height="163" viewBox="0 0 163 163" fill="none" xmlns="http://www.w3.org/2000/svg">
<g clip-path="url(#clip0_769_5531)">
<path d="M81.5 0C36.5609 0 0 36.5609 0 81.5C0 126.439 36.5609 163 81.5 163C126.439 163 163 126.439 163 81.5C163 36.5609 126.439 0 81.5 0ZM81.5 153.391C41.8584 153.391 9.60885 121.142 9.60885 81.5C9.60885 41.8584 41.8584 9.60885 81.5 9.60885C121.142 9.60885 153.383 41.8584 153.383 81.5C153.383 121.142 121.133 153.391 81.5 153.391ZM74.1894 114.19C73.9205 117.751 70.8072 120.424 67.2457 120.147C63.6841 119.878 61.0109 116.765 61.288 113.203C61.5651 109.642 64.6702 106.969 68.2318 107.246C71.7934 107.515 74.4665 110.628 74.1894 114.19ZM80.3019 93.0811L75.1756 104.939C69.8047 102.617 63.7085 103.546 59.2668 107.352C54.1812 111.72 52.5593 118.786 55.2407 124.931L43.3988 130.098C38.4354 118.721 41.4265 105.64 50.856 97.5473C59.0875 90.4894 70.3671 88.7779 80.3101 93.0811H80.3019ZM40.9049 88.4846C39.3563 85.2653 40.7174 81.3941 43.9366 79.8537C47.1559 78.3052 51.0271 79.6662 52.5675 82.8855C54.116 86.1047 52.7549 89.976 49.5357 91.5163C46.3164 93.0648 42.4452 91.7038 40.9049 88.4846ZM30.7581 80.4731L20.3587 72.804C27.7263 62.812 40.5462 58.8674 52.2741 62.9832C62.4942 66.5773 69.6173 75.4935 70.8724 86.2514L58.0361 87.7429C57.3597 81.9238 53.5047 77.1072 47.9872 75.1674C41.6547 72.9425 34.7271 75.0697 30.75 80.465L30.7581 80.4731ZM55.1592 49.8454C57.1804 46.8951 61.2065 46.1371 64.1568 48.1583C67.1071 50.1796 67.8651 54.2056 65.8438 57.1559C63.8227 60.1062 59.7966 60.8642 56.8462 58.843C53.896 56.8218 53.138 52.7957 55.1592 49.8454ZM57.0256 37.0499L58.4681 24.2055C70.8072 25.591 80.6361 34.7271 82.9262 46.9358C84.9312 57.5798 80.7665 68.2073 72.0704 74.6784L64.3605 64.3117C69.055 60.8153 71.3044 55.0777 70.2285 49.3238C68.9897 42.7304 63.6841 37.7915 57.0256 37.0499ZM88.8106 48.8185C89.0795 45.257 92.1928 42.5838 95.7543 42.8609C99.3159 43.1298 101.989 46.2431 101.712 49.8046C101.435 53.3662 98.3298 56.0394 94.7682 55.7623C91.2066 55.4933 88.5334 52.3801 88.8106 48.8185ZM82.6981 69.927L87.8244 58.0606C93.1953 60.3833 99.2915 59.4624 103.733 55.6482C108.827 51.2798 110.441 44.2138 107.759 38.0768L119.601 32.9097C124.565 44.2871 121.574 57.3678 112.144 65.4608C106.928 69.9433 100.465 72.266 93.9043 72.266C90.1309 72.266 86.3248 71.5 82.6899 69.927H82.6981ZM122.095 74.5236C123.644 77.7429 122.283 81.6141 119.063 83.1544C115.844 84.7029 111.973 83.3419 110.433 80.1227C108.884 76.9034 110.245 73.0322 113.464 71.4918C116.684 69.9433 120.555 71.3044 122.095 74.5236ZM142.641 90.2123C137.222 97.5637 128.843 101.639 120.123 101.639C116.993 101.639 113.815 101.117 110.726 100.025C100.506 96.4389 93.3827 87.5229 92.1276 76.7567L104.964 75.2653C105.64 81.0844 109.495 85.901 115.013 87.8407C121.345 90.0657 128.273 87.9385 132.25 82.5432L142.649 90.2123H142.641ZM107.849 113.171C105.828 116.121 101.802 116.879 98.8513 114.858C95.901 112.837 95.1431 108.811 97.1643 105.86C99.1855 102.91 103.212 102.152 106.162 104.173C109.112 106.194 109.87 110.221 107.849 113.171ZM105.983 125.966L104.54 138.811C92.201 137.425 82.3721 128.289 80.0819 116.08C78.077 105.437 82.2417 94.809 90.9377 88.3379L98.6476 98.7047C93.9532 102.201 91.7038 107.939 92.7796 113.692C94.0184 120.286 99.324 125.225 105.983 125.966Z" fill="#00B0C2"/>
</g>
<defs>
<clipPath id="clip0_769_5531">
<rect width="163" height="163" fill="white"/>
</clipPath>
</defs>
</svg>
