<svg width="481" height="200" viewBox="0 0 481 200" fill="none" xmlns="http://www.w3.org/2000/svg">
<g clip-path="url(#clip0_433_209)">
<path d="M481 66.4845L466.107 71.4233L458.661 73.8927C457.44 74.3315 456.055 74.8213 454.757 74.306C452.34 73.4437 451.332 70.607 452.594 68.4029C453.022 67.6274 452.33 66.5713 451.464 66.6325C451.322 66.6376 451.2 66.6682 451.047 66.7141L450.584 66.8672C445.576 68.5407 432.526 72.8366 427.298 74.5713C423.883 75.6376 420.717 71.8927 422.26 68.6937C422.428 68.3162 422.529 68.158 422.545 67.9182C422.601 67.2805 421.924 66.6784 421.298 66.8774C415.546 68.7652 403.499 72.7754 397.829 74.6529C394.765 75.8468 391.508 73.4386 391.701 70.1784L391.767 69.607L391.92 69.056C391.96 68.8672 392.062 68.709 392.139 68.5305L392.322 68.1274C392.459 67.7907 392.307 67.3774 391.991 67.1784C391.701 67.005 391.446 67.0509 391.141 67.1631L390.678 67.3162L386.957 68.5509C383.206 69.7805 375.806 72.2601 372.065 73.4896L368.344 74.7243C367.779 74.9182 366.98 75.1835 366.186 75.1835C362.812 75.2243 360.42 71.3468 362.018 68.3621L362.13 68.1223C362.175 68.0356 362.201 67.9335 362.196 67.8366C362.181 67.5152 361.865 67.2192 361.534 67.2856C361.499 67.3009 361.473 67.3009 361.422 67.3162L361.188 67.3927L359.325 68.0101C354.902 69.4743 342.392 73.6274 337.918 75.107C334.045 76.5356 330.192 72.6274 331.637 68.755C332.105 67.7345 332.029 67.9437 331.983 67.7141C331.897 67.5662 331.764 67.459 331.586 67.5101L316.806 72.4029C315.218 72.9131 308.83 75.1019 307.369 75.4896C303.14 76.4539 299.699 71.806 301.781 68.0101C301.847 67.8723 301.817 67.9233 301.832 67.8978C301.847 67.8876 301.832 67.8774 301.842 67.8723C301.842 67.857 301.842 67.8519 301.842 67.8366C301.837 67.7856 301.74 67.6937 301.715 67.7141C301.618 67.7243 301.394 67.8162 301.282 67.8468C295.999 69.5968 283.438 73.7652 278.017 75.5611C273.772 77.0203 269.619 72.5866 271.39 68.4233C271.512 68.1529 271.731 67.6784 271.675 67.806C271.665 67.8111 271.66 67.8468 271.665 67.8621C271.68 67.9029 271.665 67.8876 271.696 67.9182C271.685 67.9641 272.006 67.8468 271.319 68.0764L269.919 68.5407C268.092 69.1427 263.41 70.6988 261.536 71.3213C259.409 71.9896 249.342 75.459 247.321 75.9692C242.99 76.7958 239.355 72.0305 241.361 68.056L241.473 67.8213L241.524 67.709C241.498 67.7345 241.488 67.8009 241.483 67.8723C241.483 67.9335 241.503 67.9845 241.524 68.0203C241.544 68.0917 241.748 68.1988 241.865 68.1478L241.824 68.1631L241.737 68.1937L241.564 68.2498L240.867 68.4794C236.383 69.959 227.242 72.9998 222.702 74.4998L219.908 75.4284L218.508 75.8927C216.487 76.6682 214.08 76.2345 212.507 74.7396C210.573 72.9794 210.044 69.9131 211.372 67.6121C211.372 67.6019 211.367 67.6121 211.367 67.6121C211.332 67.6733 211.311 67.7498 211.311 67.8264C211.301 68.0407 211.382 68.1835 211.515 68.2754C211.632 68.357 211.83 68.408 211.973 68.357L211.81 68.408L206.221 70.2601C202.414 71.5407 192.545 74.7805 188.759 76.0509L188.407 76.1682C188.362 76.1835 188.27 76.209 188.178 76.2345L187.909 76.306C187.731 76.3519 187.547 76.3978 187.364 76.4284C183.394 77.0917 179.765 73.3774 180.544 69.3825C180.671 68.7294 180.91 68.1019 181.216 67.5152C181.221 67.4896 181.19 67.5458 181.19 67.556C181.114 67.7192 181.114 67.9692 181.18 68.1325C181.256 68.4386 181.689 68.6529 182.02 68.5815C182.035 68.5815 182.045 68.5815 182.061 68.5713L181.363 68.8009C174.854 70.9641 164.974 74.2294 158.485 76.3876C155.777 77.3468 152.525 76.1121 151.13 73.6019C150.031 71.7652 149.995 69.2907 151.069 67.3978C150.876 67.7345 150.932 68.2447 151.212 68.5203C151.4 68.7498 151.853 68.8672 152.128 68.7907L150.911 69.1937L128.568 76.6121L127 71.755L149.441 64.607L150.143 64.3825L150.494 64.2703C153.349 63.1223 156.419 65.806 155.614 68.8009C155.411 69.6784 154.673 70.306 155.217 71.2294C155.609 71.9233 156.352 72.1784 157.06 71.9539C163.565 69.8876 173.459 66.7243 180.025 64.6376L180.727 64.4131L180.905 64.3621C183.358 63.6121 185.868 65.9029 185.435 68.3825C185.389 69.107 184.85 69.6886 184.773 70.3468C184.661 71.5968 185.888 72.5866 187.12 72.1529C191.146 70.8876 200.831 67.7703 205 66.4539L210.609 64.6682C211.087 64.5152 211.566 64.4131 212.075 64.459C214.497 64.5866 216.014 67.4284 214.767 69.5305C214.324 70.3162 214.452 71.2805 215.128 71.9386C215.612 72.3723 216.233 72.5764 216.839 72.4335C217.113 72.3876 218.447 71.9437 218.757 71.8468C224.972 69.8774 234.505 66.8162 240.669 64.8621C243.331 63.857 245.896 66.7345 244.628 69.2345L244.542 69.408L244.516 69.4641L244.471 69.5611C243.656 71.0305 245.097 72.9845 246.756 72.6631C248.308 72.2396 258.768 68.8468 260.559 68.2958C263.399 67.3876 268.026 65.9182 270.815 65.0254C272.474 64.4437 274.398 65.6121 274.648 67.357C274.734 67.8621 274.678 68.3978 274.505 68.8672C274.24 69.4437 274.251 69.4131 274.169 69.5866C273.904 70.1478 273.93 70.755 274.134 71.3315C274.581 72.5101 275.889 73.1937 277.121 72.7907L292.07 68.0254C292.482 67.8927 300.402 65.3723 300.478 65.3468L300.712 65.2703L300.829 65.2345C302.432 64.6631 304.265 65.857 304.417 67.5305C304.468 67.9947 304.397 68.4845 304.209 68.908C304.056 69.209 303.893 69.5356 303.807 69.857C303.252 71.8162 305.313 73.6784 307.212 72.9743C307.593 72.8621 308.245 72.6376 308.611 72.5254C312.322 71.3366 319.844 68.9488 323.56 67.7601C324.644 67.4029 328.079 66.3264 329.164 65.9743L330.1 65.6784L330.568 65.5305C331.184 65.2703 332.202 65.1988 332.833 65.6019C333.337 65.8774 333.734 66.3111 333.968 66.8315C334.289 67.5407 334.228 68.4182 333.841 69.0917L333.805 69.1733L333.648 69.4998C332.808 71.4692 334.844 73.8417 336.915 73.255C337.933 72.9947 339.139 72.5509 340.106 72.2652C343.914 71.0356 356.974 66.8978 360.659 65.7141C362.109 65.0713 363.916 66.1325 363.916 67.7856C363.937 68.2601 363.758 68.7039 363.545 69.1172C362.455 71.0203 364.064 73.5611 366.201 73.556C366.726 73.556 367.189 73.4182 367.861 73.1988L371.597 72.0101C375.281 70.8213 382.85 68.4335 386.545 67.2447L390.281 66.056L390.749 65.908C390.912 65.8519 391.156 65.7805 391.35 65.7601C392.821 65.5407 394.129 67.1988 393.518 68.5866L393.289 69.0764C393.177 69.2498 393.07 69.6325 393.009 69.8519C392.525 72.4386 395.06 74.4896 397.483 73.5407C403.173 71.7345 415.129 67.908 420.84 66.0968C421.201 65.9641 421.674 65.9182 422.056 66.0407C422.886 66.2754 423.471 67.1121 423.4 67.9743C423.379 68.4029 423.12 68.8162 423.028 69.0356C422.346 70.3672 422.743 72.056 423.827 73.0662C424.698 73.8723 425.965 74.1988 427.115 73.8621C432.073 72.2396 445.489 68.056 450.457 66.4335L450.925 66.2856C451.088 66.2345 451.281 66.1886 451.464 66.1886C452.64 66.1274 453.546 67.5254 452.966 68.5662C451.765 70.5866 452.686 73.1835 454.88 73.9947C456.101 74.4896 457.394 74.0305 458.59 73.6223L466.062 71.2396L481.01 66.4743L481 66.4845Z" fill="url(#paint0_linear_433_209)"/>
<path d="M481 83.3061L466.107 88.2449L458.661 90.7143C457.44 91.153 456.055 91.6428 454.757 91.1275C452.34 90.2653 451.332 87.4286 452.594 85.2245C453.022 84.449 452.33 83.3928 451.464 83.4541C451.322 83.4592 451.2 83.4898 451.047 83.5357L450.584 83.6888C445.576 85.3622 432.526 89.6581 427.298 91.3928C423.883 92.4592 420.717 88.7143 422.26 85.5153C422.428 85.1377 422.529 84.9796 422.545 84.7398C422.601 84.102 421.924 83.5 421.298 83.699C415.546 85.5867 403.499 89.5969 397.829 91.4745C394.765 92.6684 391.508 90.2602 391.701 87L391.767 86.4286L391.92 85.8775C391.96 85.6888 392.062 85.5306 392.139 85.352L392.322 84.949C392.459 84.6122 392.307 84.199 391.991 84C391.701 83.8265 391.446 83.8724 391.141 83.9847L390.678 84.1377L386.957 85.3724C383.206 86.602 375.806 89.0816 372.065 90.3112L368.344 91.5459C367.779 91.7398 366.98 92.0051 366.186 92.0051C362.812 92.0459 360.42 88.1684 362.018 85.1837L362.13 84.9439C362.175 84.8571 362.201 84.7551 362.196 84.6581C362.181 84.3367 361.865 84.0408 361.534 84.1071C361.499 84.1224 361.473 84.1224 361.422 84.1377L361.188 84.2143L359.325 84.8316C354.902 86.2959 342.392 90.449 337.918 91.9286C334.045 93.3571 330.192 89.449 331.637 85.5765C332.105 84.5561 332.029 84.7653 331.983 84.5357C331.897 84.3877 331.764 84.2806 331.586 84.3316L316.806 89.2245C315.218 89.7347 308.83 91.9235 307.369 92.3112C303.14 93.2755 299.699 88.6275 301.781 84.8316C301.847 84.6939 301.817 84.7449 301.832 84.7194C301.847 84.7092 301.832 84.699 301.842 84.6939C301.842 84.6786 301.842 84.6735 301.842 84.6581C301.837 84.6071 301.74 84.5153 301.715 84.5357C301.618 84.5459 301.394 84.6377 301.282 84.6684C295.999 86.4184 283.438 90.5867 278.017 92.3826C273.772 93.8418 269.619 89.4081 271.39 85.2449C271.512 84.9745 271.731 84.5 271.675 84.6275C271.665 84.6326 271.66 84.6684 271.665 84.6837C271.68 84.7245 271.665 84.7092 271.696 84.7398C271.685 84.7857 272.006 84.6684 271.319 84.8979L269.919 85.3622C268.092 85.9643 263.41 87.5204 261.536 88.1428C259.409 88.8112 249.342 92.2806 247.321 92.7908C242.99 93.6173 239.355 88.852 241.361 84.8775L241.473 84.6428L241.524 84.5306C241.498 84.5561 241.488 84.6224 241.483 84.6939C241.483 84.7551 241.503 84.8061 241.524 84.8418C241.544 84.9132 241.748 85.0204 241.865 84.9694L241.824 84.9847L241.737 85.0153L241.564 85.0714L240.867 85.301C236.383 86.7806 227.242 89.8214 222.702 91.3214L219.908 92.25L218.508 92.7143C216.487 93.4898 214.08 93.0561 212.507 91.5612C210.573 89.801 210.044 86.7347 211.372 84.4337C211.372 84.4235 211.367 84.4337 211.367 84.4337C211.332 84.4949 211.311 84.5714 211.311 84.6479C211.301 84.8622 211.382 85.0051 211.515 85.0969C211.632 85.1786 211.83 85.2296 211.973 85.1786L211.81 85.2296L206.221 87.0816C202.414 88.3622 192.545 91.602 188.759 92.8724L188.407 92.9898C188.362 93.0051 188.27 93.0306 188.178 93.0561L187.909 93.1275C187.731 93.1684 187.547 93.2194 187.364 93.25C183.394 93.9133 179.765 90.199 180.544 86.2041C180.671 85.551 180.91 84.9235 181.216 84.3367C181.221 84.3112 181.19 84.3673 181.19 84.3775C181.114 84.5408 181.114 84.7908 181.18 84.9541C181.256 85.2602 181.689 85.4745 182.02 85.403C182.035 85.403 182.045 85.403 182.061 85.3928L181.363 85.6224C174.854 87.7857 164.974 91.051 158.485 93.2092C155.777 94.1684 152.525 92.9337 151.13 90.4235C150.031 88.5867 149.995 86.1122 151.069 84.2194C150.876 84.5561 150.932 85.0663 151.212 85.3418C151.4 85.5714 151.853 85.6888 152.128 85.6122L150.911 86.0153L128.568 93.4337L127 88.5816L149.441 81.4286L150.143 81.2041L150.494 81.0918C153.349 79.9439 156.419 82.6275 155.614 85.6224C155.411 86.5 154.673 87.1275 155.217 88.051C155.609 88.7449 156.352 89 157.06 88.7755C163.565 86.7092 173.459 83.5459 180.025 81.4592L180.727 81.2347L180.905 81.1837C183.358 80.4337 185.868 82.7245 185.435 85.2041C185.389 85.9286 184.85 86.5102 184.773 87.1684C184.661 88.4184 185.888 89.4081 187.12 88.9745C191.146 87.7092 200.831 84.5918 205 83.2755L210.609 81.4898C211.087 81.3367 211.566 81.2347 212.075 81.2806C214.497 81.4081 216.014 84.25 214.767 86.352C214.324 87.1377 214.452 88.102 215.128 88.7602C215.612 89.1939 216.233 89.3979 216.839 89.2551C217.113 89.2092 218.447 88.7653 218.757 88.6684C224.972 86.699 234.505 83.6377 240.669 81.6837C243.331 80.6786 245.896 83.5561 244.628 86.0561L244.542 86.2296L244.516 86.2857L244.471 86.3826C243.656 87.852 245.097 89.8061 246.756 89.4847C248.308 89.0612 258.768 85.6684 260.559 85.1173C263.399 84.2092 268.026 82.7398 270.815 81.8469C272.474 81.2653 274.398 82.4337 274.648 84.1786C274.734 84.6837 274.678 85.2194 274.505 85.6888C274.24 86.2653 274.251 86.2347 274.169 86.4081C273.904 86.9694 273.93 87.5765 274.134 88.153C274.581 89.3316 275.889 90.0153 277.121 89.6122L292.07 84.8469C292.482 84.7143 300.402 82.1939 300.478 82.1684L300.712 82.0918L300.829 82.0561C302.432 81.4847 304.265 82.6786 304.417 84.352C304.468 84.8163 304.397 85.3061 304.209 85.7296C304.056 86.0306 303.893 86.3571 303.807 86.6786C303.252 88.6377 305.313 90.5 307.212 89.7959C307.593 89.6837 308.245 89.4592 308.611 89.3469C312.322 88.1581 319.844 85.7704 323.56 84.5816C324.644 84.2245 328.079 83.1479 329.164 82.7959L330.1 82.5L330.568 82.352C331.184 82.0918 332.202 82.0204 332.833 82.4235C333.337 82.699 333.734 83.1326 333.968 83.653C334.289 84.3622 334.228 85.2398 333.841 85.9132L333.805 85.9949L333.648 86.3214C332.808 88.2908 334.844 90.6632 336.915 90.0765C337.933 89.8163 339.139 89.3724 340.106 89.0867C343.914 87.8571 356.974 83.7194 360.659 82.5357C362.109 81.8928 363.916 82.9541 363.916 84.6071C363.937 85.0816 363.758 85.5255 363.545 85.9388C362.455 87.8418 364.064 90.3826 366.201 90.3775C366.726 90.3775 367.189 90.2398 367.861 90.0204L371.597 88.8316C375.281 87.6428 382.85 85.2551 386.545 84.0663L390.281 82.8775L390.749 82.7296C390.912 82.6735 391.156 82.602 391.35 82.5816C392.821 82.3622 394.129 84.0204 393.518 85.4081L393.289 85.8979C393.177 86.0714 393.07 86.4541 393.009 86.6735C392.525 89.2602 395.06 91.3112 397.483 90.3622C403.173 88.5561 415.129 84.7296 420.84 82.9184C421.196 82.7857 421.679 82.7398 422.056 82.8622C422.886 83.0969 423.471 83.9337 423.4 84.7959C423.379 85.2245 423.12 85.6377 423.028 85.8571C422.346 87.1888 422.743 88.8775 423.827 89.8877C424.698 90.6939 425.965 91.0204 427.115 90.6837C432.073 89.0612 445.489 84.8775 450.457 83.2551L450.925 83.1071C451.088 83.0561 451.281 83.0102 451.464 83.0102C452.64 82.949 453.546 84.3469 452.966 85.3877C451.765 87.4081 452.686 90.0051 454.88 90.8163C456.101 91.3112 457.394 90.852 458.59 90.4439L466.062 88.0612L481.01 83.2959L481 83.3061Z" fill="url(#paint1_linear_433_209)"/>
<path d="M481 100.128L466.107 105.066L458.661 107.536C457.44 107.974 456.055 108.464 454.757 107.949C452.34 107.087 451.332 104.25 452.594 102.046C453.022 101.27 452.33 100.214 451.464 100.276C451.322 100.281 451.2 100.311 451.047 100.357L450.584 100.51C445.576 102.184 432.526 106.48 427.298 108.214C423.883 109.281 420.717 105.536 422.26 102.337C422.428 101.959 422.529 101.801 422.545 101.561C422.601 100.923 421.924 100.321 421.298 100.52C415.546 102.408 403.499 106.418 397.829 108.296C394.765 109.49 391.508 107.082 391.701 103.821L391.767 103.25L391.92 102.699C391.96 102.51 392.062 102.352 392.139 102.173L392.322 101.77C392.459 101.434 392.307 101.02 391.991 100.821C391.701 100.648 391.446 100.694 391.141 100.806L390.678 100.959L386.957 102.194C383.206 103.423 375.806 105.903 372.065 107.133L368.344 108.367C367.779 108.561 366.98 108.827 366.186 108.827C362.812 108.867 360.42 104.99 362.018 102.005L362.13 101.765C362.175 101.679 362.201 101.577 362.196 101.48C362.181 101.158 361.865 100.862 361.534 100.929C361.499 100.944 361.473 100.944 361.422 100.959L361.188 101.036L359.325 101.653C354.902 103.117 342.392 107.27 337.918 108.75C334.045 110.179 330.192 106.27 331.637 102.398C332.105 101.378 332.029 101.587 331.983 101.357C331.897 101.209 331.764 101.102 331.586 101.153L316.806 106.046C315.218 106.556 308.83 108.745 307.369 109.133C303.14 110.097 299.699 105.449 301.781 101.653C301.847 101.515 301.817 101.566 301.832 101.541C301.847 101.531 301.832 101.52 301.842 101.515C301.842 101.5 301.842 101.495 301.842 101.48C301.837 101.429 301.74 101.337 301.715 101.357C301.618 101.367 301.394 101.459 301.282 101.49C295.999 103.24 283.438 107.408 278.017 109.204C273.772 110.663 269.619 106.23 271.39 102.066C271.512 101.796 271.731 101.321 271.675 101.449C271.665 101.454 271.66 101.49 271.665 101.505C271.68 101.546 271.665 101.531 271.696 101.561C271.685 101.607 272.006 101.49 271.319 101.719L269.919 102.184C268.092 102.786 263.41 104.342 261.536 104.964C259.409 105.633 249.342 109.102 247.321 109.612C242.99 110.439 239.355 105.673 241.361 101.699L241.473 101.464L241.524 101.352C241.498 101.378 241.488 101.444 241.483 101.515C241.483 101.577 241.503 101.628 241.524 101.663C241.544 101.735 241.748 101.842 241.865 101.791L241.824 101.806L241.737 101.837L241.564 101.893L240.867 102.122C236.383 103.602 227.242 106.643 222.702 108.143L219.908 109.071L218.508 109.536C216.487 110.311 214.08 109.878 212.507 108.383C210.573 106.622 210.044 103.556 211.372 101.255C211.372 101.245 211.367 101.255 211.367 101.255C211.332 101.316 211.311 101.393 211.311 101.469C211.301 101.684 211.382 101.827 211.515 101.918C211.632 102 211.83 102.051 211.973 102L211.81 102.051L206.221 103.903C202.414 105.184 192.545 108.423 188.759 109.694L188.407 109.811C188.362 109.827 188.27 109.852 188.178 109.878L187.909 109.949C187.731 109.99 187.547 110.041 187.364 110.071C183.394 110.735 179.765 107.02 180.544 103.026C180.671 102.372 180.91 101.745 181.216 101.158C181.221 101.133 181.19 101.189 181.19 101.199C181.114 101.362 181.114 101.612 181.18 101.776C181.256 102.082 181.689 102.296 182.02 102.224C182.035 102.224 182.045 102.224 182.061 102.214L181.363 102.444C174.854 104.607 164.974 107.872 158.485 110.031C155.777 110.99 152.525 109.755 151.13 107.245C150.031 105.408 149.995 102.934 151.069 101.041C150.876 101.378 150.932 101.888 151.212 102.163C151.4 102.393 151.853 102.51 152.128 102.434L150.911 102.837L128.568 110.255L127 105.403L149.441 98.25L150.143 98.0255L150.494 97.9133C153.349 96.7653 156.419 99.449 155.614 102.444C155.411 103.321 154.673 103.949 155.217 104.872C155.609 105.566 156.352 105.821 157.06 105.597C163.565 103.531 173.459 100.367 180.025 98.2806L180.727 98.0561L180.905 98.0051C183.358 97.2551 185.868 99.5459 185.435 102.026C185.389 102.75 184.85 103.332 184.773 103.99C184.661 105.24 185.888 106.23 187.12 105.796C191.146 104.531 200.831 101.413 205 100.097L210.609 98.3112C211.087 98.1582 211.566 98.0561 212.075 98.102C214.497 98.2296 216.014 101.071 214.767 103.173C214.324 103.959 214.452 104.923 215.128 105.582C215.612 106.015 216.233 106.219 216.839 106.077C217.113 106.031 218.447 105.587 218.757 105.49C224.972 103.52 234.505 100.459 240.669 98.5051C243.331 97.5 245.896 100.378 244.628 102.878L244.542 103.051L244.516 103.107L244.471 103.204C243.656 104.673 245.097 106.628 246.756 106.306C248.308 105.883 258.768 102.49 260.559 101.939C263.399 101.031 268.026 99.5612 270.815 98.6684C273.111 97.8775 275.381 100.245 274.505 102.51C273.981 103.561 273.818 103.964 274.134 104.974C274.581 106.153 275.889 106.837 277.121 106.434L292.07 101.668C292.482 101.536 300.402 99.0153 300.478 98.9898L300.712 98.9133L300.829 98.8775C302.432 98.3061 304.265 99.5 304.417 101.173C304.468 101.638 304.397 102.128 304.209 102.551C304.056 102.852 303.893 103.179 303.807 103.5C303.252 105.459 305.313 107.321 307.212 106.617C307.593 106.505 308.245 106.281 308.611 106.168C312.322 104.98 319.844 102.592 323.56 101.403C324.644 101.046 328.079 99.9694 329.164 99.6173L330.1 99.3214L330.568 99.1735C331.184 98.9133 332.202 98.8418 332.833 99.2449C333.337 99.5204 333.734 99.9541 333.968 100.474C334.289 101.184 334.228 102.061 333.841 102.735L333.805 102.816L333.648 103.143C332.808 105.112 334.844 107.485 336.915 106.898C337.933 106.638 339.139 106.194 340.106 105.908C343.914 104.679 356.974 100.541 360.659 99.3571C362.109 98.7143 363.916 99.7755 363.916 101.429C363.937 101.903 363.758 102.347 363.545 102.76C362.455 104.663 364.064 107.204 366.201 107.199C366.726 107.199 367.189 107.061 367.861 106.842L371.597 105.653C375.281 104.464 382.85 102.077 386.545 100.888L390.281 99.699L390.749 99.551C390.912 99.4949 391.156 99.4235 391.35 99.4031C392.821 99.1837 394.129 100.842 393.518 102.23L393.289 102.719C393.177 102.893 393.07 103.276 393.009 103.495C392.525 106.082 395.06 108.133 397.483 107.184C403.173 105.383 415.129 101.551 420.84 99.7398C421.201 99.6071 421.674 99.5612 422.056 99.6837C422.886 99.9184 423.471 100.755 423.4 101.617C423.379 102.046 423.12 102.459 423.028 102.679C422.346 104.01 422.743 105.699 423.827 106.709C424.698 107.515 425.965 107.842 427.115 107.505C432.073 105.883 445.489 101.699 450.457 100.077L450.925 99.9286C451.088 99.8775 451.281 99.8316 451.464 99.8316C452.64 99.7704 453.546 101.168 452.966 102.209C451.765 104.23 452.686 106.827 454.88 107.638C456.101 108.133 457.394 107.673 458.59 107.265L466.062 104.883L481.01 100.117L481 100.128Z" fill="url(#paint2_linear_433_209)"/>
<path d="M481 116.949L466.107 121.888L458.661 124.357C457.44 124.796 456.055 125.286 454.757 124.77C452.34 123.908 451.332 121.071 452.594 118.867C453.022 118.092 452.33 117.036 451.464 117.097C451.322 117.102 451.2 117.133 451.047 117.179L450.584 117.332C445.576 119.005 432.526 123.301 427.298 125.036C423.883 126.102 420.717 122.357 422.26 119.158C422.428 118.781 422.529 118.622 422.545 118.383C422.601 117.745 421.924 117.143 421.298 117.342C415.546 119.23 403.499 123.24 397.829 125.117C394.765 126.311 391.508 123.903 391.701 120.643L391.767 120.071L391.92 119.52C391.96 119.332 392.062 119.173 392.139 118.995L392.322 118.592C392.459 118.255 392.307 117.842 391.991 117.643C391.701 117.469 391.446 117.515 391.141 117.628L390.678 117.781L386.957 119.015C383.206 120.245 375.806 122.725 372.065 123.954L368.344 125.189C367.779 125.383 366.98 125.648 366.186 125.648C362.812 125.689 360.42 121.811 362.018 118.827L362.13 118.587C362.175 118.5 362.201 118.398 362.196 118.301C362.181 117.98 361.865 117.684 361.534 117.75C361.499 117.765 361.473 117.765 361.422 117.781L361.188 117.857L359.325 118.474C354.902 119.939 342.392 124.092 337.918 125.571C334.045 127 330.192 123.092 331.637 119.219C332.105 118.199 332.029 118.408 331.983 118.179C331.897 118.031 331.764 117.923 331.586 117.974L316.806 122.867C315.218 123.378 308.83 125.566 307.369 125.954C303.14 126.918 299.699 122.27 301.781 118.474C301.847 118.337 301.817 118.388 301.832 118.362C301.847 118.352 301.832 118.342 301.842 118.337C301.842 118.321 301.842 118.316 301.842 118.301C301.837 118.25 301.74 118.158 301.715 118.179C301.618 118.189 301.394 118.281 301.282 118.311C295.999 120.061 283.438 124.23 278.017 126.026C273.772 127.485 269.619 123.051 271.39 118.888C271.512 118.617 271.731 118.143 271.675 118.27C271.665 118.276 271.66 118.311 271.665 118.327C271.68 118.367 271.665 118.352 271.696 118.383C271.685 118.429 272.006 118.311 271.319 118.541L269.919 119.005C268.092 119.607 263.41 121.163 261.536 121.786C259.409 122.454 249.342 125.918 247.321 126.434C242.99 127.26 239.355 122.495 241.361 118.52L241.473 118.286L241.524 118.173C241.498 118.199 241.488 118.265 241.483 118.337C241.483 118.398 241.503 118.449 241.524 118.485C241.544 118.556 241.748 118.663 241.865 118.612L241.824 118.628L241.737 118.658L241.564 118.714L240.867 118.944C236.383 120.423 227.242 123.464 222.702 124.964L219.908 125.893L218.508 126.357C216.487 127.133 214.08 126.699 212.507 125.204C210.573 123.444 210.044 120.378 211.372 118.077C211.372 118.066 211.367 118.077 211.367 118.077C211.332 118.138 211.311 118.214 211.311 118.291C211.301 118.505 211.382 118.648 211.515 118.74C211.632 118.821 211.83 118.872 211.973 118.821L211.81 118.872L206.221 120.724C202.414 122.005 192.545 125.245 188.759 126.515L188.407 126.633C188.362 126.648 188.27 126.673 188.178 126.699L187.909 126.77C187.731 126.811 187.547 126.862 187.364 126.893C183.394 127.556 179.765 123.842 180.544 119.847C180.671 119.194 180.91 118.566 181.216 117.98C181.221 117.954 181.19 118.01 181.19 118.02C181.114 118.184 181.114 118.434 181.18 118.597C181.256 118.903 181.689 119.117 182.02 119.046C182.035 119.046 182.045 119.046 182.061 119.036L181.363 119.265C174.854 121.429 164.974 124.694 158.485 126.852C155.777 127.811 152.525 126.577 151.13 124.066C150.031 122.23 149.995 119.755 151.069 117.862C150.876 118.199 150.932 118.709 151.212 118.985C151.4 119.214 151.853 119.332 152.128 119.255L150.911 119.658L128.568 127.077L127 122.225L149.441 115.071L150.143 114.847L150.494 114.735C153.349 113.587 156.419 116.27 155.614 119.265C155.411 120.143 154.673 120.77 155.217 121.694C155.609 122.388 156.352 122.643 157.06 122.418C163.565 120.352 173.459 117.189 180.025 115.102L180.727 114.878L180.905 114.827C183.358 114.077 185.868 116.367 185.435 118.847C185.389 119.571 184.85 120.153 184.773 120.811C184.661 122.061 185.888 123.051 187.12 122.617C191.146 121.352 200.831 118.235 205 116.918L210.609 115.133C211.087 114.98 211.566 114.878 212.075 114.923C214.497 115.051 216.014 117.893 214.767 119.995C214.324 120.781 214.452 121.745 215.128 122.403C215.612 122.837 216.233 123.041 216.839 122.898C217.113 122.852 218.447 122.408 218.757 122.311C224.972 120.342 234.505 117.281 240.669 115.327C243.331 114.321 245.896 117.199 244.628 119.699L244.542 119.872L244.516 119.929L244.471 120.026C243.656 121.495 245.097 123.449 246.756 123.128C248.308 122.704 258.768 119.311 260.559 118.76C263.399 117.852 268.026 116.383 270.815 115.49C272.474 114.908 274.398 116.077 274.648 117.821C274.734 118.327 274.678 118.862 274.505 119.332C274.24 119.908 274.251 119.878 274.169 120.056C273.904 120.617 273.93 121.224 274.134 121.801C274.581 122.98 275.889 123.663 277.121 123.26L292.07 118.495C292.482 118.362 300.402 115.842 300.478 115.816L300.712 115.74L300.829 115.704C302.432 115.133 304.265 116.327 304.417 118C304.468 118.464 304.397 118.954 304.209 119.378C304.056 119.679 303.893 120.005 303.807 120.327C303.252 122.286 305.313 124.148 307.212 123.444C307.593 123.332 308.245 123.107 308.611 122.995C312.322 121.806 319.844 119.418 323.56 118.23C324.644 117.872 328.079 116.796 329.164 116.444L330.1 116.148L330.568 116C331.184 115.74 332.202 115.668 332.833 116.071C333.337 116.347 333.734 116.781 333.968 117.301C334.289 118.01 334.228 118.888 333.841 119.561L333.805 119.643L333.648 119.969C332.808 121.939 334.844 124.311 336.915 123.724C337.928 123.469 339.145 123.02 340.106 122.735C343.914 121.505 356.974 117.367 360.659 116.184C362.109 115.541 363.916 116.602 363.916 118.255C363.937 118.73 363.758 119.173 363.545 119.587C362.455 121.49 364.064 124.031 366.201 124.026C366.726 124.026 367.189 123.888 367.861 123.668L371.597 122.48C375.281 121.291 382.85 118.903 386.545 117.714L390.281 116.526L390.749 116.378C390.912 116.321 391.156 116.25 391.35 116.23C392.821 116.01 394.129 117.668 393.518 119.056L393.289 119.546C393.177 119.719 393.07 120.102 393.009 120.321C392.525 122.908 395.06 124.959 397.483 124.01C403.173 122.209 415.129 118.378 420.84 116.566C421.201 116.434 421.674 116.388 422.056 116.51C422.886 116.745 423.471 117.582 423.4 118.444C423.379 118.872 423.12 119.286 423.028 119.505C422.346 120.837 422.743 122.526 423.827 123.536C424.698 124.342 425.965 124.668 427.115 124.332C432.073 122.709 445.489 118.526 450.457 116.903L450.925 116.755C451.088 116.704 451.281 116.658 451.464 116.658C452.64 116.597 453.546 117.995 452.966 119.036C451.765 121.056 452.686 123.653 454.88 124.464C456.101 124.959 457.394 124.5 458.59 124.092L466.062 121.709L481.01 116.944L481 116.949Z" fill="url(#paint3_linear_433_209)"/>
<path d="M481 133.77L466.108 138.709L458.662 141.179C457.44 141.617 456.056 142.107 454.758 141.592C452.34 140.73 451.332 137.893 452.595 135.689C453.022 134.913 452.33 133.857 451.465 133.918C451.322 133.923 451.2 133.954 451.047 134L450.584 134.153C445.576 135.827 432.526 140.122 427.299 141.857C423.884 142.923 420.718 139.179 422.26 135.98C422.428 135.602 422.53 135.444 422.545 135.204C422.601 134.566 421.924 133.964 421.298 134.163C415.547 136.051 403.499 140.061 397.829 141.939C394.765 143.133 391.508 140.724 391.701 137.464L391.768 136.893L391.92 136.342C391.961 136.153 392.063 135.995 392.139 135.816L392.322 135.413C392.46 135.077 392.307 134.663 391.991 134.464C391.701 134.291 391.447 134.337 391.141 134.449L390.678 134.602L386.958 135.837C383.207 137.066 375.806 139.546 372.065 140.776L368.345 142.01C367.78 142.204 366.981 142.469 366.187 142.469C362.812 142.51 360.42 138.633 362.018 135.648L362.13 135.408C362.176 135.321 362.201 135.219 362.196 135.122C362.181 134.801 361.865 134.505 361.535 134.571C361.499 134.587 361.473 134.587 361.423 134.602L361.188 134.679L359.326 135.296C354.903 136.76 342.392 140.913 337.918 142.393C334.045 143.821 330.192 139.913 331.638 136.041C332.106 135.02 332.029 135.23 331.984 135C331.897 134.852 331.765 134.745 331.587 134.796L316.806 139.689C315.218 140.199 308.831 142.388 307.37 142.776C303.14 143.74 299.7 139.092 301.781 135.296C301.847 135.158 301.817 135.209 301.832 135.184C301.847 135.173 301.832 135.163 301.842 135.158C301.842 135.143 301.842 135.138 301.842 135.122C301.837 135.071 301.741 134.98 301.715 135C301.618 135.01 301.394 135.102 301.283 135.133C295.999 136.883 283.438 141.051 278.017 142.847C273.773 144.306 269.619 139.872 271.391 135.709C271.513 135.439 271.732 134.964 271.676 135.092C271.665 135.097 271.66 135.133 271.665 135.148C271.681 135.189 271.665 135.173 271.696 135.204C271.686 135.25 272.006 135.133 271.319 135.362L269.92 135.827C268.092 136.429 263.41 137.985 261.537 138.607C259.409 139.276 249.342 142.745 247.321 143.255C242.99 144.082 239.356 139.316 241.361 135.342L241.473 135.107L241.524 134.995C241.499 135.02 241.489 135.087 241.483 135.158C241.483 135.219 241.504 135.27 241.524 135.306C241.544 135.378 241.748 135.485 241.865 135.434L241.824 135.449L241.738 135.48L241.565 135.536L240.868 135.765C236.384 137.245 227.242 140.286 222.702 141.786L219.908 142.714L218.508 143.179C216.488 143.954 214.08 143.52 212.508 142.026C210.574 140.265 210.044 137.199 211.373 134.898C211.373 134.888 211.368 134.898 211.368 134.898C211.332 134.959 211.312 135.036 211.312 135.112C211.301 135.327 211.383 135.469 211.515 135.561C211.632 135.643 211.831 135.694 211.973 135.643L211.81 135.694L206.222 137.546C202.415 138.827 192.546 142.066 188.759 143.337L188.408 143.454C188.362 143.469 188.27 143.495 188.179 143.52L187.909 143.592C187.731 143.638 187.548 143.684 187.364 143.714C183.394 144.378 179.766 140.663 180.544 136.668C180.671 136.015 180.911 135.388 181.216 134.801C181.221 134.776 181.191 134.832 181.191 134.842C181.114 135.005 181.114 135.255 181.18 135.418C181.257 135.724 181.689 135.939 182.02 135.867C182.036 135.867 182.046 135.867 182.061 135.857L181.364 136.087C174.854 138.25 164.975 141.515 158.485 143.673C155.778 144.633 152.525 143.398 151.131 140.888C150.031 139.051 149.996 136.577 151.07 134.684C150.876 135.02 150.932 135.531 151.212 135.806C151.401 136.036 151.854 136.153 152.128 136.077L150.912 136.48L128.558 143.893L126.99 139.041L149.431 131.888L150.133 131.663L150.484 131.551C153.34 130.403 156.409 133.087 155.605 136.082C155.401 136.959 154.663 137.587 155.208 138.51C155.6 139.204 156.343 139.459 157.05 139.235C163.555 137.168 173.449 134.005 180.015 131.918L180.717 131.694L180.895 131.643C183.349 130.893 185.858 133.184 185.425 135.663C185.379 136.388 184.84 136.969 184.764 137.628C184.652 138.878 185.878 139.867 187.11 139.434C191.136 138.168 200.822 135.051 204.99 133.735L210.599 131.949C211.077 131.796 211.556 131.694 212.065 131.74C214.488 131.867 216.004 134.709 214.757 136.811C214.315 137.597 214.442 138.561 215.119 139.219C215.602 139.653 216.223 139.857 216.829 139.714C217.104 139.668 218.437 139.224 218.748 139.128C224.962 137.158 234.495 134.097 240.659 132.143C243.321 131.138 245.886 134.015 244.619 136.515L244.532 136.689L244.507 136.745L244.461 136.842C243.647 138.311 245.087 140.265 246.746 139.944C248.299 139.52 258.758 136.128 260.549 135.577C263.39 134.668 268.016 133.199 270.805 132.306C272.465 131.724 274.388 132.893 274.638 134.638C274.724 135.143 274.668 135.679 274.495 136.148C274.231 136.724 274.241 136.694 274.159 136.872C273.895 137.434 273.92 138.041 274.124 138.617C274.572 139.796 275.88 140.48 277.111 140.077L292.06 135.311C292.472 135.179 300.392 132.658 300.468 132.633L300.702 132.556L300.819 132.52C302.423 131.949 304.255 133.143 304.408 134.816C304.458 135.281 304.387 135.77 304.199 136.194C304.046 136.495 303.883 136.821 303.797 137.143C303.242 139.102 305.303 140.964 307.202 140.26C307.584 140.148 308.235 139.923 308.602 139.811C312.312 138.622 319.835 136.235 323.55 135.046C324.634 134.689 328.07 133.612 329.154 133.26L330.09 132.964L330.559 132.816C331.174 132.556 332.192 132.485 332.823 132.888C333.327 133.163 333.724 133.597 333.958 134.117C334.279 134.827 334.218 135.704 333.831 136.378L333.796 136.459L333.638 136.786C332.798 138.755 334.834 141.128 336.905 140.541C337.918 140.286 339.135 139.837 340.097 139.551C343.904 138.321 356.964 134.184 360.649 133C362.1 132.357 363.906 133.418 363.906 135.071C363.927 135.546 363.749 135.99 363.535 136.403C362.446 138.306 364.054 140.847 366.192 140.842C366.716 140.842 367.179 140.704 367.851 140.485L371.587 139.296C375.272 138.107 382.84 135.719 386.535 134.531L390.271 133.342L390.739 133.194C390.902 133.138 391.147 133.066 391.34 133.046C392.811 132.827 394.119 134.485 393.508 135.872L393.279 136.362C393.167 136.536 393.06 136.918 392.999 137.138C392.516 139.724 395.05 141.776 397.473 140.827C403.163 139.02 415.119 135.194 420.83 133.383C421.191 133.25 421.664 133.204 422.046 133.327C422.876 133.561 423.461 134.398 423.39 135.26C423.37 135.689 423.11 136.102 423.018 136.321C422.336 137.653 422.733 139.342 423.817 140.352C424.688 141.158 425.955 141.485 427.105 141.148C432.063 139.526 445.479 135.342 450.447 133.719L450.915 133.571C451.078 133.52 451.271 133.474 451.455 133.474C452.63 133.413 453.536 134.811 452.956 135.852C451.755 137.872 452.676 140.469 454.87 141.281C456.091 141.776 457.384 141.316 458.58 140.908L466.052 138.526L481 133.76V133.77Z" fill="url(#paint4_linear_433_209)"/>
</g>
<g clip-path="url(#clip1_433_209)">
<path d="M99.6197 197.292C153.352 197.292 196.911 153.733 196.911 99.9999C196.911 46.2673 153.352 2.70837 99.6197 2.70837C45.887 2.70837 2.32812 46.2673 2.32812 99.9999C2.32812 153.733 45.887 197.292 99.6197 197.292Z" fill="#07074B"/>
<path d="M100.017 158.597C132.456 158.597 158.754 132.299 158.754 99.8595C158.754 67.4197 132.456 41.122 100.017 41.122C67.5767 41.122 41.2791 67.4197 41.2791 99.8595C41.2791 132.299 67.5767 158.597 100.017 158.597Z" fill="#FFFDEC"/>
<path d="M100 5.1904C152.362 5.1904 194.81 47.6381 194.81 100C194.81 152.362 152.362 194.809 100 194.809C47.6381 194.809 5.1904 152.362 5.1904 100C5.1904 47.6382 47.6382 5.1904 100 5.1904ZM100 0C86.5024 0 73.4057 2.64471 61.074 7.86066C49.1654 12.8975 38.4716 20.1071 29.2894 29.2893C20.1072 38.4715 12.8975 49.1653 7.86066 61.0739C2.64471 73.4057 0 86.5024 0 100C0 113.498 2.64471 126.594 7.86066 138.926C12.8975 150.835 20.1071 161.528 29.2894 170.71C38.4716 179.893 49.1654 187.102 61.074 192.139C73.4058 197.355 86.5024 200 100 200C113.498 200 126.594 197.355 138.926 192.139C150.835 187.102 161.529 179.893 170.711 170.71C179.893 161.528 187.102 150.835 192.139 138.926C197.355 126.594 200 113.498 200 100C200 86.5024 197.355 73.4057 192.139 61.0739C187.102 49.1653 179.893 38.4715 170.711 29.2893C161.529 20.1071 150.835 12.8975 138.926 7.86066C126.594 2.64471 113.498 0 100 0Z" fill="#04837A"/>
<path d="M130.756 90.2252H132.897V91.2903H129.339V90.829C129.339 89.9398 129.625 89.3249 130.393 88.6443L130.964 88.1282C131.403 87.744 131.612 87.3047 131.612 86.7668C131.612 86.2727 131.403 86.0312 131.041 86.0312C130.635 86.0312 130.404 86.3056 130.404 87.1181H129.229C129.229 85.7238 129.844 85.054 131.129 85.054C132.238 85.054 132.864 85.6688 132.864 86.7667C132.864 87.5133 132.578 88.0952 131.941 88.6881L131.316 89.281C130.986 89.5994 130.811 89.8849 130.756 90.2252ZM137.728 88.2269C137.728 90.4778 137.113 91.4 135.631 91.4C134.159 91.4 133.545 90.4777 133.545 88.2269C133.545 85.9761 134.159 85.054 135.631 85.054C137.113 85.054 137.728 85.9762 137.728 88.2269ZM136.399 88.2269C136.399 86.646 136.202 86.108 135.631 86.108C135.071 86.108 134.873 86.646 134.873 88.2269C134.873 89.8078 135.071 90.346 135.631 90.346C136.202 90.346 136.399 89.808 136.399 88.2269ZM140.385 89.281L141.01 88.6881C141.647 88.0953 141.933 87.5133 141.933 86.7667C141.933 85.6688 141.307 85.054 140.198 85.054C138.913 85.054 138.299 85.7238 138.299 87.1181H139.473C139.473 86.3056 139.704 86.0312 140.11 86.0312C140.472 86.0312 140.681 86.2727 140.681 86.7668C140.681 87.3048 140.472 87.744 140.033 88.1282L139.462 88.6443C138.694 89.3249 138.408 89.9399 138.408 90.829V91.2903H141.966V90.2252H139.825C139.88 89.8849 140.055 89.5994 140.385 89.281ZM145.82 89.0834H146.489V90.0605H145.82V91.2902H144.59V90.0605H142.328V89.215L144.645 85.1637H145.82V89.0834ZM144.612 86.9314L143.393 89.0834H144.612V86.9314ZM53.4294 85.1637H57.0746V86.2507H54.7578V87.6341H56.6025V88.6991H54.7578V90.2032H57.0746V91.2902H53.4294V85.1637ZM60.555 87.8318L59.6876 87.4694C59.1825 87.2499 58.9959 87.0522 58.9959 86.6679C58.9959 86.2836 59.2045 86.075 59.6546 86.075C60.1378 86.075 60.3573 86.3386 60.3793 86.9425H61.7187C61.6528 85.7017 60.9722 85.054 59.6766 85.054C58.3151 85.054 57.6783 85.7457 57.6783 86.7887C57.6783 87.6452 58.1395 88.194 58.9629 88.5344L59.8523 88.9186C60.3573 89.1383 60.5219 89.336 60.5219 89.7311C60.5219 90.1594 60.2804 90.3789 59.7973 90.3789C59.2264 90.3789 58.941 90.1045 58.9189 89.4677H57.5575C57.6014 90.7083 58.315 91.4 59.7753 91.4C61.2026 91.4 61.8505 90.6864 61.8505 89.6323C61.8505 88.7979 61.4882 88.2269 60.555 87.8318ZM61.8725 86.2946H63.256V91.2903H64.5844V86.2946H65.9679V85.1637H61.8725V86.2946ZM70.8476 90.2033H66.4948V91.2903H70.8476V90.2033ZM69.0161 89.1162H66.4948V85.1637H69.0161C70.1565 85.1637 70.916 85.78 70.916 87.14C70.916 88.5 70.1565 89.1162 69.0161 89.1162ZM68.8468 87.987C69.2092 87.987 69.5547 87.7471 69.5547 87.14C69.5547 86.5328 69.2092 86.293 68.8468 86.293H67.8234V87.987H68.8468Z" fill="#04837A"/>
<path d="M100.017 39.9294C66.9181 39.9294 40.0864 66.761 40.0864 99.8594C40.0864 132.958 66.918 159.79 100.017 159.79C133.115 159.79 159.947 132.958 159.947 99.8594C159.947 66.7607 133.115 39.9294 100.017 39.9294ZM138.723 138.567C138.705 138.585 138.687 138.603 138.668 138.622C135.448 141.833 130.679 142.934 126.353 141.531L123.531 140.615C123.184 140.503 122.881 140.875 123.06 141.192C123.543 142.048 122.724 143.05 121.789 142.747L115.216 140.616C114.869 140.503 114.566 140.875 114.745 141.192C115.228 142.048 114.409 143.05 113.474 142.747L108.108 141.007C106.092 140.353 104.726 138.66 104.726 136.539V122.698C104.726 122.367 104.458 122.099 104.127 122.099H95.8731C95.5423 122.099 95.2742 122.367 95.2742 122.698V136.539C95.2742 138.549 93.9794 140.33 92.0678 140.95L86.5259 142.747C85.5915 143.05 84.7719 142.048 85.2546 141.192C85.4343 140.875 85.1306 140.503 84.7842 140.616L78.2108 142.747C77.2765 143.05 76.4568 142.048 76.9397 141.192C77.1193 140.875 76.8157 140.503 76.4691 140.615L73.661 141.526C69.3414 142.927 64.5804 141.828 61.3649 138.622C61.3465 138.603 61.3281 138.585 61.3098 138.567C56.2808 133.538 52.3332 127.683 49.5764 121.165C46.7234 114.42 45.2768 107.252 45.2768 99.8594C45.2768 92.4673 46.7234 85.2992 49.5764 78.5539C52.3332 72.0362 56.2808 66.1816 61.3097 61.1527C66.3386 56.1239 72.1933 52.1762 78.711 49.4195C85.4562 46.5664 92.6245 45.1198 100.017 45.1198C107.409 45.1198 114.577 46.5664 121.322 49.4195C127.84 52.1762 133.695 56.1239 138.723 61.1527C143.752 66.1816 147.7 72.0362 150.457 78.5539C153.31 85.2992 154.756 92.4674 154.756 99.8594C154.756 107.251 153.31 114.42 150.457 121.165C147.7 127.683 143.752 133.538 138.723 138.567ZM129.995 105.857L116.962 102.231L130.449 126.116C130.624 126.425 130.337 126.792 129.994 126.697L108.59 120.74C108.284 120.654 108.024 120.451 107.868 120.175L102.859 111.305C102.684 110.995 102.971 110.628 103.314 110.724L113.977 113.693L100.017 88.9689L113.978 92.8532L100.017 68.1266L86.0557 92.8532L100.017 88.9689L86.0559 113.693L96.7194 110.724C97.0622 110.628 97.3491 110.995 97.1742 111.305L92.1656 120.175C92.0094 120.451 91.7497 120.654 91.4437 120.74L70.0396 126.697C69.6969 126.792 69.4099 126.425 69.5848 126.116L83.0718 102.231L70.0388 105.857C69.6961 105.952 69.4092 105.586 69.5841 105.276L99.6691 51.9943C99.8219 51.7237 100.212 51.7237 100.364 51.9943L130.449 105.276C130.624 105.586 130.337 105.952 129.995 105.857Z" fill="#04837A"/>
<path d="M183.496 110.974C183.133 113.517 182.265 115.344 180.916 116.404C179.842 117.249 178.705 117.417 177.943 117.469L177.645 117.49L177.432 114.518L177.732 114.497C178.873 114.418 180.245 113.901 180.719 110.578C180.861 109.586 181.009 108.31 180.899 107.233C180.776 106.031 180.375 105.397 179.673 105.297C179.629 105.291 179.586 105.288 179.545 105.288C178.468 105.288 178.003 107.497 177.695 108.959C177.664 109.105 177.634 109.246 177.605 109.378C176.517 114.361 175.35 116.127 173.145 116.127C172.938 116.127 172.715 116.11 172.482 116.077C170.073 115.733 168.878 112.535 169.508 108.119C169.973 104.86 171.192 102.817 173.233 101.871L173.488 101.753L174.814 104.205L174.551 104.347C173.918 104.689 172.74 105.326 172.285 108.515C171.904 111.186 172.165 112.984 172.95 113.096C173.011 113.105 173.066 113.109 173.116 113.109C173.69 113.109 174.104 112.462 174.907 108.786C175.663 105.326 176.579 102.221 179.456 102.221C179.663 102.221 179.881 102.237 180.105 102.269C181.742 102.502 182.839 103.474 183.365 105.156C183.809 106.578 183.851 108.481 183.496 110.974ZM85.153 182.65L97.9181 183.9L98.1748 181.278L88.2012 180.3L88.4692 177.563L97.815 178.479L98.0719 175.856L88.7259 174.94L89.0121 172.017L98.9856 172.994L99.2425 170.371L86.4774 169.121L85.153 182.65ZM23.7636 128.028L33.871 123.794L32.7873 121.207L20.2494 126.459L25.0993 138.036L27.5297 137.018L23.7636 128.028ZM53.1609 152.263L41.0603 154.337L44.08 142.437L42.2734 140.483L32.2858 149.713L34.1895 151.773L40.2669 146.156L37.8941 155.781L39.3717 157.38L49.1538 155.772L43.0765 161.389L44.9801 163.449L54.9677 154.218L53.1609 152.263ZM38.4639 134.046L26.8633 141.132L28.3256 143.526L39.926 136.44L38.4639 134.046ZM69.2703 166.513L74.5857 168.378L70.9615 178.72L73.6084 179.648L77.2326 169.306L82.3856 171.103L83.257 168.616L70.1418 164.027L69.2703 166.513ZM62.7632 159.522L64.8564 160.775L64.4629 176.387L61.697 174.732L61.7801 172.409L53.9648 167.733L51.9569 168.904L49.1909 167.249L62.7632 159.522ZM62.1174 162.977L56.3961 166.314L61.8807 169.596L62.1174 162.977ZM164.156 144.971L170.753 145.27L168.593 147.969L162.17 147.526L157.501 153.357L161.627 156.66L159.875 158.85L149.263 150.354L157.401 140.189C158.224 139.16 159.32 138.587 160.485 138.575C161.42 138.565 162.359 138.917 163.202 139.591C165.1 141.111 165.433 143.048 164.156 144.971ZM162.039 142.897C162.011 142.52 161.795 142.166 161.396 141.847C161.074 141.59 160.741 141.461 160.406 141.464C159.989 141.468 159.577 141.687 159.275 142.064L153.073 149.812L155.445 151.711L161.647 143.963C161.929 143.611 162.065 143.242 162.039 142.897ZM150.393 159.321C151.516 161.093 151.754 163.043 151.08 164.962C150.383 166.948 148.713 168.824 146.252 170.386L146.247 170.389L146.244 170.392L146.235 170.397L146.231 170.4C144.041 171.785 141.955 172.488 140.029 172.488C137.693 172.488 135.716 171.399 134.463 169.422C133.339 167.65 133.102 165.7 133.776 163.78C134.473 161.794 136.143 159.919 138.605 158.356L138.617 158.347L138.625 158.344C140.814 156.958 142.901 156.255 144.827 156.255C147.163 156.255 149.14 157.344 150.393 159.321ZM147.741 161.003C147.014 159.856 145.865 159.25 144.42 159.25C143.12 159.25 141.631 159.759 140.113 160.721C136.886 162.768 135.709 165.523 137.115 167.74C137.842 168.887 138.99 169.493 140.435 169.493C141.735 169.493 143.225 168.984 144.743 168.022C147.97 165.976 149.146 163.22 147.741 161.003ZM176.497 123.995C176.997 125.277 176.888 126.712 176.181 128.144L172.955 134.683L175.704 136.039L174.463 138.554L162.267 132.537L166.734 123.483C167.675 121.575 169.245 120.525 171.156 120.525C172.005 120.525 172.903 120.746 173.753 121.165C175.063 121.811 176.037 122.816 176.497 123.995ZM172.509 123.781C172.031 123.545 171.543 123.42 171.099 123.42C170.186 123.42 169.447 123.94 168.962 124.924L165.871 131.188L170.594 133.518L173.685 127.253C174.683 125.23 173.377 124.209 172.509 123.781ZM21.853 120.209L23.018 117.493L22.7742 117.364C21.372 116.621 19.8582 115.403 19.2636 111.992C18.6174 108.285 19.9616 105.484 22.6086 105.023C22.8384 104.983 23.0704 104.962 23.298 104.962C25.6789 104.962 27.5246 107.065 28.1147 110.449C28.7091 113.86 27.6972 115.519 26.6289 116.691L26.443 116.896L28.4586 119.057L28.6778 118.832C30.7167 116.736 31.3817 113.846 30.7106 109.997C30.2585 107.403 29.3576 105.382 28.0333 103.99C26.7831 102.676 25.1771 101.981 23.389 101.981C22.9685 101.981 22.5342 102.02 22.0981 102.096C20.0224 102.457 18.4146 103.564 17.4485 105.295C16.4379 107.106 16.1679 109.579 16.6677 112.445C17.3387 116.294 18.9424 118.788 21.5704 120.071L21.853 120.209ZM128.539 173.489C128.08 175.007 127.175 176.727 123.942 177.965C122.796 178.404 121.708 178.626 120.706 178.626C118.642 178.626 117.094 177.676 116.46 176.02C116.018 174.866 116.142 173.621 116.809 172.516C117.549 171.29 118.904 170.274 120.729 169.575C121.924 169.117 122.978 168.894 123.951 168.894C125.07 168.894 126.083 169.193 127.14 169.835L127.376 169.978L129.11 167.585L128.847 167.413C127.553 166.569 126.077 166.14 124.46 166.14C123.045 166.14 121.473 166.468 119.786 167.114C117.069 168.155 115.085 169.654 114.048 171.45C113.057 173.167 112.931 175.115 113.685 177.083C114.751 179.868 117.056 181.401 120.173 181.401C121.609 181.401 123.194 181.073 124.884 180.426C128.533 179.028 130.673 176.976 131.427 174.151L131.508 173.847L128.619 173.225L128.539 173.489ZM45.7792 54.8409L36.6059 44.8012L38.5675 43.0087L50.0698 45.7005L48.4521 33.9771L50.4134 32.1851L59.5867 42.2248L57.5162 44.1167L51.897 37.967L53.084 47.3957L51.4854 48.8563L42.2342 46.8028L47.8498 52.9489L45.7792 54.8409ZM158.614 61.5396L167.452 56.8479L164.813 73.2168L165.981 75.416L177.992 69.0391L176.677 66.5619L167.84 71.2536L170.478 54.8846L169.311 52.6854L157.299 59.0621L158.614 61.5396ZM116.676 17.7818L113.916 17.2811L111.49 30.6566L114.25 31.1571L116.676 17.7818ZM130 36.8491C131.814 37.6982 133.548 38.1615 135.154 38.2264C137.899 38.3374 139.311 37.2516 139.37 37.2053L139.585 37.036L138.053 34.6826L137.797 34.8758C137.788 34.8818 136.827 35.5747 134.975 35.5C133.783 35.4518 132.485 35.1027 131.117 34.4623C129.173 33.5526 127.778 32.385 127.083 31.0861C126.46 29.9221 126.414 28.7005 126.951 27.5532C127.672 26.0126 129.152 25.2079 131.119 25.2873C132.273 25.334 133.553 25.6831 134.925 26.325C137.221 27.3997 138.349 28.6682 138.891 29.543C139.474 30.4841 139.521 31.1834 139.522 31.1904L139.541 31.5075L142.326 31.1778L142.318 30.9043C142.314 30.7375 142.132 26.7883 136.042 23.9382C134.216 23.0839 132.482 22.618 130.887 22.5536C127.837 22.4305 125.501 23.7668 124.308 26.3163C123.42 28.213 123.454 30.1895 124.407 32.032C125.388 33.9304 127.322 35.5961 130 36.8491ZM100.314 24.3642L104.707 29.3645L101.255 29.6438L97.0877 24.6725L89.6401 25.2752L90.0663 30.5431L87.2706 30.7692L86.1745 17.22C86.1745 17.22 99.3614 16.1561 99.4633 16.154C101.78 16.1058 103.463 17.6415 103.652 19.9752C103.845 22.3617 102.607 23.9678 100.314 24.3642ZM99.32 21.8487C99.8764 21.8037 100.794 21.5315 100.687 20.215C100.602 19.1609 99.8555 18.8004 99.1855 18.8144C99.1485 18.8151 99.1114 18.817 99.0745 18.8201L89.1826 19.6205L89.4277 22.649L99.32 21.8487ZM78.636 30.0235L68.0927 34.473L67.0232 31.9387L76.9854 27.7343L75.9609 25.3065L65.9985 29.511L64.8563 26.8047L75.3995 22.355L74.375 19.9273L61.2478 25.4676L66.5333 37.9914L79.6605 32.4512L78.636 30.0235ZM33.1302 76.0178L25.5646 61.5697L27.0433 58.8868L43.2989 57.567L41.645 60.5679L39.2248 60.7407L33.6375 70.8785L34.784 73.0169L33.1302 76.0178ZM32.2495 68.2893L36.2943 60.95L28.6093 61.4988L32.2495 68.2893ZM140.11 41.6775L155.981 37.9223L158.214 40.0189L155.471 56.0955L152.973 53.7505L153.404 51.3627L144.964 43.4407L142.608 44.0224L140.11 41.6775ZM147.816 42.7366L153.926 48.4717L155.296 40.8899L147.816 42.7366Z" fill="#FFFDEC"/>
<path d="M176.253 85.8989L174.815 84.5792L176.025 80.95C176.08 80.7865 176.232 80.6767 176.404 80.6767H177.381V85.9883C177.171 85.8934 176.938 85.8405 176.692 85.8405C176.54 85.8405 176.393 85.8609 176.253 85.8989ZM182.686 90.1323L180.198 87.2262L178.355 87.7704C178.295 88.1705 178.094 88.525 177.804 88.7812L182.222 91.4356L182.725 90.5979C182.814 90.4503 182.798 90.2633 182.686 90.1323ZM175.018 87.3711L170.358 90.4847L170.901 91.2972C170.976 91.4102 171.102 91.475 171.233 91.475C171.268 91.475 171.304 91.4703 171.339 91.4607L175.029 90.4504L175.33 88.5049C175.13 88.2282 175.011 87.8884 175.011 87.5215C175.011 87.4709 175.014 87.4207 175.018 87.3711ZM176.692 86.7607C176.273 86.7607 175.932 87.102 175.932 87.5215C175.932 87.941 176.273 88.2823 176.692 88.2823C177.112 88.2823 177.453 87.941 177.453 87.5215C177.453 87.102 177.112 86.7607 176.692 86.7607Z" fill="#FFFDEC"/>
<path d="M22.7124 85.8989L21.2748 84.5792L22.4846 80.95C22.5392 80.7865 22.6915 80.6767 22.8637 80.6767H23.841V85.9883C23.6306 85.8934 23.3973 85.8405 23.1518 85.8405C22.9998 85.8405 22.8525 85.8609 22.7124 85.8989ZM29.1457 90.1323L26.6579 87.2262L24.8144 87.7704C24.7547 88.1705 24.5535 88.525 24.2635 88.7812L28.6813 91.4356L29.1847 90.5979C29.2733 90.4503 29.2577 90.2633 29.1457 90.1323ZM21.4776 87.3711L16.8176 90.4847L17.3605 91.2972C17.436 91.4102 17.5613 91.475 17.6925 91.475C17.7277 91.475 17.7632 91.4703 17.7984 91.4607L21.4881 90.4504L21.7894 88.5049C21.5891 88.2282 21.4709 87.8884 21.4709 87.5215C21.4709 87.4709 21.4732 87.4207 21.4776 87.3711ZM23.1518 86.7607C22.7323 86.7607 22.3911 87.102 22.3911 87.5215C22.3911 87.941 22.7323 88.2823 23.1518 88.2823C23.5713 88.2823 23.9126 87.941 23.9126 87.5215C23.9126 87.102 23.5713 86.7607 23.1518 86.7607Z" fill="#FFFDEC"/>
</g>
<defs>
<linearGradient id="paint0_linear_433_209" x1="127" y1="70.3558" x2="481.01" y2="70.3558" gradientUnits="userSpaceOnUse">
<stop stop-color="#04837A"/>
<stop offset="0.497725" stop-color="#047D74"/>
<stop offset="0.867725" stop-color="#047D74" stop-opacity="0"/>
</linearGradient>
<linearGradient id="paint1_linear_433_209" x1="127" y1="87.1773" x2="481.01" y2="87.1773" gradientUnits="userSpaceOnUse">
<stop stop-color="#04837A"/>
<stop offset="0.497725" stop-color="#047D74"/>
<stop offset="0.867725" stop-color="#047D74" stop-opacity="0"/>
</linearGradient>
<linearGradient id="paint2_linear_433_209" x1="127" y1="103.999" x2="481.01" y2="103.999" gradientUnits="userSpaceOnUse">
<stop stop-color="#04837A"/>
<stop offset="0.497725" stop-color="#047D74"/>
<stop offset="0.867725" stop-color="#047D74" stop-opacity="0"/>
</linearGradient>
<linearGradient id="paint3_linear_433_209" x1="127" y1="120.82" x2="481.01" y2="120.82" gradientUnits="userSpaceOnUse">
<stop stop-color="#04837A"/>
<stop offset="0.497725" stop-color="#047D74"/>
<stop offset="0.867725" stop-color="#047D74" stop-opacity="0"/>
</linearGradient>
<linearGradient id="paint4_linear_433_209" x1="126.99" y1="137.639" x2="481" y2="137.639" gradientUnits="userSpaceOnUse">
<stop stop-color="#04837A"/>
<stop offset="0.497725" stop-color="#047D74"/>
<stop offset="0.867725" stop-color="#047D74" stop-opacity="0"/>
</linearGradient>
<clipPath id="clip0_433_209">
<rect width="354" height="80" fill="white" transform="translate(127 64)"/>
</clipPath>
<clipPath id="clip1_433_209">
<rect width="200" height="200" fill="white"/>
</clipPath>
</defs>
</svg>
