<svg width="388" height="125" viewBox="0 0 388 125" fill="none" xmlns="http://www.w3.org/2000/svg">
<g clip-path="url(#clip0_433_210)">
<path d="M388 44.9877L376.01 48.9387L370.015 50.9142C369.032 51.2652 367.917 51.6571 366.872 51.2448C364.926 50.555 364.115 48.2856 365.131 46.5224C365.475 45.902 364.918 45.0571 364.221 45.1061C364.107 45.1101 364.008 45.1346 363.885 45.1714L363.512 45.2938C359.48 46.6326 348.974 50.0693 344.766 51.4571C342.016 52.3101 339.467 49.3142 340.709 46.755C340.844 46.453 340.926 46.3265 340.938 46.1346C340.984 45.6244 340.439 45.1428 339.934 45.302C335.304 46.8122 325.605 50.0203 321.04 51.5224C318.573 52.4775 315.951 50.551 316.107 47.9428L316.16 47.4856L316.283 47.0448C316.316 46.8938 316.398 46.7673 316.459 46.6244L316.607 46.302C316.717 46.0326 316.594 45.702 316.34 45.5428C316.107 45.404 315.902 45.4408 315.656 45.5305L315.283 45.653L312.288 46.6408C309.268 47.6244 303.31 49.6081 300.298 50.5918L297.303 51.5795C296.848 51.7346 296.204 51.9469 295.565 51.9469C292.848 51.9795 290.922 48.8775 292.209 46.4897L292.299 46.2979C292.336 46.2285 292.357 46.1469 292.353 46.0693C292.34 45.8122 292.086 45.5754 291.82 45.6285C291.791 45.6408 291.771 45.6408 291.73 45.653L291.541 45.7142L290.041 46.2081C286.481 47.3795 276.409 50.702 272.807 51.8856C269.688 53.0285 266.587 49.902 267.75 46.804C268.127 45.9877 268.066 46.155 268.029 45.9714C267.959 45.853 267.853 45.7673 267.709 45.8081L255.81 49.7224C254.531 50.1305 249.389 51.8816 248.213 52.1918C244.807 52.9632 242.037 49.2448 243.713 46.2081C243.767 46.0979 243.742 46.1387 243.754 46.1183C243.767 46.1101 243.754 46.102 243.763 46.0979C243.763 46.0856 243.763 46.0816 243.763 46.0693C243.758 46.0285 243.681 45.955 243.66 45.9714C243.582 45.9795 243.402 46.053 243.312 46.0775C239.058 47.4775 228.945 50.8122 224.581 52.2489C221.164 53.4163 217.82 49.8693 219.246 46.5387C219.345 46.3224 219.521 45.9428 219.476 46.0448C219.468 46.0489 219.464 46.0775 219.468 46.0897C219.48 46.1224 219.468 46.1101 219.492 46.1346C219.484 46.1714 219.742 46.0775 219.189 46.2612L218.062 46.6326C216.591 47.1142 212.821 48.3591 211.313 48.8571C209.6 49.3918 201.495 52.1673 199.869 52.5754C196.381 53.2367 193.456 49.4244 195.07 46.2448L195.16 46.0571L195.201 45.9673C195.181 45.9877 195.173 46.0408 195.169 46.0979C195.169 46.1469 195.185 46.1877 195.201 46.2163C195.218 46.2734 195.382 46.3591 195.476 46.3183L195.443 46.3305L195.373 46.355L195.234 46.3999L194.673 46.5836C191.063 47.7673 183.703 50.1999 180.048 51.3999L177.799 52.1428L176.672 52.5142C175.045 53.1346 173.107 52.7877 171.841 51.5918C170.283 50.1836 169.857 47.7305 170.927 45.8897C170.927 45.8816 170.923 45.8897 170.923 45.8897C170.894 45.9387 170.878 45.9999 170.878 46.0612C170.869 46.2326 170.935 46.3469 171.042 46.4203C171.136 46.4856 171.296 46.5265 171.41 46.4856L171.279 46.5265L166.78 48.0081C163.715 49.0326 155.77 51.6244 152.721 52.6408L152.438 52.7346C152.401 52.7469 152.328 52.7673 152.254 52.7877L152.037 52.8448C151.893 52.8816 151.746 52.9183 151.598 52.9428C148.402 53.4734 145.48 50.502 146.107 47.3061C146.21 46.7836 146.402 46.2816 146.648 45.8122C146.652 45.7918 146.628 45.8367 146.628 45.8448C146.566 45.9754 146.566 46.1754 146.62 46.3061C146.681 46.551 147.029 46.7224 147.296 46.6652C147.308 46.6652 147.316 46.6652 147.328 46.6571L146.767 46.8408C141.526 48.5714 133.573 51.1836 128.348 52.9101C126.168 53.6775 123.55 52.6897 122.427 50.6816C121.542 49.2122 121.513 47.2326 122.378 45.7183C122.222 45.9877 122.267 46.3959 122.493 46.6163C122.644 46.7999 123.009 46.8938 123.23 46.8326L122.251 47.155L104.262 53.0897L103 49.204L121.067 43.4856L121.632 43.3061L121.915 43.2163C124.214 42.2979 126.684 44.4448 126.037 46.8408C125.873 47.5428 125.279 48.0448 125.717 48.7836C126.033 49.3387 126.631 49.5428 127.201 49.3632C132.438 47.7101 140.403 45.1795 145.689 43.5101L146.255 43.3305L146.398 43.2897C148.373 42.6897 150.393 44.5224 150.045 46.5061C150.008 47.0856 149.574 47.551 149.512 48.0775C149.422 49.0775 150.41 49.8693 151.401 49.5224C154.643 48.5101 162.441 46.0163 165.797 44.9632L170.312 43.5346C170.697 43.4122 171.083 43.3305 171.492 43.3673C173.443 43.4693 174.664 45.7428 173.66 47.4244C173.303 48.053 173.406 48.8244 173.951 49.351C174.34 49.6979 174.84 49.8612 175.328 49.7469C175.549 49.7101 176.623 49.355 176.872 49.2775C181.876 47.702 189.551 45.253 194.513 43.6897C196.656 42.8856 198.721 45.1877 197.701 47.1877L197.631 47.3265L197.611 47.3714L197.574 47.4489C196.918 48.6244 198.078 50.1877 199.414 49.9305C200.663 49.5918 209.084 46.8775 210.527 46.4367C212.813 45.7101 216.538 44.5346 218.783 43.8203C220.119 43.355 221.668 44.2897 221.869 45.6856C221.938 46.0897 221.893 46.5183 221.754 46.8938C221.541 47.355 221.549 47.3305 221.484 47.4693C221.271 47.9183 221.291 48.404 221.455 48.8652C221.816 49.8081 222.869 50.355 223.86 50.0326L235.895 46.2203C236.227 46.1142 242.603 44.0979 242.664 44.0775L242.853 44.0163L242.947 43.9877C244.238 43.5305 245.713 44.4856 245.836 45.8244C245.877 46.1959 245.82 46.5877 245.668 46.9265C245.545 47.1673 245.414 47.4285 245.344 47.6856C244.898 49.253 246.557 50.7428 248.086 50.1795C248.393 50.0897 248.917 49.9101 249.212 49.8203C252.2 48.8693 258.256 46.9591 261.247 46.0081C262.12 45.7224 264.886 44.8612 265.759 44.5795L266.513 44.3428L266.89 44.2244C267.386 44.0163 268.205 43.9591 268.713 44.2816C269.119 44.502 269.438 44.8489 269.627 45.2652C269.885 45.8326 269.836 46.5346 269.525 47.0734L269.496 47.1387L269.369 47.3999C268.693 48.9754 270.332 50.8734 272 50.404C272.819 50.1959 273.79 49.8408 274.569 49.6122C277.634 48.6285 288.148 45.3183 291.115 44.3714C292.283 43.8571 293.738 44.7061 293.738 46.0285C293.754 46.4081 293.611 46.7632 293.438 47.0938C292.562 48.6163 293.856 50.6489 295.577 50.6448C295.999 50.6448 296.372 50.5346 296.913 50.3591L299.921 49.4081C302.888 48.4571 308.981 46.5469 311.956 45.5959L314.963 44.6448L315.34 44.5265C315.472 44.4816 315.668 44.4244 315.824 44.4081C317.008 44.2326 318.061 45.5591 317.57 46.6693L317.385 47.0612C317.295 47.1999 317.209 47.5061 317.16 47.6816C316.77 49.751 318.811 51.3918 320.762 50.6326C325.343 49.1877 334.968 46.1265 339.566 44.6775C339.857 44.5714 340.238 44.5346 340.545 44.6326C341.213 44.8203 341.684 45.4897 341.627 46.1795C341.61 46.5224 341.401 46.853 341.328 47.0285C340.779 48.0938 341.098 49.4448 341.971 50.253C342.672 50.8979 343.692 51.1591 344.618 50.8897C348.609 49.5918 359.411 46.2448 363.41 44.9469L363.787 44.8285C363.918 44.7877 364.074 44.751 364.221 44.751C365.168 44.702 365.897 45.8203 365.43 46.653C364.463 48.2693 365.205 50.3469 366.971 50.9959C367.954 51.3918 368.995 51.0244 369.958 50.6979L375.973 48.7918L388.008 44.9795L388 44.9877Z" fill="url(#paint0_linear_433_210)"/>
<path d="M388 58.4449L376.01 62.3959L370.015 64.3714C369.032 64.7225 367.917 65.1143 366.872 64.702C364.926 64.0122 364.115 61.7429 365.131 59.9796C365.475 59.3592 364.918 58.5143 364.221 58.5633C364.107 58.5674 364.008 58.5918 363.885 58.6286L363.512 58.751C359.48 60.0898 348.974 63.5265 344.766 64.9143C342.016 65.7674 339.467 62.7714 340.709 60.2122C340.844 59.9102 340.926 59.7837 340.938 59.5918C340.984 59.0816 340.439 58.6 339.934 58.7592C335.304 60.2694 325.605 63.4776 321.04 64.9796C318.573 65.9347 315.951 64.0082 316.107 61.4L316.16 60.9429L316.283 60.502C316.316 60.351 316.398 60.2245 316.459 60.0816L316.607 59.7592C316.717 59.4898 316.594 59.1592 316.34 59C316.107 58.8612 315.902 58.898 315.656 58.9878L315.283 59.1102L312.288 60.098C309.268 61.0816 303.31 63.0653 300.298 64.049L297.303 65.0367C296.848 65.1918 296.204 65.4041 295.565 65.4041C292.848 65.4367 290.922 62.3347 292.209 59.9469L292.299 59.7551C292.336 59.6857 292.357 59.6041 292.353 59.5265C292.34 59.2694 292.086 59.0327 291.82 59.0857C291.791 59.098 291.771 59.098 291.73 59.1102L291.541 59.1714L290.041 59.6653C286.481 60.8367 276.409 64.1592 272.807 65.3429C269.688 66.4857 266.587 63.3592 267.75 60.2612C268.127 59.4449 268.066 59.6123 268.029 59.4286C267.959 59.3102 267.853 59.2245 267.709 59.2653L255.81 63.1796C254.531 63.5878 249.389 65.3388 248.213 65.649C244.807 66.4204 242.037 62.702 243.713 59.6653C243.767 59.5551 243.742 59.5959 243.754 59.5755C243.767 59.5674 243.754 59.5592 243.763 59.5551C243.763 59.5429 243.763 59.5388 243.763 59.5265C243.758 59.4857 243.681 59.4123 243.66 59.4286C243.582 59.4367 243.402 59.5102 243.312 59.5347C239.058 60.9347 228.945 64.2694 224.581 65.7061C221.164 66.8735 217.82 63.3265 219.246 59.9959C219.345 59.7796 219.521 59.4 219.476 59.502C219.468 59.5061 219.464 59.5347 219.468 59.5469C219.48 59.5796 219.468 59.5674 219.492 59.5918C219.484 59.6286 219.742 59.5347 219.189 59.7184L218.062 60.0898C216.591 60.5714 212.821 61.8163 211.313 62.3143C209.6 62.849 201.495 65.6245 199.869 66.0327C196.381 66.6939 193.456 62.8816 195.07 59.702L195.16 59.5143L195.201 59.4245C195.181 59.4449 195.173 59.498 195.169 59.5551C195.169 59.6041 195.185 59.6449 195.201 59.6735C195.218 59.7306 195.382 59.8163 195.476 59.7755L195.443 59.7878L195.373 59.8123L195.234 59.8571L194.673 60.0408C191.063 61.2245 183.703 63.6571 180.048 64.8571L177.799 65.6L176.672 65.9714C175.045 66.5918 173.107 66.2449 171.841 65.049C170.283 63.6408 169.857 61.1878 170.927 59.3469C170.927 59.3388 170.923 59.3469 170.923 59.3469C170.894 59.3959 170.878 59.4571 170.878 59.5184C170.869 59.6898 170.935 59.8041 171.042 59.8776C171.136 59.9429 171.296 59.9837 171.41 59.9429L171.279 59.9837L166.78 61.4653C163.715 62.4898 155.77 65.0816 152.721 66.098L152.438 66.1918C152.401 66.2041 152.328 66.2245 152.254 66.2449L152.037 66.302C151.893 66.3347 151.746 66.3755 151.598 66.4C148.402 66.9306 145.48 63.9592 146.107 60.7633C146.21 60.2408 146.402 59.7388 146.648 59.2694C146.652 59.249 146.628 59.2939 146.628 59.302C146.566 59.4327 146.566 59.6327 146.62 59.7633C146.681 60.0082 147.029 60.1796 147.296 60.1225C147.308 60.1225 147.316 60.1225 147.328 60.1143L146.767 60.298C141.526 62.0286 133.573 64.6408 128.348 66.3674C126.168 67.1347 123.55 66.1469 122.427 64.1388C121.542 62.6694 121.513 60.6898 122.378 59.1755C122.222 59.4449 122.267 59.8531 122.493 60.0735C122.644 60.2571 123.009 60.351 123.23 60.2898L122.251 60.6123L104.262 66.5469L103 62.6653L121.067 56.9429L121.632 56.7633L121.915 56.6735C124.214 55.7551 126.684 57.902 126.037 60.298C125.873 61 125.279 61.502 125.717 62.2408C126.033 62.7959 126.631 63 127.201 62.8204C132.438 61.1674 140.403 58.6367 145.689 56.9674L146.255 56.7878L146.398 56.7469C148.373 56.1469 150.393 57.9796 150.045 59.9633C150.008 60.5429 149.574 61.0082 149.512 61.5347C149.422 62.5347 150.41 63.3265 151.401 62.9796C154.643 61.9674 162.441 59.4735 165.797 58.4204L170.312 56.9918C170.697 56.8694 171.083 56.7878 171.492 56.8245C173.443 56.9265 174.664 59.2 173.66 60.8816C173.303 61.5102 173.406 62.2816 173.951 62.8082C174.34 63.1551 174.84 63.3184 175.328 63.2041C175.549 63.1674 176.623 62.8123 176.872 62.7347C181.876 61.1592 189.551 58.7102 194.513 57.1469C196.656 56.3429 198.721 58.6449 197.701 60.6449L197.631 60.7837L197.611 60.8286L197.574 60.9061C196.918 62.0816 198.078 63.6449 199.414 63.3878C200.663 63.049 209.084 60.3347 210.527 59.8939C212.813 59.1674 216.538 57.9918 218.783 57.2776C220.119 56.8123 221.668 57.7469 221.869 59.1429C221.938 59.5469 221.893 59.9755 221.754 60.351C221.541 60.8123 221.549 60.7878 221.484 60.9265C221.271 61.3755 221.291 61.8612 221.455 62.3225C221.816 63.2653 222.869 63.8123 223.86 63.4898L235.895 59.6776C236.227 59.5714 242.603 57.5551 242.664 57.5347L242.853 57.4735L242.947 57.4449C244.238 56.9878 245.713 57.9429 245.836 59.2816C245.877 59.6531 245.82 60.0449 245.668 60.3837C245.545 60.6245 245.414 60.8857 245.344 61.1429C244.898 62.7102 246.557 64.2 248.086 63.6367C248.393 63.5469 248.917 63.3674 249.212 63.2776C252.2 62.3265 258.256 60.4163 261.247 59.4653C262.12 59.1796 264.886 58.3184 265.759 58.0367L266.513 57.8L266.89 57.6816C267.386 57.4735 268.205 57.4163 268.713 57.7388C269.119 57.9592 269.438 58.3061 269.627 58.7225C269.885 59.2898 269.836 59.9918 269.525 60.5306L269.496 60.5959L269.369 60.8571C268.693 62.4327 270.332 64.3306 272 63.8612C272.819 63.6531 273.79 63.298 274.569 63.0694C277.634 62.0857 288.148 58.7755 291.115 57.8286C292.283 57.3143 293.738 58.1633 293.738 59.4857C293.754 59.8653 293.611 60.2204 293.438 60.551C292.562 62.0735 293.856 64.1061 295.577 64.102C295.999 64.102 296.372 63.9918 296.913 63.8163L299.921 62.8653C302.888 61.9143 308.981 60.0041 311.956 59.0531L314.963 58.102L315.34 57.9837C315.472 57.9388 315.668 57.8816 315.824 57.8653C317.008 57.6898 318.061 59.0163 317.57 60.1265L317.385 60.5184C317.295 60.6571 317.209 60.9633 317.16 61.1388C316.77 63.2082 318.811 64.849 320.762 64.0898C325.343 62.6449 334.968 59.5837 339.566 58.1347C339.853 58.0286 340.242 57.9918 340.545 58.0898C341.213 58.2776 341.684 58.9469 341.627 59.6367C341.61 59.9796 341.401 60.3102 341.328 60.4857C340.779 61.551 341.098 62.902 341.971 63.7102C342.672 64.3551 343.692 64.6163 344.618 64.3469C348.609 63.049 359.411 59.702 363.41 58.4041L363.787 58.2857C363.918 58.2449 364.074 58.2082 364.221 58.2082C365.168 58.1592 365.897 59.2776 365.43 60.1102C364.463 61.7265 365.205 63.8041 366.971 64.4531C367.954 64.849 368.995 64.4816 369.958 64.1551L375.973 62.249L388.008 58.4367L388 58.4449Z" fill="url(#paint1_linear_433_210)"/>
<path d="M388 71.902L376.01 75.853L370.015 77.8286C369.032 78.1796 367.917 78.5714 366.872 78.1592C364.926 77.4694 364.115 75.2 365.131 73.4367C365.475 72.8163 364.918 71.9714 364.221 72.0204C364.107 72.0245 364.008 72.049 363.885 72.0857L363.512 72.2081C359.48 73.5469 348.974 76.9837 344.766 78.3714C342.016 79.2245 339.467 76.2286 340.709 73.6694C340.844 73.3673 340.926 73.2408 340.938 73.049C340.984 72.5388 340.439 72.0571 339.934 72.2163C335.304 73.7265 325.605 76.9347 321.04 78.4367C318.573 79.3918 315.951 77.4653 316.107 74.8571L316.16 74.4L316.283 73.9592C316.316 73.8081 316.398 73.6816 316.459 73.5388L316.607 73.2163C316.717 72.9469 316.594 72.6163 316.34 72.4571C316.107 72.3184 315.902 72.3551 315.656 72.4449L315.283 72.5673L312.288 73.5551C309.268 74.5388 303.31 76.5224 300.298 77.5061L297.303 78.4939C296.848 78.649 296.204 78.8612 295.565 78.8612C292.848 78.8939 290.922 75.7918 292.209 73.4041L292.299 73.2122C292.336 73.1428 292.357 73.0612 292.353 72.9837C292.34 72.7265 292.086 72.4898 291.82 72.5428C291.791 72.5551 291.771 72.5551 291.73 72.5673L291.541 72.6286L290.041 73.1224C286.481 74.2939 276.409 77.6163 272.807 78.8C269.688 79.9428 266.587 76.8163 267.75 73.7184C268.127 72.902 268.066 73.0694 268.029 72.8857C267.959 72.7673 267.853 72.6816 267.709 72.7224L255.81 76.6367C254.531 77.0449 249.389 78.7959 248.213 79.1061C244.807 79.8775 242.037 76.1592 243.713 73.1224C243.767 73.0122 243.742 73.053 243.754 73.0326C243.767 73.0245 243.754 73.0163 243.763 73.0122C243.763 73 243.763 72.9959 243.763 72.9837C243.758 72.9428 243.681 72.8694 243.66 72.8857C243.582 72.8939 243.402 72.9673 243.312 72.9918C239.058 74.3918 228.945 77.7265 224.581 79.1632C221.164 80.3306 217.82 76.7837 219.246 73.453C219.345 73.2367 219.521 72.8571 219.476 72.9592C219.468 72.9633 219.464 72.9918 219.468 73.0041C219.48 73.0367 219.468 73.0245 219.492 73.049C219.484 73.0857 219.742 72.9918 219.189 73.1755L218.062 73.5469C216.591 74.0286 212.821 75.2735 211.313 75.7714C209.6 76.3061 201.495 79.0816 199.869 79.4898C196.381 80.151 193.456 76.3388 195.07 73.1592L195.16 72.9714L195.201 72.8816C195.181 72.902 195.173 72.9551 195.169 73.0122C195.169 73.0612 195.185 73.102 195.201 73.1306C195.218 73.1877 195.382 73.2735 195.476 73.2326L195.443 73.2449L195.373 73.2694L195.234 73.3143L194.673 73.4979C191.063 74.6816 183.703 77.1143 180.048 78.3143L177.799 79.0571L176.672 79.4286C175.045 80.049 173.107 79.702 171.841 78.5061C170.283 77.0979 169.857 74.6449 170.927 72.8041C170.927 72.7959 170.923 72.8041 170.923 72.8041C170.894 72.853 170.878 72.9143 170.878 72.9755C170.869 73.1469 170.935 73.2612 171.042 73.3347C171.136 73.4 171.296 73.4408 171.41 73.4L171.279 73.4408L166.78 74.9224C163.715 75.9469 155.77 78.5388 152.721 79.5551L152.438 79.649C152.401 79.6612 152.328 79.6816 152.254 79.702L152.037 79.7592C151.893 79.7918 151.746 79.8326 151.598 79.8571C148.402 80.3877 145.48 77.4163 146.107 74.2204C146.21 73.6979 146.402 73.1959 146.648 72.7265C146.652 72.7061 146.628 72.751 146.628 72.7592C146.566 72.8898 146.566 73.0898 146.62 73.2204C146.681 73.4653 147.029 73.6367 147.296 73.5796C147.308 73.5796 147.316 73.5796 147.328 73.5714L146.767 73.7551C141.526 75.4857 133.573 78.0979 128.348 79.8245C126.168 80.5918 123.55 79.6041 122.427 77.5959C121.542 76.1265 121.513 74.1469 122.378 72.6326C122.222 72.902 122.267 73.3102 122.493 73.5306C122.644 73.7143 123.009 73.8081 123.23 73.7469L122.251 74.0694L104.262 80.0041L103 76.1224L121.067 70.4L121.632 70.2204L121.915 70.1306C124.214 69.2122 126.684 71.3592 126.037 73.7551C125.873 74.4571 125.279 74.9592 125.717 75.6979C126.033 76.253 126.631 76.4571 127.201 76.2775C132.438 74.6245 140.403 72.0939 145.689 70.4245L146.255 70.2449L146.398 70.2041C148.373 69.6041 150.393 71.4367 150.045 73.4204C150.008 74 149.574 74.4653 149.512 74.9918C149.422 75.9918 150.41 76.7837 151.401 76.4367C154.643 75.4245 162.441 72.9306 165.797 71.8775L170.312 70.449C170.697 70.3265 171.083 70.2449 171.492 70.2816C173.443 70.3837 174.664 72.6571 173.66 74.3388C173.303 74.9673 173.406 75.7388 173.951 76.2653C174.34 76.6122 174.84 76.7755 175.328 76.6612C175.549 76.6245 176.623 76.2694 176.872 76.1918C181.876 74.6163 189.551 72.1673 194.513 70.6041C196.656 69.8 198.721 72.102 197.701 74.102L197.631 74.2408L197.611 74.2857L197.574 74.3632C196.918 75.5388 198.078 77.102 199.414 76.8449C200.663 76.5061 209.084 73.7918 210.527 73.351C212.813 72.6245 216.538 71.449 218.783 70.7347C220.631 70.102 222.459 71.9959 221.754 73.8081C221.332 74.649 221.201 74.9714 221.455 75.7796C221.816 76.7224 222.869 77.2694 223.86 76.9469L235.895 73.1347C236.227 73.0286 242.603 71.0122 242.664 70.9918L242.853 70.9306L242.947 70.902C244.238 70.4449 245.713 71.4 245.836 72.7388C245.877 73.1102 245.82 73.502 245.668 73.8408C245.545 74.0816 245.414 74.3428 245.344 74.6C244.898 76.1673 246.557 77.6571 248.086 77.0939C248.393 77.0041 248.917 76.8245 249.212 76.7347C252.2 75.7837 258.256 73.8735 261.247 72.9224C262.12 72.6367 264.886 71.7755 265.759 71.4939L266.513 71.2571L266.89 71.1388C267.386 70.9306 268.205 70.8735 268.713 71.1959C269.119 71.4163 269.438 71.7632 269.627 72.1796C269.885 72.7469 269.836 73.449 269.525 73.9877L269.496 74.053L269.369 74.3143C268.693 75.8898 270.332 77.7877 272 77.3184C272.819 77.1102 273.79 76.7551 274.569 76.5265C277.634 75.5428 288.148 72.2326 291.115 71.2857C292.283 70.7714 293.738 71.6204 293.738 72.9428C293.754 73.3224 293.611 73.6775 293.438 74.0081C292.562 75.5306 293.856 77.5632 295.577 77.5592C295.999 77.5592 296.372 77.449 296.913 77.2735L299.921 76.3224C302.888 75.3714 308.981 73.4612 311.956 72.5102L314.963 71.5592L315.34 71.4408C315.472 71.3959 315.668 71.3388 315.824 71.3224C317.008 71.1469 318.061 72.4735 317.57 73.5837L317.385 73.9755C317.295 74.1143 317.209 74.4204 317.16 74.5959C316.77 76.6653 318.811 78.3061 320.762 77.5469C325.343 76.1061 334.968 73.0408 339.566 71.5918C339.857 71.4857 340.238 71.449 340.545 71.5469C341.213 71.7347 341.684 72.4041 341.627 73.0939C341.61 73.4367 341.401 73.7673 341.328 73.9428C340.779 75.0081 341.098 76.3592 341.971 77.1673C342.672 77.8122 343.692 78.0735 344.618 77.8041C348.609 76.5061 359.411 73.1592 363.41 71.8612L363.787 71.7428C363.918 71.702 364.074 71.6653 364.221 71.6653C365.168 71.6163 365.897 72.7347 365.43 73.5673C364.463 75.1837 365.205 77.2612 366.971 77.9102C367.954 78.3061 368.995 77.9388 369.958 77.6122L375.973 75.7061L388.008 71.8939L388 71.902Z" fill="url(#paint2_linear_433_210)"/>
<path d="M388 85.3592L376.01 89.3102L370.015 91.2857C369.032 91.6367 367.917 92.0286 366.872 91.6163C364.926 90.9265 364.115 88.6571 365.131 86.8939C365.475 86.2735 364.918 85.4286 364.221 85.4775C364.107 85.4816 364.008 85.5061 363.885 85.5429L363.512 85.6653C359.48 87.0041 348.974 90.4408 344.766 91.8286C342.016 92.6816 339.467 89.6857 340.709 87.1265C340.844 86.8245 340.926 86.698 340.938 86.5061C340.984 85.9959 340.439 85.5143 339.934 85.6735C335.304 87.1837 325.605 90.3918 321.04 91.8939C318.573 92.849 315.951 90.9224 316.107 88.3143L316.16 87.8571L316.283 87.4163C316.316 87.2653 316.398 87.1388 316.459 86.9959L316.607 86.6735C316.717 86.4041 316.594 86.0735 316.34 85.9143C316.107 85.7755 315.902 85.8122 315.656 85.902L315.283 86.0245L312.288 87.0122C309.268 87.9959 303.31 89.9796 300.298 90.9633L297.303 91.951C296.848 92.1061 296.204 92.3184 295.565 92.3184C292.848 92.351 290.922 89.249 292.209 86.8612L292.299 86.6694C292.336 86.6 292.357 86.5184 292.353 86.4408C292.34 86.1837 292.086 85.9469 291.82 86C291.791 86.0122 291.771 86.0122 291.73 86.0245L291.541 86.0857L290.041 86.5796C286.481 87.751 276.409 91.0735 272.807 92.2571C269.688 93.4 266.587 90.2735 267.75 87.1755C268.127 86.3592 268.066 86.5265 268.029 86.3429C267.959 86.2245 267.853 86.1388 267.709 86.1796L255.81 90.0939C254.531 90.502 249.389 92.2531 248.213 92.5633C244.807 93.3347 242.037 89.6163 243.713 86.5796C243.767 86.4694 243.742 86.5102 243.754 86.4898C243.767 86.4816 243.754 86.4735 243.763 86.4694C243.763 86.4571 243.763 86.4531 243.763 86.4408C243.758 86.4 243.681 86.3265 243.66 86.3429C243.582 86.351 243.402 86.4245 243.312 86.449C239.058 87.849 228.945 91.1837 224.581 92.6204C221.164 93.7878 217.82 90.2408 219.246 86.9102C219.345 86.6939 219.521 86.3143 219.476 86.4163C219.468 86.4204 219.464 86.449 219.468 86.4612C219.48 86.4939 219.468 86.4816 219.492 86.5061C219.484 86.5429 219.742 86.449 219.189 86.6326L218.062 87.0041C216.591 87.4857 212.821 88.7306 211.313 89.2286C209.6 89.7633 201.495 92.5347 199.869 92.9469C196.381 93.6082 193.456 89.7959 195.07 86.6163L195.16 86.4286L195.201 86.3388C195.181 86.3592 195.173 86.4122 195.169 86.4694C195.169 86.5184 195.185 86.5592 195.201 86.5878C195.218 86.6449 195.382 86.7306 195.476 86.6898L195.443 86.702L195.373 86.7265L195.234 86.7714L194.673 86.9551C191.063 88.1388 183.703 90.5714 180.048 91.7714L177.799 92.5143L176.672 92.8857C175.045 93.5061 173.107 93.1592 171.841 91.9633C170.283 90.5551 169.857 88.102 170.927 86.2612C170.927 86.2531 170.923 86.2612 170.923 86.2612C170.894 86.3102 170.878 86.3714 170.878 86.4326C170.869 86.6041 170.935 86.7184 171.042 86.7918C171.136 86.8571 171.296 86.898 171.41 86.8571L171.279 86.898L166.78 88.3796C163.715 89.4041 155.77 91.9959 152.721 93.0122L152.438 93.1061C152.401 93.1184 152.328 93.1388 152.254 93.1592L152.037 93.2163C151.893 93.249 151.746 93.2898 151.598 93.3143C148.402 93.8449 145.48 90.8735 146.107 87.6775C146.21 87.1551 146.402 86.6531 146.648 86.1837C146.652 86.1633 146.628 86.2082 146.628 86.2163C146.566 86.3469 146.566 86.5469 146.62 86.6775C146.681 86.9224 147.029 87.0939 147.296 87.0367C147.308 87.0367 147.316 87.0367 147.328 87.0286L146.767 87.2122C141.526 88.9429 133.573 91.5551 128.348 93.2816C126.168 94.049 123.55 93.0612 122.427 91.0531C121.542 89.5837 121.513 87.6041 122.378 86.0898C122.222 86.3592 122.267 86.7673 122.493 86.9877C122.644 87.1714 123.009 87.2653 123.23 87.2041L122.251 87.5265L104.262 93.4612L103 89.5796L121.067 83.8571L121.632 83.6775L121.915 83.5878C124.214 82.6694 126.684 84.8163 126.037 87.2122C125.873 87.9143 125.279 88.4163 125.717 89.1551C126.033 89.7102 126.631 89.9143 127.201 89.7347C132.438 88.0816 140.403 85.551 145.689 83.8816L146.255 83.702L146.398 83.6612C148.373 83.0612 150.393 84.8939 150.045 86.8775C150.008 87.4571 149.574 87.9224 149.512 88.449C149.422 89.449 150.41 90.2408 151.401 89.8939C154.643 88.8816 162.441 86.3878 165.797 85.3347L170.312 83.9061C170.697 83.7837 171.083 83.702 171.492 83.7388C173.443 83.8408 174.664 86.1143 173.66 87.7959C173.303 88.4245 173.406 89.1959 173.951 89.7224C174.34 90.0694 174.84 90.2326 175.328 90.1184C175.549 90.0816 176.623 89.7265 176.872 89.649C181.876 88.0735 189.551 85.6245 194.513 84.0612C196.656 83.2571 198.721 85.5592 197.701 87.5592L197.631 87.698L197.611 87.7429L197.574 87.8204C196.918 88.9959 198.078 90.5592 199.414 90.302C200.663 89.9633 209.084 87.249 210.527 86.8082C212.813 86.0816 216.538 84.9061 218.783 84.1918C220.119 83.7265 221.668 84.6612 221.869 86.0571C221.938 86.4612 221.893 86.8898 221.754 87.2653C221.541 87.7265 221.549 87.702 221.484 87.8449C221.271 88.2939 221.291 88.7796 221.455 89.2408C221.816 90.1837 222.869 90.7306 223.86 90.4082L235.895 86.5959C236.227 86.4898 242.603 84.4735 242.664 84.4531L242.853 84.3918L242.947 84.3633C244.238 83.9061 245.713 84.8612 245.836 86.2C245.877 86.5714 245.82 86.9633 245.668 87.302C245.545 87.5429 245.414 87.8041 245.344 88.0612C244.898 89.6286 246.557 91.1184 248.086 90.5551C248.393 90.4653 248.917 90.2857 249.212 90.1959C252.2 89.2449 258.256 87.3347 261.247 86.3837C262.12 86.098 264.886 85.2367 265.759 84.9551L266.513 84.7184L266.89 84.6C267.386 84.3918 268.205 84.3347 268.713 84.6571C269.119 84.8775 269.438 85.2245 269.627 85.6408C269.885 86.2082 269.836 86.9102 269.525 87.449L269.496 87.5143L269.369 87.7755C268.693 89.351 270.332 91.249 272 90.7796C272.815 90.5755 273.794 90.2163 274.569 89.9878C277.634 89.0041 288.148 85.6939 291.115 84.7469C292.283 84.2326 293.738 85.0816 293.738 86.4041C293.754 86.7837 293.611 87.1388 293.438 87.4694C292.562 88.9918 293.856 91.0245 295.577 91.0204C295.999 91.0204 296.372 90.9102 296.913 90.7347L299.921 89.7837C302.888 88.8326 308.981 86.9224 311.956 85.9714L314.963 85.0204L315.34 84.902C315.472 84.8571 315.668 84.8 315.824 84.7837C317.008 84.6082 318.061 85.9347 317.57 87.0449L317.385 87.4367C317.295 87.5755 317.209 87.8816 317.16 88.0571C316.77 90.1265 318.811 91.7673 320.762 91.0082C325.343 89.5673 334.968 86.502 339.566 85.0531C339.857 84.9469 340.238 84.9102 340.545 85.0082C341.213 85.1959 341.684 85.8653 341.627 86.5551C341.61 86.898 341.401 87.2286 341.328 87.4041C340.779 88.4694 341.098 89.8204 341.971 90.6286C342.672 91.2735 343.692 91.5347 344.618 91.2653C348.609 89.9673 359.411 86.6204 363.41 85.3224L363.787 85.2041C363.918 85.1633 364.074 85.1265 364.221 85.1265C365.168 85.0775 365.897 86.1959 365.43 87.0286C364.463 88.6449 365.205 90.7224 366.971 91.3714C367.954 91.7673 368.995 91.4 369.958 91.0735L375.973 89.1673L388.008 85.3551L388 85.3592Z" fill="url(#paint3_linear_433_210)"/>
<path d="M388 98.8163L376.011 102.767L370.016 104.743C369.032 105.094 367.918 105.486 366.873 105.073C364.926 104.384 364.115 102.114 365.131 100.351C365.476 99.7306 364.918 98.8857 364.222 98.9347C364.107 98.9388 364.009 98.9633 363.886 99L363.513 99.1224C359.481 100.461 348.974 103.898 344.766 105.286C342.016 106.139 339.468 103.143 340.709 100.584C340.845 100.282 340.927 100.155 340.939 99.9633C340.984 99.4531 340.439 98.9714 339.935 99.1306C335.305 100.641 325.605 103.849 321.041 105.351C318.574 106.306 315.951 104.38 316.107 101.771L316.16 101.314L316.283 100.873C316.316 100.722 316.398 100.596 316.459 100.453L316.607 100.131C316.718 99.8612 316.595 99.5306 316.341 99.3714C316.107 99.2327 315.902 99.2694 315.656 99.3592L315.283 99.4816L312.288 100.469C309.268 101.453 303.31 103.437 300.298 104.42L297.303 105.408C296.848 105.563 296.205 105.776 295.565 105.776C292.849 105.808 290.923 102.706 292.209 100.318L292.3 100.127C292.337 100.057 292.357 99.9755 292.353 99.898C292.341 99.6408 292.087 99.4041 291.82 99.4571C291.792 99.4694 291.771 99.4694 291.73 99.4816L291.542 99.5429L290.042 100.037C286.481 101.208 276.409 104.531 272.807 105.714C269.689 106.857 266.587 103.731 267.751 100.633C268.128 99.8163 268.066 99.9837 268.029 99.8C267.96 99.6816 267.853 99.5959 267.71 99.6367L255.81 103.551C254.532 103.959 249.389 105.71 248.213 106.02C244.808 106.792 242.038 103.073 243.714 100.037C243.767 99.9265 243.742 99.9673 243.755 99.9469C243.767 99.9388 243.755 99.9306 243.763 99.9265C243.763 99.9143 243.763 99.9102 243.763 99.898C243.759 99.8571 243.681 99.7837 243.66 99.8C243.583 99.8082 243.402 99.8816 243.312 99.9061C239.059 101.306 228.946 104.641 224.582 106.078C221.164 107.245 217.821 103.698 219.247 100.367C219.345 100.151 219.521 99.7714 219.476 99.8735C219.468 99.8776 219.464 99.9061 219.468 99.9184C219.48 99.951 219.468 99.9388 219.493 99.9633C219.484 100 219.742 99.9061 219.189 100.09L218.062 100.461C216.591 100.943 212.822 102.188 211.314 102.686C209.601 103.22 201.496 105.996 199.869 106.404C196.382 107.065 193.456 103.253 195.071 100.073L195.161 99.8857L195.202 99.7959C195.181 99.8163 195.173 99.8694 195.169 99.9265C195.169 99.9755 195.185 100.016 195.202 100.045C195.218 100.102 195.382 100.188 195.476 100.147L195.443 100.159L195.374 100.184L195.234 100.229L194.673 100.412C191.063 101.596 183.704 104.029 180.049 105.229L177.799 105.971L176.672 106.343C175.045 106.963 173.107 106.616 171.841 105.42C170.284 104.012 169.858 101.559 170.927 99.7184C170.927 99.7102 170.923 99.7184 170.923 99.7184C170.894 99.7674 170.878 99.8286 170.878 99.8898C170.87 100.061 170.935 100.176 171.042 100.249C171.136 100.314 171.296 100.355 171.411 100.314L171.28 100.355L166.78 101.837C163.715 102.861 155.77 105.453 152.721 106.469L152.439 106.563C152.402 106.576 152.328 106.596 152.254 106.616L152.037 106.673C151.894 106.71 151.746 106.747 151.599 106.771C148.402 107.302 145.481 104.331 146.108 101.135C146.21 100.612 146.403 100.11 146.649 99.6408C146.653 99.6204 146.628 99.6653 146.628 99.6735C146.567 99.8041 146.567 100.004 146.62 100.135C146.681 100.38 147.03 100.551 147.296 100.494C147.308 100.494 147.316 100.494 147.329 100.486L146.767 100.669C141.526 102.4 133.573 105.012 128.348 106.739C126.168 107.506 123.55 106.518 122.427 104.51C121.542 103.041 121.514 101.061 122.378 99.5469C122.222 99.8163 122.268 100.224 122.493 100.445C122.644 100.629 123.009 100.722 123.23 100.661L122.251 100.984L104.254 106.914L102.992 103.033L121.059 97.3102L121.624 97.1306L121.907 97.0408C124.206 96.1224 126.677 98.2694 126.029 100.665C125.865 101.367 125.271 101.869 125.71 102.608C126.025 103.163 126.623 103.367 127.193 103.188C132.43 101.535 140.396 99.0041 145.682 97.3347L146.247 97.1551L146.39 97.1143C148.365 96.5143 150.386 98.3469 150.037 100.331C150 100.91 149.566 101.376 149.505 101.902C149.414 102.902 150.402 103.694 151.394 103.347C154.635 102.335 162.433 99.8408 165.789 98.7878L170.304 97.3592C170.689 97.2367 171.075 97.1551 171.484 97.1918C173.435 97.2939 174.656 99.5674 173.652 101.249C173.296 101.878 173.398 102.649 173.943 103.176C174.332 103.522 174.832 103.686 175.32 103.571C175.541 103.535 176.615 103.18 176.865 103.102C181.868 101.527 189.543 99.0776 194.505 97.5143C196.648 96.7102 198.713 99.0122 197.693 101.012L197.623 101.151L197.603 101.196L197.566 101.273C196.91 102.449 198.07 104.012 199.406 103.755C200.656 103.416 209.076 100.702 210.519 100.261C212.805 99.5347 216.53 98.3592 218.775 97.6449C220.111 97.1796 221.66 98.1143 221.861 99.5102C221.931 99.9143 221.886 100.343 221.746 100.718C221.533 101.18 221.541 101.155 221.476 101.298C221.263 101.747 221.283 102.233 221.447 102.694C221.808 103.637 222.861 104.184 223.852 103.861L235.887 100.049C236.219 99.9429 242.595 97.9265 242.657 97.9061L242.845 97.8449L242.939 97.8163C244.23 97.3592 245.705 98.3143 245.828 99.6531C245.869 100.024 245.812 100.416 245.66 100.755C245.537 100.996 245.406 101.257 245.336 101.514C244.89 103.082 246.549 104.571 248.078 104.008C248.385 103.918 248.91 103.739 249.205 103.649C252.192 102.698 258.248 100.788 261.239 99.8367C262.112 99.551 264.878 98.6898 265.751 98.4082L266.505 98.1714L266.882 98.0531C267.378 97.8449 268.197 97.7878 268.705 98.1102C269.111 98.3306 269.431 98.6775 269.619 99.0939C269.877 99.6612 269.828 100.363 269.517 100.902L269.488 100.967L269.361 101.229C268.685 102.804 270.324 104.702 271.992 104.233C272.807 104.029 273.786 103.669 274.561 103.441C277.626 102.457 288.141 99.1469 291.107 98.2C292.275 97.6857 293.73 98.5347 293.73 99.8571C293.746 100.237 293.603 100.592 293.431 100.922C292.554 102.445 293.849 104.478 295.57 104.473C295.992 104.473 296.365 104.363 296.905 104.188L299.913 103.237C302.88 102.286 308.973 100.376 311.948 99.4245L314.956 98.4735L315.333 98.3551C315.464 98.3102 315.66 98.2531 315.816 98.2367C317 98.0612 318.053 99.3878 317.562 100.498L317.377 100.89C317.287 101.029 317.201 101.335 317.152 101.51C316.763 103.58 318.803 105.22 320.754 104.461C325.335 103.016 334.96 99.9551 339.558 98.5061C339.849 98.4 340.23 98.3633 340.537 98.4612C341.205 98.649 341.676 99.3184 341.619 100.008C341.603 100.351 341.394 100.682 341.32 100.857C340.771 101.922 341.09 103.273 341.963 104.082C342.664 104.727 343.684 104.988 344.61 104.718C348.601 103.42 359.403 100.073 363.402 98.7755L363.779 98.6571C363.91 98.6163 364.066 98.5796 364.213 98.5796C365.16 98.5306 365.889 99.649 365.422 100.482C364.455 102.098 365.197 104.176 366.963 104.824C367.946 105.22 368.987 104.853 369.95 104.527L375.966 102.62L388 98.8082V98.8163Z" fill="url(#paint4_linear_433_210)"/>
</g>
<path d="M62.2623 123.307C95.8452 123.307 123.069 96.0829 123.069 62.5C123.069 28.9171 95.8452 1.69275 62.2623 1.69275C28.6794 1.69275 1.45504 28.9171 1.45504 62.5C1.45504 96.0829 28.6794 123.307 62.2623 123.307Z" fill="#07074B"/>
<path d="M62.5103 99.1232C82.7853 99.1232 99.2213 82.6871 99.2213 62.4122C99.2213 42.1373 82.7853 25.7012 62.5103 25.7012C42.2354 25.7012 25.7994 42.1373 25.7994 62.4122C25.7994 82.6871 42.2354 99.1232 62.5103 99.1232Z" fill="#FFFDEC"/>
<path d="M62.5 3.244C95.2262 3.244 121.756 29.7738 121.756 62.5C121.756 95.2262 95.2262 121.756 62.5 121.756C29.7738 121.756 3.244 95.2261 3.244 62.5C3.244 29.7739 29.7739 3.244 62.5 3.244ZM62.5 0C54.064 0 45.8786 1.65294 38.1712 4.91291C30.7284 8.06096 24.0447 12.567 18.3059 18.3058C12.567 24.0447 8.06096 30.7283 4.91291 38.1712C1.65294 45.8786 0 54.064 0 62.5C0 70.936 1.65294 79.1214 4.91291 86.8288C8.06096 94.2716 12.567 100.955 18.3059 106.694C24.0447 112.433 30.7284 116.939 38.1712 120.087C45.8786 123.347 54.064 125 62.5 125C70.936 125 79.1214 123.347 86.8288 120.087C94.2717 116.939 100.955 112.433 106.694 106.694C112.433 100.955 116.939 94.2716 120.087 86.8288C123.347 79.1214 125 70.936 125 62.5C125 54.064 123.347 45.8786 120.087 38.1712C116.939 30.7283 112.433 24.0447 106.694 18.3058C100.955 12.567 94.2717 8.06096 86.8288 4.91291C79.1214 1.65294 70.9361 0 62.5 0Z" fill="#04837A"/>
<path d="M81.7222 56.3907H83.0603V57.0564H80.837V56.7681C80.837 56.2124 81.0154 55.828 81.4958 55.4027L81.8526 55.0801C82.1271 54.84 82.2574 54.5655 82.2574 54.2292C82.2574 53.9204 82.1271 53.7695 81.9006 53.7695C81.6467 53.7695 81.5026 53.941 81.5026 54.4488H80.7684C80.7684 53.5774 81.1526 53.1588 81.9555 53.1588C82.6486 53.1588 83.0398 53.543 83.0398 54.2292C83.0398 54.6958 82.8614 55.0595 82.4633 55.4301L82.0722 55.8006C81.8663 55.9996 81.7565 56.178 81.7222 56.3907ZM86.0797 55.1418C86.0797 56.5486 85.6955 57.125 84.7691 57.125C83.8496 57.125 83.4653 56.5486 83.4653 55.1418C83.4653 53.7351 83.8496 53.1587 84.7691 53.1587C85.6955 53.1587 86.0797 53.7351 86.0797 55.1418ZM85.2495 55.1418C85.2495 54.1537 85.1259 53.8175 84.769 53.8175C84.4192 53.8175 84.2956 54.1537 84.2956 55.1418C84.2956 56.1299 84.4192 56.4663 84.769 56.4663C85.1259 56.4663 85.2495 56.13 85.2495 55.1418ZM87.7404 55.8006L88.1315 55.4301C88.5295 55.0595 88.7079 54.6958 88.7079 54.2292C88.7079 53.543 88.3168 53.1588 87.6238 53.1588C86.8209 53.1588 86.4366 53.5773 86.4366 54.4488H87.1709C87.1709 53.941 87.3149 53.7695 87.5689 53.7695C87.7952 53.7695 87.9257 53.9204 87.9257 54.2292C87.9257 54.5655 87.7952 54.84 87.5208 55.0801L87.1639 55.4027C86.6837 55.828 86.5052 56.2124 86.5052 56.7681V57.0564H88.7285V56.3907H87.3904C87.4248 56.1781 87.5345 55.9996 87.7404 55.8006ZM91.1372 55.6771H91.5558V56.2878H91.1372V57.0564H90.3686V56.2878H88.955V55.7594L90.403 53.2273H91.1372V55.6771ZM90.3823 54.3321L89.6207 55.6771H90.3823V54.3321ZM33.3934 53.2273H35.6716V53.9067H34.2236V54.7713H35.3765V55.4369H34.2236V56.377H35.6716V57.0564H33.3934V53.2273ZM37.8469 54.8949L37.3047 54.6684C36.9891 54.5312 36.8724 54.4076 36.8724 54.1675C36.8724 53.9273 37.0028 53.7969 37.2841 53.7969C37.5861 53.7969 37.7233 53.9616 37.737 54.339H38.5742C38.533 53.5636 38.1076 53.1588 37.2978 53.1588C36.4469 53.1588 36.0489 53.5911 36.0489 54.2429C36.0489 54.7782 36.3372 55.1213 36.8518 55.334L37.4076 55.5742C37.7233 55.7114 37.8262 55.835 37.8262 56.0819C37.8262 56.3496 37.6752 56.4868 37.3733 56.4868C37.0165 56.4868 36.8381 56.3153 36.8243 55.9173H35.9734C36.0008 56.6927 36.4469 57.125 37.3595 57.125C38.2516 57.125 38.6565 56.679 38.6565 56.0202C38.6565 55.4987 38.4301 55.1418 37.8469 54.8949ZM38.6703 53.9341H39.535V57.0564H40.3652V53.9341H41.2299V53.2273H38.6703V53.9341ZM44.2797 56.377H41.5592V57.0564H44.2797V56.377ZM43.135 55.6977H41.5592V53.2273H43.135C43.8478 53.2273 44.3225 53.6125 44.3225 54.4625C44.3225 55.3125 43.8478 55.6977 43.135 55.6977ZM43.0292 54.9919C43.2557 54.9919 43.4717 54.8419 43.4717 54.4625C43.4717 54.083 43.2557 53.9331 43.0292 53.9331H42.3896V54.9919H43.0292Z" fill="#04837A"/>
<path d="M62.5103 24.9559C41.8238 24.9559 25.054 41.7256 25.054 62.4122C25.054 83.0987 41.8237 99.8687 62.5103 99.8687C83.197 99.8687 99.9668 83.0989 99.9668 62.4122C99.9668 41.7254 83.197 24.9559 62.5103 24.9559ZM86.7022 86.6041C86.6907 86.6156 86.6791 86.6271 86.6676 86.6385C84.6548 88.6457 81.6746 89.3336 78.9707 88.4567L77.2068 87.8847C76.9903 87.8144 76.8005 88.0471 76.9128 88.2451C77.2145 88.7798 76.7022 89.4064 76.1182 89.2171L72.01 87.8847C71.7933 87.8145 71.6036 88.0471 71.7159 88.2451C72.0177 88.7798 71.5054 89.4065 70.9214 89.2171L67.5676 88.1294C66.3073 87.7206 65.4537 86.6622 65.4537 85.3371V76.686C65.4537 76.4793 65.2861 76.3117 65.0794 76.3117H59.9206C59.7139 76.3117 59.5463 76.4793 59.5463 76.686V85.3371C59.5463 86.5932 58.7371 87.7063 57.5423 88.0938L54.0787 89.2171C53.4947 89.4065 52.9824 88.7798 53.2841 88.2451C53.3964 88.0471 53.2066 87.8145 52.9901 87.8847L48.8817 89.2171C48.2978 89.4064 47.7855 88.7798 48.0873 88.2451C48.1995 88.0471 48.0098 87.8144 47.7932 87.8847L46.0381 88.4539C43.3383 89.3294 40.3627 88.6426 38.3531 86.6385C38.3416 86.627 38.33 86.6156 38.3186 86.6041C35.1755 83.461 32.7082 79.8019 30.9852 75.7283C29.2021 71.5125 28.298 67.0323 28.298 62.4122C28.298 57.792 29.2021 53.312 30.9852 49.0962C32.7082 45.0227 35.1755 41.3635 38.3185 38.2205C41.4616 35.0774 45.1208 32.6101 49.1943 30.8872C53.4101 29.104 57.8903 28.1999 62.5103 28.1999C67.1304 28.1999 71.6106 29.104 75.8263 30.8872C79.9 32.6101 83.5591 35.0774 86.7022 38.2205C89.8452 41.3635 92.3125 45.0227 94.0355 49.0962C95.8187 53.312 96.7228 57.7921 96.7228 62.4122C96.7228 67.0322 95.8187 71.5125 94.0355 75.7283C92.3125 79.8019 89.8452 83.461 86.7022 86.6041ZM81.2466 66.1607L73.101 63.8943L81.5303 78.8223C81.6397 79.0159 81.4603 79.245 81.2461 79.1854L67.8685 75.4622C67.6773 75.409 67.515 75.2819 67.4174 75.1091L64.287 69.5654C64.1777 69.3718 64.357 69.1427 64.5712 69.2023L71.2359 71.0579L62.5104 55.6055L71.236 58.0333L62.5104 42.5791L53.7848 58.0333L62.5104 55.6055L53.7849 71.0579L60.4496 69.2023C60.6638 69.1427 60.8432 69.3718 60.7338 69.5654L57.6035 75.1091C57.5058 75.2819 57.3436 75.409 57.1523 75.4622L43.7747 79.1854C43.5605 79.245 43.3812 79.0159 43.4905 78.8223L51.9199 63.8943L43.7742 66.1607C43.56 66.2203 43.3807 65.9912 43.49 65.7976L62.2932 32.4965C62.3887 32.3273 62.6323 32.3273 62.7278 32.4965L81.5309 65.7976C81.6402 65.9912 81.4608 66.2203 81.2466 66.1607Z" fill="#04837A"/>
<path d="M114.685 69.3587C114.458 70.9481 113.916 72.09 113.073 72.7528C112.401 73.2806 111.691 73.3854 111.214 73.4184L111.028 73.4312L110.895 71.5737L111.082 71.5608C111.796 71.5114 112.653 71.1884 112.949 69.1111C113.038 68.4914 113.131 67.6938 113.062 67.0209C112.985 66.2693 112.734 65.8734 112.295 65.8108C112.268 65.8069 112.241 65.805 112.216 65.805C111.543 65.805 111.252 67.1856 111.059 68.0991C111.04 68.1907 111.021 68.2785 111.003 68.3613C110.323 71.4756 109.594 72.5794 108.215 72.5794C108.086 72.5794 107.947 72.5688 107.801 72.5481C106.296 72.3332 105.549 70.3344 105.943 67.5743C106.233 65.5377 106.995 64.2604 108.271 63.6696L108.43 63.5957L109.259 65.1279L109.094 65.2169C108.699 65.4307 107.962 65.8286 107.678 67.8219C107.44 69.4912 107.603 70.6151 108.094 70.6852C108.132 70.6906 108.166 70.6933 108.198 70.6933C108.556 70.6933 108.815 70.2889 109.317 67.991C109.789 65.8288 110.362 63.8879 112.16 63.8879C112.289 63.8879 112.426 63.898 112.566 63.9179C113.589 64.064 114.274 64.6712 114.603 65.7228C114.88 66.6114 114.907 67.8007 114.685 69.3587ZM53.2206 114.156L61.1988 114.938L61.3592 113.299L55.1257 112.688L55.2932 110.977L61.1344 111.549L61.2949 109.91L55.4537 109.338L55.6325 107.51L61.866 108.121L62.0265 106.482L54.0483 105.7L53.2206 114.156ZM14.8522 80.0173L21.1693 77.371L20.492 75.7541L12.6559 79.0369L15.687 86.2724L17.206 85.6361L14.8522 80.0173ZM33.2255 95.1646L25.6627 96.4608L27.5499 89.0234L26.4208 87.8016L20.1786 93.5704L21.3684 94.8579L25.1668 91.3475L23.6838 97.3633L24.6073 98.3625L30.7211 97.3575L26.9227 100.868L28.1125 102.155L34.3548 96.3864L33.2255 95.1646ZM24.0399 83.7789L16.7895 88.2077L17.7035 89.7037L24.9537 85.2749L24.0399 83.7789ZM43.2939 104.071L46.616 105.236L44.3509 111.7L46.0052 112.28L48.2703 105.816L51.4909 106.939L52.0356 105.385L43.8386 102.517L43.2939 104.071ZM39.2269 99.7013L40.5352 100.484L40.2893 110.242L38.5606 109.208L38.6125 107.756L33.728 104.833L32.473 105.565L30.7442 104.531L39.2269 99.7013ZM38.8234 101.86L35.2475 103.946L38.6754 105.998L38.8234 101.86ZM102.597 90.6066L106.721 90.7939L105.37 92.4809L101.356 92.2037L98.4384 95.8483L101.017 97.9127L99.9215 99.2811L93.289 93.9715L98.3754 87.618C98.8902 86.9749 99.5748 86.6167 100.303 86.6092C100.887 86.6032 101.474 86.823 102.001 87.2447C103.187 88.1942 103.395 89.4051 102.597 90.6066ZM101.274 89.3109C101.257 89.0748 101.122 88.854 100.873 88.6547C100.671 88.4935 100.463 88.4128 100.254 88.415C99.9931 88.4177 99.7355 88.5544 99.5467 88.7902L95.6704 93.6324L97.1529 94.8193L101.03 89.9768C101.206 89.7568 101.29 89.5265 101.274 89.3109ZM93.9957 99.5758C94.6977 100.683 94.8462 101.902 94.425 103.102C93.9892 104.343 92.9458 105.515 91.4076 106.491L91.4046 106.493L91.4023 106.495L91.397 106.498L91.3941 106.5C90.0256 107.366 88.7216 107.805 87.5182 107.805C86.0581 107.805 84.8225 107.124 84.0391 105.889C83.3371 104.781 83.1887 103.562 83.6099 102.363C84.0458 101.121 85.0895 99.9491 86.6283 98.9725L86.6358 98.9671L86.6403 98.9649C88.009 98.0987 89.3131 97.6596 90.5167 97.6596C91.9767 97.6596 93.2123 98.3401 93.9957 99.5758ZM92.3378 100.627C91.8834 99.9102 91.1659 99.5314 90.2627 99.5315C89.4502 99.5315 88.5193 99.8493 87.5708 100.451C85.5538 101.73 84.8183 103.452 85.697 104.838C86.1514 105.554 86.8689 105.933 87.7721 105.933C88.5846 105.933 89.5155 105.615 90.464 105.014C92.481 103.735 93.2165 102.013 92.3378 100.627ZM110.31 77.4968C110.623 78.2983 110.555 79.1951 110.113 80.0901L108.097 84.1768L109.815 85.0243L109.039 86.5963L101.417 82.8357L104.209 77.1769C104.797 75.9846 105.778 75.328 106.972 75.328C107.503 75.328 108.065 75.4663 108.595 75.7282C109.414 76.1322 110.023 76.7603 110.31 77.4968ZM107.818 77.3633C107.519 77.2158 107.214 77.1378 106.937 77.1378C106.366 77.1378 105.904 77.4627 105.601 78.0774L103.67 81.9924L106.621 83.4487L108.553 79.5331C109.177 78.2685 108.36 77.6308 107.818 77.3633ZM13.6581 75.1305L14.3862 73.4329L14.2338 73.3522C13.3574 72.8883 12.4113 72.1267 12.0397 69.9953C11.6358 67.6782 12.4759 65.9276 14.1303 65.6392C14.274 65.6142 14.419 65.6015 14.5612 65.6015C16.0493 65.6015 17.2028 66.9156 17.5716 69.0309C17.9431 71.1624 17.3107 72.1991 16.643 72.9322L16.5268 73.0597L17.7866 74.4107L17.9236 74.2699C19.1979 72.9598 19.6135 71.1536 19.1941 68.748C18.9115 67.1271 18.3485 65.864 17.5208 64.9938C16.7394 64.1724 15.7357 63.7382 14.6181 63.7382C14.3553 63.7382 14.0838 63.7622 13.8113 63.8097C12.514 64.0359 11.5091 64.7275 10.9053 65.8096C10.2737 66.9414 10.1049 68.4867 10.4173 70.2782C10.8367 72.6838 11.8389 74.2428 13.4814 75.0443L13.6581 75.1305ZM80.3369 108.431C80.0499 109.38 79.484 110.454 77.4635 111.228C76.7475 111.502 76.0672 111.641 75.4414 111.641C74.151 111.641 73.1836 111.048 72.7872 110.013C72.511 109.291 72.5886 108.513 73.0058 107.822C73.4679 107.057 74.3149 106.421 75.4553 105.984C76.2023 105.698 76.8612 105.559 77.4694 105.559C78.1685 105.559 78.8017 105.746 79.4623 106.147L79.6097 106.236L80.6938 104.741L80.5292 104.633C79.7208 104.105 78.7983 103.838 77.7873 103.838C76.9034 103.838 75.9205 104.042 74.8662 104.446C73.1679 105.097 71.9278 106.034 71.2798 107.157C70.6604 108.23 70.582 109.447 71.0529 110.677C71.7195 112.417 73.1598 113.376 75.1084 113.376C76.0058 113.376 76.9964 113.171 78.0526 112.766C80.333 111.893 81.6706 110.61 82.1419 108.844L82.1926 108.654L80.3868 108.265L80.3369 108.431ZM28.6119 34.2756L22.8786 28.0008L24.1046 26.8805L31.2936 28.5628L30.2825 21.2357L31.5083 20.1157L37.2417 26.3905L35.9476 27.573L32.4356 23.7294L33.1774 29.6224L32.1783 30.5352L26.3963 29.2518L29.9061 33.0931L28.6119 34.2756ZM99.1337 38.4622L104.657 35.5299L103.008 45.7605L103.738 47.135L111.245 43.1495L110.423 41.6012L104.9 44.5335L106.549 34.3029L105.819 32.9284L98.3117 36.9138L99.1337 38.4622ZM72.9222 11.1137L71.1973 10.8007L69.6811 19.1604L71.406 19.4732L72.9222 11.1137ZM81.2498 23.0307C82.3837 23.5614 83.4676 23.8509 84.4713 23.8915C86.1869 23.9609 87.0693 23.2823 87.1061 23.2533L87.2404 23.1475L86.2829 21.6766L86.1228 21.7974C86.1177 21.8012 85.5171 22.2342 84.3591 22.1875C83.6143 22.1574 82.8031 21.9392 81.9479 21.539C80.7329 20.9704 79.8611 20.2406 79.4266 19.4288C79.0373 18.7013 79.0089 17.9378 79.3444 17.2208C79.795 16.2579 80.7201 15.7549 81.9492 15.8046C82.6704 15.8338 83.4707 16.0519 84.328 16.4531C85.7633 17.1248 86.4682 17.9176 86.8069 18.4644C87.1711 19.0526 87.2009 19.4897 87.2011 19.494L87.2129 19.6922L88.9538 19.4862L88.9489 19.3152C88.946 19.211 88.8324 16.7427 85.026 14.9614C83.885 14.4274 82.8011 14.1363 81.8041 14.096C79.8984 14.019 78.4381 14.8542 77.6924 16.4477C77.1376 17.6332 77.159 18.8684 77.7543 20.02C78.3677 21.2065 79.5764 22.2476 81.2498 23.0307ZM62.6962 15.2276L65.4415 18.3528L63.2841 18.5274L60.6798 15.4204L56.025 15.797L56.2914 19.0894L54.5441 19.2308L53.859 10.7625C53.859 10.7625 62.1008 10.0976 62.1645 10.0963C63.6122 10.0662 64.6645 11.026 64.7826 12.4845C64.9032 13.9761 64.1294 14.9799 62.6962 15.2276ZM62.075 13.6555C62.4227 13.6273 62.996 13.4572 62.9296 12.6344C62.8762 11.9756 62.4097 11.7502 61.9909 11.759C61.9678 11.7595 61.9446 11.7607 61.9215 11.7626L55.7391 12.2628L55.8923 14.1557L62.075 13.6555ZM49.1474 18.7647L42.5579 21.5457L41.8895 19.9617L48.1158 17.334L47.4755 15.8166L41.249 18.4444L40.5352 16.753L47.1247 13.9719L46.4844 12.4546L38.2798 15.9172L41.5833 23.7446L49.7878 20.282L49.1474 18.7647ZM20.7063 47.5112L15.9778 38.4811L16.902 36.8043L27.0617 35.9794L26.0281 37.855L24.5155 37.963L21.0234 44.2991L21.7399 45.6356L20.7063 47.5112ZM20.1559 42.6808L22.6839 38.0938L17.8808 38.4368L20.1559 42.6808ZM87.5687 26.0484L97.4879 23.7014L98.8839 25.0118L97.1693 35.0597L95.6078 33.5941L95.8775 32.1017L90.6025 27.1505L89.1301 27.514L87.5687 26.0484ZM92.3851 26.7104L96.2039 30.2948L97.0601 25.5562L92.3851 26.7104Z" fill="#FFFDEC"/>
<path d="M110.158 53.6868L109.26 52.862L110.016 50.5937C110.05 50.4916 110.145 50.4229 110.253 50.4229H110.863V53.7427C110.732 53.6834 110.586 53.6503 110.433 53.6503C110.338 53.6503 110.246 53.6631 110.158 53.6868ZM114.179 56.3327L112.624 54.5164L111.472 54.8565C111.434 55.1066 111.309 55.3281 111.128 55.4882L113.889 57.1473L114.203 56.6237C114.259 56.5314 114.249 56.4146 114.179 56.3327ZM109.386 54.607L106.474 56.553L106.813 57.0607C106.86 57.1314 106.939 57.1719 107.021 57.1719C107.043 57.1719 107.065 57.1689 107.087 57.1629L109.393 56.5315L109.581 55.3156C109.456 55.1426 109.382 54.9303 109.382 54.701C109.382 54.6693 109.384 54.6379 109.386 54.607ZM110.433 54.2255C110.171 54.2255 109.957 54.4388 109.957 54.701C109.957 54.9631 110.171 55.1764 110.433 55.1764C110.695 55.1764 110.908 54.9631 110.908 54.701C110.908 54.4388 110.695 54.2255 110.433 54.2255Z" fill="#FFFDEC"/>
<path d="M14.1952 53.6868L13.2967 52.862L14.0528 50.5937C14.0869 50.4916 14.1821 50.4229 14.2898 50.4229H14.9005V53.7427C14.7691 53.6834 14.6233 53.6503 14.4698 53.6503C14.3748 53.6503 14.2828 53.6631 14.1952 53.6868ZM18.216 56.3327L16.6611 54.5164L15.5089 54.8565C15.4716 55.1066 15.3459 55.3281 15.1647 55.4882L17.9258 57.1473L18.2404 56.6237C18.2958 56.5314 18.286 56.4146 18.216 56.3327ZM13.4235 54.607L10.511 56.553L10.8502 57.0607C10.8974 57.1314 10.9758 57.1719 11.0578 57.1719C11.0797 57.1719 11.102 57.1689 11.1239 57.1629L13.43 56.5315L13.6183 55.3156C13.4931 55.1426 13.4192 54.9303 13.4192 54.701C13.4192 54.6693 13.4207 54.6379 13.4235 54.607ZM14.4698 54.2255C14.2077 54.2255 13.9943 54.4388 13.9943 54.701C13.9943 54.9631 14.2077 55.1764 14.4698 55.1764C14.732 55.1764 14.9453 54.9631 14.9453 54.701C14.9453 54.4388 14.732 54.2255 14.4698 54.2255Z" fill="#FFFDEC"/>
<defs>
<linearGradient id="paint0_linear_433_210" x1="103" y1="48.0847" x2="388.008" y2="48.0847" gradientUnits="userSpaceOnUse">
<stop stop-color="#04837A"/>
<stop offset="0.512725" stop-color="#047D74"/>
<stop offset="1" stop-color="#047D74" stop-opacity="0"/>
</linearGradient>
<linearGradient id="paint1_linear_433_210" x1="103" y1="61.5419" x2="388.008" y2="61.5419" gradientUnits="userSpaceOnUse">
<stop stop-color="#04837A"/>
<stop offset="0.512725" stop-color="#047D74"/>
<stop offset="1" stop-color="#047D74" stop-opacity="0"/>
</linearGradient>
<linearGradient id="paint2_linear_433_210" x1="103" y1="74.999" x2="388.008" y2="74.999" gradientUnits="userSpaceOnUse">
<stop stop-color="#04837A"/>
<stop offset="0.512725" stop-color="#047D74"/>
<stop offset="1" stop-color="#047D74" stop-opacity="0"/>
</linearGradient>
<linearGradient id="paint3_linear_433_210" x1="103" y1="88.4561" x2="388.008" y2="88.4561" gradientUnits="userSpaceOnUse">
<stop stop-color="#04837A"/>
<stop offset="0.512725" stop-color="#047D74"/>
<stop offset="1" stop-color="#047D74" stop-opacity="0"/>
</linearGradient>
<linearGradient id="paint4_linear_433_210" x1="102.992" y1="101.911" x2="388" y2="101.911" gradientUnits="userSpaceOnUse">
<stop stop-color="#04837A"/>
<stop offset="0.512725" stop-color="#047D74"/>
<stop offset="1" stop-color="#047D74" stop-opacity="0"/>
</linearGradient>
<clipPath id="clip0_433_210">
<rect width="285" height="64" fill="white" transform="translate(103 43)"/>
</clipPath>
</defs>
</svg>
