<svg width="163" height="163" viewBox="0 0 163 163" fill="none" xmlns="http://www.w3.org/2000/svg">
<path d="M163 81.5C163 36.5609 126.439 0 81.5 0C36.5609 0 0 36.5609 0 81.5C0 126.439 36.5609 163 81.5 163C105.005 163 126.211 152.992 141.101 137.026L141.223 137.067C142.91 135.314 144.475 133.489 145.901 131.574C150.001 126.341 153.473 120.555 156.203 114.345C156.203 114.263 156.195 114.173 156.187 114.092C160.563 104.108 162.992 93.0811 162.992 81.5H163ZM38.794 97.0094L51.7851 100.62L48.1339 104.662H38.8022V97.0176L38.794 97.0094ZM87.262 90.8399L100.465 87.1479L90.5954 104.654H62.2905L103.228 59.4053L86.8056 90.2368C86.6182 90.5628 86.8953 90.9296 87.262 90.8399ZM81.5 9.617C121.142 9.617 153.391 41.8666 153.391 81.5081C153.391 86.4226 152.894 91.2229 151.949 95.8684L109.071 46.6098C108.028 45.4118 106.512 44.7109 104.915 44.6946C103.334 44.6539 101.793 45.3466 100.726 46.5284L52.2333 100.123L45.257 87.7999L52.1682 89.7315C52.3393 89.7804 52.5104 89.5848 52.4126 89.4218L36.4875 61.2146C36.3898 61.068 36.2023 61.068 36.1045 61.2146L20.2038 89.4218C20.1061 89.5929 20.2528 89.7804 20.4402 89.7315L27.3269 87.7999L20.1957 100.449C20.0979 100.595 20.2446 100.807 20.432 100.734L33.7654 97.0257V104.662H13.4638C10.9862 97.3925 9.617 89.6093 9.617 81.5081C9.617 41.8584 41.8584 9.60885 81.5 9.60885V9.617ZM29.5519 131.109L54.4338 139.178C59.6661 140.897 64.279 135.274 61.5488 130.465C60.5382 128.713 62.266 126.594 64.1813 127.246H64.2139L101.076 139.178C106.309 140.897 110.921 135.274 108.199 130.465C107.189 128.713 108.917 126.594 110.864 127.246L130.865 133.693C117.979 145.885 100.604 153.391 81.5081 153.391C61.0924 153.391 42.6571 144.826 29.5601 131.109H29.5519Z" fill="#4BB4A3"/>
</svg>
