<svg width="864" height="773" viewBox="0 0 864 773" fill="none" xmlns="http://www.w3.org/2000/svg">
<g clip-path="url(#clip0_420_1537)">
<path d="M391.613 447.536C389.959 447.026 -122.534 683.126 -123.87 680.039C-124.175 679.475 -123.928 678.79 -123.304 678.508L391.613 447.523V447.536Z" fill="#07074B" fill-opacity="0.1"/>
<path d="M393.08 450.1C391.396 449.698 -102.036 718.286 -103.603 715.292C-103.952 714.742 -103.749 714.044 -103.153 713.735L393.095 450.1H393.08Z" fill="#07074B" fill-opacity="0.1"/>
<path d="M394.751 452.557L-79.0108 749.458C-79.577 749.807 -80.3464 749.673 -80.7238 749.149C-81.1013 748.626 -80.9561 747.914 -80.39 747.565C-80.39 747.565 394.751 452.557 394.765 452.557H394.751Z" fill="#07074B" fill-opacity="0.1"/>
<path d="M396.593 454.92L-53.6216 781.637C-54.1587 782.026 -54.9281 781.946 -55.3491 781.449C-55.7701 780.952 -55.683 780.241 -55.1459 779.851L396.593 454.92Z" fill="#07074B" fill-opacity="0.1"/>
<path d="M398.612 457.135L-25.8645 812.111C-26.3726 812.527 -27.142 812.5 -27.6065 812.031C-28.0565 811.561 -28.0275 810.849 -27.5194 810.42L398.612 457.135Z" fill="#07074B" fill-opacity="0.1"/>
<path d="M400.802 459.229L4.12587 840.719C3.66133 841.176 2.87741 841.189 2.38383 840.746C1.89025 840.303 1.87574 839.592 2.3548 839.135C2.3548 839.135 400.788 459.229 400.802 459.229Z" fill="#07074B" fill-opacity="0.1"/>
<path d="M403.125 461.176L36.2082 867.327C35.7727 867.81 34.9887 867.877 34.4661 867.475C33.9435 867.072 33.8709 866.347 34.3064 865.864L403.125 461.176Z" fill="#07074B" fill-opacity="0.1"/>
<path d="M405.607 462.961L70.2215 891.787C69.8295 892.297 69.0456 892.418 68.494 892.042C67.9423 891.666 67.8117 890.954 68.2181 890.444L405.607 462.948V462.961Z" fill="#07074B" fill-opacity="0.1"/>
<path d="M408.207 464.586L105.978 914.005C105.615 914.542 104.86 914.703 104.279 914.367C103.699 914.032 103.525 913.333 103.888 912.796C103.888 912.796 408.207 464.586 408.207 464.572V464.586Z" fill="#07074B" fill-opacity="0.1"/>
<path d="M410.937 466.036C409.267 466.519 144.725 936.102 141.69 934.33C141.081 934.034 140.849 933.35 141.168 932.786C141.168 932.786 410.937 466.036 410.937 466.022V466.036Z" fill="#07074B" fill-opacity="0.1"/>
<path d="M413.753 467.311C412.127 467.901 183.659 953.406 180.479 951.835C179.855 951.58 179.565 950.909 179.841 950.332L413.738 467.311H413.753Z" fill="#07074B" fill-opacity="0.1"/>
<path d="M416.67 468.398L222.085 966.106C221.852 966.697 221.141 967.005 220.502 966.791C219.864 966.576 219.53 965.918 219.762 965.327L416.656 468.398H416.67Z" fill="#07074B" fill-opacity="0.1"/>
<path d="M419.662 469.298L263.096 978.349C262.907 978.953 262.225 979.302 261.572 979.128C260.919 978.953 260.541 978.322 260.73 977.718L419.662 469.298Z" fill="#07074B" fill-opacity="0.1"/>
<path d="M422.71 469.996L304.933 987.908C304.788 988.525 304.135 988.915 303.467 988.794C302.799 988.659 302.378 988.055 302.509 987.438L422.71 469.996Z" fill="#07074B" fill-opacity="0.1"/>
<path d="M425.801 470.506L347.381 994.754C347.294 995.372 346.669 995.815 345.987 995.721C345.319 995.64 344.84 995.063 344.942 994.432L425.816 470.506H425.801Z" fill="#07074B" fill-opacity="0.1"/>
<path d="M428.922 470.814L390.234 998.835C390.191 999.466 389.596 999.936 388.928 999.896C388.245 999.855 387.737 999.305 387.781 998.687L428.937 470.814H428.922Z" fill="#07074B" fill-opacity="0.1"/>
<path d="M432.059 470.908L433.293 1000.15C433.293 1000.78 432.741 1001.29 432.059 1001.29C431.376 1001.29 430.825 1000.78 430.825 1000.15L432.059 470.908Z" fill="#07074B" fill-opacity="0.1"/>
<path d="M435.193 470.814L476.348 998.687C476.392 999.318 475.884 999.855 475.202 999.909C474.519 999.963 473.939 999.48 473.881 998.849L435.193 470.814Z" fill="#07074B" fill-opacity="0.1"/>
<path d="M438.33 470.506L519.204 994.432C519.306 995.049 518.827 995.627 518.159 995.721C517.491 995.815 516.867 995.372 516.765 994.754L438.33 470.506Z" fill="#07074B" fill-opacity="0.1"/>
<path d="M441.42 469.996L561.606 987.424C561.752 988.042 561.331 988.646 560.663 988.78C559.995 988.915 559.342 988.525 559.197 987.908L441.42 469.996Z" fill="#07074B" fill-opacity="0.1"/>
<path d="M444.471 469.298L603.403 977.718C603.591 978.322 603.214 978.953 602.561 979.128C601.907 979.302 601.225 978.953 601.036 978.349L444.471 469.298Z" fill="#07074B" fill-opacity="0.1"/>
<path d="M447.461 468.398L644.355 965.327C644.587 965.918 644.268 966.576 643.615 966.791C642.976 967.005 642.264 966.71 642.032 966.106L447.447 468.398H447.461Z" fill="#07074B" fill-opacity="0.1"/>
<path d="M450.364 467.311C449.754 468.828 687.02 950.708 683.637 951.835C683.013 952.09 682.287 951.835 682.011 951.272L450.364 467.324V467.311Z" fill="#07074B" fill-opacity="0.1"/>
<path d="M453.194 466.036C452.7 467.579 725.75 932.987 722.455 934.33C721.86 934.625 721.105 934.424 720.785 933.86L453.194 466.036Z" fill="#07074B" fill-opacity="0.1"/>
<path d="M455.908 464.586L760.227 912.796C760.59 913.333 760.416 914.032 759.836 914.367C759.255 914.703 758.5 914.542 758.137 914.005C758.137 914.005 455.908 464.586 455.908 464.572V464.586Z" fill="#07074B" fill-opacity="0.1"/>
<path d="M458.508 462.961L795.897 890.458C796.304 890.968 796.173 891.679 795.621 892.055C795.07 892.431 794.3 892.31 793.894 891.8C793.894 891.8 458.508 462.961 458.494 462.961H458.508Z" fill="#07074B" fill-opacity="0.1"/>
<path d="M460.991 461.176L829.794 865.864C830.23 866.347 830.172 867.058 829.649 867.475C829.126 867.877 828.357 867.824 827.907 867.34C827.907 867.34 460.991 461.189 460.976 461.189L460.991 461.176Z" fill="#07074B" fill-opacity="0.1"/>
<path d="M463.327 459.229L861.759 839.135C862.238 839.592 862.224 840.303 861.73 840.746C861.237 841.189 860.467 841.176 859.988 840.719L463.327 459.229Z" fill="#07074B" fill-opacity="0.1"/>
<path d="M465.505 457.135L891.622 810.42C892.13 810.836 892.174 811.561 891.724 812.031C891.274 812.5 890.49 812.541 889.982 812.125L465.505 457.148V457.135Z" fill="#07074B" fill-opacity="0.1"/>
<path d="M467.523 454.92L919.262 779.851C919.799 780.241 919.901 780.952 919.48 781.449C919.059 781.946 918.289 782.04 917.752 781.65L467.537 454.92H467.523Z" fill="#07074B" fill-opacity="0.1"/>
<path d="M469.368 452.557L944.508 747.552C945.074 747.901 945.219 748.612 944.842 749.136C944.464 749.659 943.695 749.794 943.129 749.445L469.353 452.557H469.368Z" fill="#07074B" fill-opacity="0.1"/>
<path d="M471.036 450.1C471.5 451.658 969.752 712.527 967.734 715.279C967.4 715.829 966.645 716.017 966.05 715.708L471.036 450.1Z" fill="#07074B" fill-opacity="0.1"/>
<path d="M472.517 447.536C473.098 449.053 989.815 677.152 988 680.039C987.71 680.602 986.969 680.844 986.36 680.576L472.517 447.55V447.536Z" fill="#07074B" fill-opacity="0.1"/>
<path d="M432.059 303.091L430.825 -226.151C430.825 -226.782 431.376 -227.292 432.059 -227.292C432.741 -227.292 433.293 -226.782 433.293 -226.151L432.059 303.091Z" fill="#07074B" fill-opacity="0.1"/>
<path d="M428.923 303.185L387.767 -224.674C387.724 -225.305 388.232 -225.842 388.914 -225.896C389.596 -225.95 390.177 -225.466 390.235 -224.835L428.923 303.199V303.185Z" fill="#07074B" fill-opacity="0.1"/>
<path d="M425.8 303.494L344.926 -220.432C344.825 -221.05 345.304 -221.627 345.971 -221.721C346.639 -221.815 347.263 -221.372 347.365 -220.754L425.8 303.494Z" fill="#07074B" fill-opacity="0.1"/>
<path d="M422.71 303.991L302.51 -213.438C302.364 -214.055 302.785 -214.659 303.453 -214.794C304.121 -214.928 304.774 -214.539 304.919 -213.921L422.696 303.991H422.71Z" fill="#07074B" fill-opacity="0.1"/>
<path d="M419.662 304.702L260.73 -203.718C260.541 -204.322 260.919 -204.953 261.572 -205.128C262.225 -205.302 262.907 -204.953 263.096 -204.349L419.662 304.702Z" fill="#07074B" fill-opacity="0.1"/>
<path d="M416.67 305.602L219.777 -191.327C219.544 -191.918 219.864 -192.576 220.517 -192.791C221.156 -193.005 221.867 -192.71 222.099 -192.106L416.685 305.602H416.67Z" fill="#07074B" fill-opacity="0.1"/>
<path d="M413.751 306.689C414.361 305.172 177.096 -176.708 180.478 -177.835C181.102 -178.09 181.828 -177.835 182.104 -177.271L413.751 306.676V306.689Z" fill="#07074B" fill-opacity="0.1"/>
<path d="M410.936 307.965C411.43 306.421 138.38 -158.987 141.675 -160.329C142.271 -160.625 143.025 -160.423 143.345 -159.86L410.936 307.965Z" fill="#07074B" fill-opacity="0.1"/>
<path d="M408.206 309.414L103.901 -138.81C103.538 -139.347 103.712 -140.045 104.293 -140.381C104.874 -140.716 105.628 -140.555 105.991 -140.018C105.991 -140.018 408.22 309.401 408.22 309.414H408.206Z" fill="#07074B" fill-opacity="0.1"/>
<path d="M405.607 311.039L68.2179 -116.458C67.8114 -116.968 67.9421 -117.679 68.4937 -118.055C69.0454 -118.431 69.8147 -118.31 70.2212 -117.8C70.2212 -117.8 405.607 311.039 405.621 311.039H405.607Z" fill="#07074B" fill-opacity="0.1"/>
<path d="M403.125 312.824L34.3215 -91.8636C33.886 -92.3469 33.9441 -93.0584 34.4667 -93.4745C34.9893 -93.8773 35.7587 -93.8236 36.2087 -93.3403C36.2087 -93.3403 403.125 312.811 403.14 312.811L403.125 312.824Z" fill="#07074B" fill-opacity="0.1"/>
<path d="M400.802 314.771L2.35505 -65.1351C1.87599 -65.5915 1.8905 -66.303 2.38407 -66.746C2.87765 -67.189 3.64706 -67.1756 4.12612 -66.7192L400.788 314.771H400.802Z" fill="#07074B" fill-opacity="0.1"/>
<path d="M398.612 316.852L-27.5046 -36.4195C-28.0127 -36.8357 -28.0562 -37.5606 -27.6062 -38.0305C-27.1562 -38.5003 -26.3723 -38.5406 -25.8642 -38.1244L398.612 316.852Z" fill="#07074B" fill-opacity="0.1"/>
<path d="M396.592 319.08L-55.1323 -5.85144C-55.6694 -6.24076 -55.771 -6.95227 -55.35 -7.44899C-54.929 -7.9457 -54.1596 -8.03967 -53.6225 -7.65035L396.592 319.08Z" fill="#07074B" fill-opacity="0.1"/>
<path d="M394.751 321.43L-80.39 26.435C-80.9561 26.086 -81.1013 25.3745 -80.7238 24.8509C-80.3464 24.3273 -79.577 24.1931 -79.0108 24.5421L394.765 321.43H394.751Z" fill="#07074B" fill-opacity="0.1"/>
<path d="M469.368 321.43L943.129 24.5421C943.695 24.1931 944.464 24.3273 944.842 24.8509C945.219 25.3745 945.074 26.086 944.508 26.435C944.508 26.435 469.368 321.443 469.353 321.443L469.368 321.43Z" fill="#07074B" fill-opacity="0.1"/>
<path d="M467.523 319.08L917.738 -7.65035C918.275 -8.03966 919.044 -7.95912 919.465 -7.4624C919.886 -6.96569 919.799 -6.25417 919.262 -5.86486L467.523 319.067V319.08Z" fill="#07074B" fill-opacity="0.1"/>
<path d="M465.505 316.852L889.982 -38.1243C890.49 -38.5404 891.259 -38.5136 891.724 -38.0437C892.174 -37.5739 892.145 -36.8624 891.637 -36.4328L465.505 316.852Z" fill="#07074B" fill-opacity="0.1"/>
<path d="M463.328 314.771L859.99 -66.7192C860.454 -67.1756 861.238 -67.189 861.732 -66.746C862.225 -66.303 862.24 -65.5915 861.761 -65.1351C861.761 -65.1351 463.328 314.771 463.313 314.771H463.328Z" fill="#07074B" fill-opacity="0.1"/>
<path d="M460.99 312.824L827.906 -93.3268C828.342 -93.8101 829.126 -93.8772 829.648 -93.4745C830.171 -93.0718 830.243 -92.3468 829.808 -91.8635L460.99 312.824Z" fill="#07074B" fill-opacity="0.1"/>
<path d="M458.507 311.039L793.893 -117.787C794.285 -118.297 795.069 -118.418 795.62 -118.042C796.172 -117.679 796.303 -116.954 795.896 -116.444L458.507 311.052V311.039Z" fill="#07074B" fill-opacity="0.1"/>
<path d="M455.909 309.414L758.137 -140.005C758.5 -140.542 759.255 -140.703 759.836 -140.367C760.417 -140.032 760.591 -139.333 760.228 -138.796C760.228 -138.796 455.909 309.414 455.909 309.428V309.414Z" fill="#07074B" fill-opacity="0.1"/>
<path d="M453.196 307.965C454.865 307.481 719.408 -162.102 722.442 -160.329C723.052 -160.034 723.284 -159.349 722.965 -158.786C722.965 -158.786 453.196 307.965 453.196 307.978V307.965Z" fill="#07074B" fill-opacity="0.1"/>
<path d="M450.365 306.689C451.991 306.099 680.459 -179.406 683.638 -177.835C684.262 -177.58 684.553 -176.909 684.277 -176.332L450.379 306.689H450.365Z" fill="#07074B" fill-opacity="0.1"/>
<path d="M447.46 305.602L642.031 -192.119C642.263 -192.71 642.975 -193.019 643.613 -192.804C644.252 -192.589 644.586 -191.931 644.354 -191.34L447.46 305.589V305.602Z" fill="#07074B" fill-opacity="0.1"/>
<path d="M444.469 304.702L601.02 -204.349C601.209 -204.953 601.891 -205.302 602.544 -205.128C603.198 -204.953 603.575 -204.322 603.386 -203.718L444.455 304.702H444.469Z" fill="#07074B" fill-opacity="0.1"/>
<path d="M441.42 303.991L559.196 -213.907C559.341 -214.525 559.995 -214.914 560.662 -214.793C561.33 -214.659 561.751 -214.055 561.62 -213.438L441.42 304.004V303.991Z" fill="#07074B" fill-opacity="0.1"/>
<path d="M438.329 303.494L516.75 -220.754C516.837 -221.372 517.461 -221.815 518.144 -221.721C518.812 -221.64 519.291 -221.063 519.189 -220.432L438.315 303.494H438.329Z" fill="#07074B" fill-opacity="0.1"/>
<path d="M435.193 303.185L473.895 -224.835C473.939 -225.466 474.534 -225.936 475.202 -225.896C475.884 -225.856 476.392 -225.305 476.348 -224.688L435.193 303.185Z" fill="#07074B" fill-opacity="0.1"/>
</g>
<defs>
<clipPath id="clip0_420_1537">
<rect width="864" height="773" fill="white"/>
</clipPath>
</defs>
</svg>
