<svg width="20" height="28" viewBox="0 0 20 28" fill="none" xmlns="http://www.w3.org/2000/svg">
<path fill-rule="evenodd" clip-rule="evenodd" d="M9.81818 6.63636V10.3182L14.7273 5.40909L9.81818 0.5V4.18182C4.39364 4.18182 0 8.57545 0 14C0 15.9268 0.564545 17.7186 1.52182 19.2282L3.31364 17.4364C2.76136 16.4177 2.45455 15.2395 2.45455 14C2.45455 9.93773 5.75591 6.63636 9.81818 6.63636ZM18.1145 8.77182L16.3227 10.5636C16.8627 11.5945 17.1818 12.7605 17.1818 14C17.1818 18.0623 13.8805 21.3636 9.81818 21.3636V17.6818L4.90909 22.5909L9.81818 27.5V23.8182C15.2427 23.8182 19.6364 19.4245 19.6364 14C19.6364 12.0732 19.0718 10.2814 18.1145 8.77182Z" fill="#04716A"/>
</svg>
