<svg width="24" height="27" viewBox="0 0 24 27" fill="none" xmlns="http://www.w3.org/2000/svg">
<path d="M13.7323 26.3528H10.2677V24.0391C10.2677 21.6742 9.36923 19.4296 7.73757 17.7198C6.10292 16.007 3.91835 15.0304 1.58055 14.9643C1.48139 14.9643 1.38524 14.9613 1.28608 14.9613H0V11.3915H1.28608C1.38524 11.3915 1.4844 11.3915 1.58055 11.3885C3.91835 11.3224 6.10592 10.3458 7.73757 8.63303C9.36923 6.92325 10.2677 4.6786 10.2677 2.31375V0H13.7323V2.31375C13.7323 4.6786 14.6308 6.92325 16.2624 8.63303C17.8971 10.3458 20.0816 11.3224 22.4194 11.3885C22.5186 11.3885 22.6147 11.3915 22.7139 11.3915H24V14.9613H22.7139C22.6147 14.9613 22.5156 14.9613 22.4194 14.9643C20.0816 15.0304 17.8941 16.007 16.2624 17.7198C14.6308 19.4296 13.7323 21.6742 13.7323 24.0391V26.3528ZM5.48991 13.1764C7.0224 13.7774 8.41968 14.7149 9.59459 15.9469C10.6403 17.0407 11.4486 18.3088 11.9985 19.679C12.5484 18.3088 13.3567 17.0437 14.4024 15.9469C15.5773 14.7149 16.9746 13.7774 18.5071 13.1764C16.9746 12.5754 15.5773 11.6379 14.4024 10.4059C13.3567 9.31213 12.5484 8.04407 11.9985 6.67384C11.4486 8.04407 10.6403 9.30913 9.59459 10.4059C8.41968 11.6379 7.0224 12.5754 5.48991 13.1764Z" fill="#fffdec"/>
</svg>
