<svg width="27" height="50" viewBox="0 0 27 50" fill="none" xmlns="http://www.w3.org/2000/svg">
<path d="M26.4642 47.415L25.469 42.0079C25.2785 40.9718 24.379 40.2196 23.3316 40.2196H22.1578L15.8878 1.16967C15.7787 0.492199 15.2049 0 14.5219 0H12.4003C11.7165 0 11.1419 0.492995 11.0344 1.17206L4.8371 40.2196H3.67037C2.62301 40.2196 1.72346 40.9718 1.53295 42.0079L0.536968 47.415C0.419188 48.0558 0.589139 48.7103 1.00334 49.2112C1.41755 49.7122 2.027 49.9992 2.67439 49.9992H24.326C24.9742 49.9992 25.5829 49.7122 25.9971 49.2112C26.4113 48.7103 26.5812 48.0551 26.4635 47.415H26.4642ZM8.11674 27.1211C9.00048 27.3167 10.7261 27.5846 13.5631 27.5846C16.4 27.5846 18.0134 27.3214 18.8536 27.1242L21.557 43.9648C21.2424 44.4085 19.6575 46.0529 13.4998 46.0529C7.34209 46.0529 5.75641 44.4077 5.4426 43.9648L8.11595 27.1211H8.11674ZM13.5362 17.0091C15.3803 17.0091 16.5352 16.8716 17.1889 16.7531L17.6901 19.8748C17.0411 20.0068 15.7463 20.1905 13.5465 20.1905C11.3466 20.1905 9.96169 20.0037 9.26766 19.8701L9.76328 16.7483C10.4447 16.8676 11.6541 17.0099 13.5362 17.0099V17.0091ZM12.2058 1.36051C12.2208 1.2635 12.3031 1.19273 12.4011 1.19273H14.5227C14.6199 1.19273 14.7021 1.2627 14.7179 1.35971L15.5202 6.35645C15.1361 6.4312 14.4934 6.5131 13.5109 6.5131C12.5283 6.5131 11.8201 6.42642 11.4146 6.3485L12.2066 1.35971L12.2058 1.36051Z" fill="black"/>
</svg>
