<svg width="163" height="163" viewBox="0 0 163 163" fill="none" xmlns="http://www.w3.org/2000/svg">
<g clip-path="url(#clip0_769_5535)">
<path d="M86.2189 63.7328V56.7319H73.1055V63.7328H86.2189Z" fill="#07074B"/>
<path d="M86.2189 91.3046V84.3037H73.1055V91.3046H86.2189Z" fill="#07074B"/>
<path d="M104.181 63.7328V56.7319H91.06V63.7328H104.181Z" fill="#07074B"/>
<path d="M104.181 91.3046V84.3037H91.06V91.3046H104.181Z" fill="#07074B"/>
<path d="M86.2189 105.233V98.2319H73.1055V105.233H86.2189Z" fill="#07074B"/>
<path d="M73.1055 77.5228H86.2189V70.522H73.1055V77.5228Z" fill="#07074B"/>
<path d="M104.181 77.5228V70.522H91.06V77.5228H104.181Z" fill="#07074B"/>
<path d="M162.992 81.7447C163.016 75.1187 162.242 68.4928 160.653 62.038C156.578 45.469 147.189 30.4078 134.19 19.3727C121.027 8.1909 104.418 1.3938 87.1805 0.203902C85.2897 0.0735022 83.3989 0.00830214 81.5081 0.00830214C36.5691 0.000152143 0 36.5611 0 81.5083C0 98.8271 5.61535 115.901 15.9088 129.83C26.0148 143.505 40.3588 153.88 56.5528 159.096C75.632 165.241 96.6508 164.076 114.948 155.902C130.571 148.925 143.766 136.953 152.275 122.112C159.3 109.854 162.935 95.8116 162.984 81.7447H162.992ZM72.3639 121.94L67.3027 123.554L64.8577 124.337C64.7355 124.377 64.6132 124.394 64.4909 124.394C64.4258 124.394 64.3605 124.385 64.2953 124.369C64.2546 124.369 64.2057 124.361 64.165 124.353C64.0753 124.328 63.9857 124.296 63.9042 124.247C63.896 124.247 63.8878 124.239 63.8797 124.231C63.79 124.182 63.7085 124.117 63.6352 124.051V42.152H114.263L114.173 75.3469C113.929 75.4692 113.684 75.5996 113.432 75.7381C108.615 78.5173 106.235 84.5727 108.167 89.8539C108.175 89.8784 108.183 89.9028 108.199 89.9273C108.346 90.3266 108.517 90.7178 108.713 91.1009C105.053 92.087 101.875 94.7439 100.359 98.224H91.0762V105.225H99.5604C100.196 108.746 102.494 111.908 105.567 113.717C108.77 115.608 111.688 115.266 115.176 115.209C115.64 117.776 115.257 120.759 115.257 123.391L112.364 124.312C111.296 124.654 110.367 123.522 110.922 122.56C111.052 122.34 110.962 122.095 110.783 121.973C110.71 121.924 110.628 121.892 110.53 121.892C110.481 121.892 110.433 121.892 110.384 121.916L102.877 124.312C101.802 124.654 100.873 123.522 101.419 122.56C101.573 122.299 101.419 121.998 101.158 121.916C101.117 121.9 101.068 121.892 101.027 121.892C100.979 121.892 100.93 121.892 100.881 121.916L93.3745 124.312C93.2441 124.353 93.1056 124.377 92.9833 124.377C92.095 124.377 91.4349 123.407 91.9239 122.56C92.0217 122.389 91.9891 122.193 91.875 122.063C91.8179 121.998 91.7446 121.949 91.663 121.916C91.6223 121.9 91.5734 121.892 91.5326 121.892C91.4837 121.892 91.4348 121.892 91.3859 121.916L83.8798 124.312C83.7494 124.353 83.6109 124.377 83.4886 124.377C83.236 124.377 82.9996 124.296 82.804 124.165C82.315 123.831 82.0787 123.163 82.4291 122.56C82.5595 122.34 82.4698 122.095 82.2906 121.973C82.2172 121.924 82.1357 121.892 82.0379 121.892C81.989 121.892 81.9401 121.892 81.8912 121.916L74.385 124.312C73.3092 124.654 72.3801 123.522 72.9262 122.56C73.13 122.209 72.7877 121.786 72.3883 121.916L72.3639 121.94ZM44.2871 122.845C44.3116 122.755 44.3523 122.666 44.4012 122.584C44.6049 122.234 44.2626 121.81 43.8633 121.94L41.3449 122.747V71.712H53.1299V122.022L45.8601 124.345C45.5585 124.443 45.2651 124.418 45.0206 124.32C44.7028 124.198 44.442 123.937 44.3197 123.619C44.23 123.383 44.2056 123.114 44.2871 122.853V122.845ZM140.376 122.446L138.803 121.94C138.754 121.924 138.705 121.916 138.656 121.916C138.322 121.916 138.077 122.275 138.265 122.584C138.468 122.943 138.469 123.334 138.322 123.652C138.273 123.758 138.216 123.856 138.134 123.954C137.914 124.222 137.572 124.402 137.197 124.402C137.067 124.402 136.936 124.385 136.806 124.337L129.3 121.94C129.251 121.924 129.202 121.916 129.153 121.916C129.014 121.916 128.884 121.981 128.803 122.079C128.688 122.209 128.656 122.405 128.762 122.576C128.827 122.698 128.876 122.821 128.9 122.943C128.949 123.187 128.917 123.432 128.827 123.644C128.689 123.962 128.411 124.222 128.061 124.337C127.947 124.369 127.825 124.394 127.694 124.394C127.564 124.394 127.433 124.377 127.303 124.328L126.904 124.206L123.358 123.073V114.899C123.766 115.005 124.182 115.086 124.605 115.152C124.728 115.168 124.858 115.192 124.98 115.209C125.135 115.225 125.29 115.241 125.453 115.257C125.795 115.29 126.138 115.306 126.504 115.306C130.832 115.306 134.654 113.163 136.912 109.911C138.265 107.963 139.055 105.608 139.055 103.081C139.055 102.69 139.031 102.315 138.998 101.932C138.99 101.818 138.966 101.696 138.958 101.582C138.925 101.321 138.884 101.06 138.835 100.808C138.811 100.677 138.778 100.547 138.754 100.416C138.697 100.172 138.632 99.9273 138.558 99.691C138.526 99.5687 138.493 99.4546 138.452 99.3324C138.354 99.0471 138.248 98.7619 138.134 98.4848C138.11 98.4277 138.085 98.3625 138.061 98.3055C137.914 97.9795 137.759 97.6535 137.588 97.3438C137.531 97.2378 137.458 97.1319 137.401 97.0178C137.279 96.814 137.156 96.6103 137.026 96.4147C136.944 96.2924 136.855 96.1702 136.773 96.0479C136.643 95.8768 136.512 95.7056 136.382 95.5345C136.284 95.4122 136.195 95.2981 136.089 95.184C135.942 95.0129 135.779 94.8499 135.624 94.6869C135.526 94.5891 135.437 94.4913 135.339 94.3935C135.094 94.1571 134.842 93.9371 134.581 93.717C134.459 93.6111 134.32 93.5214 134.198 93.4236C134.043 93.3014 133.88 93.1873 133.717 93.0732C133.57 92.9753 133.415 92.8776 133.269 92.7798C133.114 92.682 132.959 92.5923 132.796 92.5027C132.633 92.413 132.47 92.3234 132.307 92.2419C132.144 92.1604 131.973 92.0789 131.802 92.0055C131.639 91.9322 131.468 91.8507 131.305 91.7855C130.971 91.6469 130.636 91.5573 130.327 91.3698C131.924 88.9167 132.095 85.4366 131.288 82.6738C130.318 79.3486 127.833 76.602 124.687 75.1839L124.777 38.5415C124.777 34.7518 121.696 31.6629 117.898 31.6629H60.0003C56.2106 31.6629 53.1217 34.7518 53.1217 38.5415V61.2148H37.7182C33.9284 61.2148 30.8396 64.3037 30.8396 68.0934V123.073L26.8461 124.345C25.917 124.646 25.0775 123.815 25.2487 122.959C25.2731 122.837 25.3221 122.715 25.3872 122.592C25.4117 122.552 25.428 122.503 25.4443 122.462C25.4524 122.421 25.4524 122.372 25.4443 122.332C25.428 122.161 25.2976 122.006 25.1264 121.949C25.045 121.924 24.9471 121.916 24.8412 121.949L23.3334 122.429L22.5918 122.666C14.4173 111.003 9.6007 96.814 9.6007 81.5164C9.617 41.8667 41.8666 9.61715 81.5081 9.61715C121.15 9.61715 153.399 41.8667 153.399 81.5083C153.399 96.7325 148.632 110.856 140.522 122.487L140.376 122.438V122.446Z" fill="#07074B"/>
</g>
<defs>
<clipPath id="clip0_769_5535">
<rect width="163" height="163" fill="white"/>
</clipPath>
</defs>
</svg>
