<svg width="163" height="163" viewBox="0 0 163 163" fill="none" xmlns="http://www.w3.org/2000/svg">
<g clip-path="url(#clip0_769_5529)">
<path d="M147.792 128.86C157.36 115.502 163 99.1529 163 81.5C163 36.5609 126.439 0 81.5 0C36.5609 0 0 36.5609 0 81.5C0 122.821 30.9048 157.051 70.8153 162.299L71.3288 162.552L71.8341 162.421C75.0044 162.796 78.2318 163 81.5081 163C108.778 163 132.959 149.536 147.76 128.909L147.833 128.86H147.8H147.792ZM76.0558 71.0761L76.0721 70.9458L75.958 71.0191C74.5236 70.1144 73.5619 68.517 73.5619 66.6996C73.5619 63.8878 75.8521 61.5977 78.6638 61.5977C81.4755 61.5977 83.7738 63.8878 83.7738 66.6996C83.7738 69.5113 81.4837 71.8015 78.6638 71.8015C77.7103 71.8015 76.8219 71.5407 76.0558 71.0761ZM81.5 9.617C121.142 9.617 153.391 41.8666 153.391 81.5081C153.391 99.6338 146.635 116.203 135.518 128.868H128.623V123.57C128.746 123.57 128.868 123.587 128.99 123.587C133.424 123.587 137.034 120.049 137.034 115.706C137.034 112.935 135.559 110.498 133.342 109.088C133.464 108.542 133.53 107.979 133.53 107.401C133.53 103.057 129.919 99.5197 125.486 99.5197C121.052 99.5197 117.442 103.057 117.442 107.401C117.442 108.216 117.572 109.006 117.808 109.748C115.331 111.093 113.652 113.676 113.652 116.643C113.652 120.987 117.262 124.524 121.696 124.524C121.916 124.524 122.144 124.508 122.356 124.491V128.868H104.662V117.287C104.785 117.287 104.907 117.303 105.029 117.303C109.463 117.303 113.073 113.766 113.073 109.422C113.073 106.651 111.598 104.214 109.381 102.804C109.503 102.258 109.569 101.696 109.569 101.117C109.569 96.7731 105.958 93.236 101.525 93.236C97.091 93.236 93.4805 96.7731 93.4805 101.117C93.4805 101.932 93.6109 102.723 93.8473 103.464C91.3697 104.809 89.6908 107.393 89.6908 110.359C89.6908 114.703 93.3012 118.24 97.7348 118.24C97.9548 118.24 98.1831 118.224 98.395 118.208V128.868H87.2865L82.0379 77.4658C83.562 76.993 84.9556 76.1944 86.1292 75.1593L115.771 92.9752L118.762 88.0118C119.593 86.6264 119.446 84.8822 118.395 83.6598L102.193 64.7355L91.7201 67.8325L89.9516 66.7648V66.7159C89.9516 62.1519 87.2213 58.1991 83.293 56.4306V20.7662H77.4983C75.8928 20.7662 74.4665 21.8013 73.9531 23.3253L66.0802 46.9522L74.1242 54.336V56.3654C70.4486 57.9791 67.7999 61.508 67.4331 65.6808L36.1615 86.5775L39.3808 91.3941C40.0899 92.4536 41.2553 93.0567 42.486 93.0567C42.8201 93.0567 43.1542 93.0078 43.4802 92.9182L67.5065 86.3411L69.1691 75.5424L70.6116 74.5725C71.9156 75.9091 73.5456 76.9197 75.3793 77.4739L70.5301 124.19L54.01 129.544C53.3173 129.764 52.8935 129.365 52.7386 129.178C52.6245 129.031 52.2659 128.517 52.6245 127.873C53.1706 126.904 53.0646 125.722 52.3556 124.866C51.6547 124.019 50.53 123.684 49.4949 124.035L32.4859 129.544C31.785 129.772 31.3449 129.316 31.2227 129.178C31.076 128.99 30.7581 128.501 31.1167 127.873C31.6546 126.904 31.5568 125.73 30.8559 124.874C30.155 124.027 29.0222 123.693 27.979 124.035L24.5886 125.355C15.1997 113.203 9.59255 97.9874 9.59255 81.4837C9.617 41.8584 41.8584 9.60885 81.5 9.60885V9.617Z" fill="#04837A"/>
</g>
<defs>
<clipPath id="clip0_769_5529">
<rect width="163" height="163" fill="white"/>
</clipPath>
</defs>
</svg>
