<svg width="696" height="607" viewBox="0 0 696 607" fill="none" xmlns="http://www.w3.org/2000/svg">
<g clip-path="url(#clip0_718_2129)">
<path opacity="0.4" d="M700.073 675H418.133L418 -37H700.073C719.363 -37 735 -21.3565 735 -2.05926V640.059C735 659.357 719.363 675 700.073 675Z" fill="#07074B"/>
<mask id="mask0_718_2129" style="mask-type:luminance" maskUnits="userSpaceOnUse" x="418" y="-37" width="317" height="712">
<path d="M700.073 675H418.133L418 -37H700.073C719.363 -37 735 -21.3565 735 -2.05926V640.059C735 659.357 719.363 675 700.073 675Z" fill="white"/>
</mask>
<g mask="url(#mask0_718_2129)">
<path d="M418.357 -365.824C736.18 -365.824 993.826 -107.795 993.826 210.5C993.826 528.795 736.18 786.824 418.357 786.824" stroke="#003A73" stroke-width="7.457" stroke-miterlimit="10" stroke-linecap="round"/>
<path d="M418.357 -339.479C721.652 -339.479 967.52 -93.2448 967.52 210.5C967.52 514.245 721.652 760.479 418.357 760.479" stroke="#003A73" stroke-width="7.172" stroke-miterlimit="10" stroke-linecap="round"/>
<path d="M418.357 -313.133C707.123 -313.133 941.214 -78.6947 941.214 210.5C941.214 499.695 707.123 734.133 418.357 734.133" stroke="#003A73" stroke-width="6.887" stroke-miterlimit="10" stroke-linecap="round"/>
<path d="M418.357 -286.788C692.594 -286.788 914.907 -64.1445 914.907 210.5C914.907 485.144 692.594 707.788 418.357 707.788" stroke="#003A73" stroke-width="6.602" stroke-miterlimit="10" stroke-linecap="round"/>
<path d="M418.357 -260.442C678.066 -260.442 888.601 -49.5942 888.601 210.5C888.601 470.594 678.066 681.442 418.357 681.442" stroke="#003A73" stroke-width="6.317" stroke-miterlimit="10" stroke-linecap="round"/>
<path d="M418.357 -234.097C663.537 -234.097 862.294 -35.044 862.294 210.5C862.294 456.044 663.537 655.097 418.357 655.097" stroke="#003A73" stroke-width="6.032" stroke-miterlimit="10" stroke-linecap="round"/>
<path d="M418.357 -207.751C649.008 -207.751 835.988 -20.4938 835.988 210.5C835.988 441.494 649.008 628.751 418.357 628.751" stroke="#003A73" stroke-width="5.747" stroke-miterlimit="10" stroke-linecap="round"/>
<path d="M418.357 -181.406C634.48 -181.406 809.682 -5.9436 809.682 210.5C809.682 426.944 634.48 602.406 418.357 602.406" stroke="#003A73" stroke-width="5.462" stroke-miterlimit="10" stroke-linecap="round"/>
<path d="M418.357 -155.06C619.951 -155.06 783.375 8.60658 783.375 210.5C783.375 412.393 619.951 576.06 418.357 576.06" stroke="#003A73" stroke-width="5.177" stroke-miterlimit="10" stroke-linecap="round"/>
<path d="M418.357 -128.715C605.423 -128.715 757.069 23.1568 757.069 210.5C757.069 397.843 605.423 549.715 418.357 549.715" stroke="#003A73" stroke-width="4.892" stroke-miterlimit="10" stroke-linecap="round"/>
<path d="M418.357 -102.369C590.894 -102.369 730.763 37.707 730.763 210.5C730.763 383.293 590.894 523.369 418.357 523.369" stroke="#003A73" stroke-width="4.607" stroke-miterlimit="10" stroke-linecap="round"/>
<path d="M418.357 -76.0239C576.365 -76.0239 704.456 52.2572 704.456 210.5C704.456 368.743 576.365 497.024 418.357 497.024" stroke="#003A73" stroke-width="4.322" stroke-miterlimit="10" stroke-linecap="round"/>
<path d="M418.357 -49.6784C561.837 -49.6784 678.15 66.8074 678.15 210.5C678.15 354.192 561.837 470.678 418.357 470.678" stroke="#003A73" stroke-width="4.037" stroke-miterlimit="10" stroke-linecap="round"/>
<path d="M418.357 -23.3329C547.308 -23.3329 651.843 81.3576 651.843 210.5C651.843 339.642 547.308 444.333 418.357 444.333" stroke="#003A73" stroke-width="3.752" stroke-miterlimit="10" stroke-linecap="round"/>
<path d="M418.357 3.01248C532.779 3.01248 625.537 95.9078 625.537 210.5C625.537 325.092 532.78 417.987 418.357 417.987" stroke="#003A73" stroke-width="3.467" stroke-miterlimit="10" stroke-linecap="round"/>
<path d="M418.357 29.358C518.251 29.358 599.231 110.458 599.231 210.5C599.231 310.542 518.251 391.642 418.357 391.642" stroke="#003A73" stroke-width="3.182" stroke-miterlimit="10" stroke-linecap="round"/>
<path d="M418.357 55.7035C503.722 55.7035 572.924 125.008 572.924 210.5C572.924 295.992 503.722 365.296 418.357 365.296" stroke="#003A73" stroke-width="2.897" stroke-miterlimit="10" stroke-linecap="round"/>
<path d="M418.357 82.049C489.194 82.049 546.618 139.558 546.618 210.5C546.618 281.441 489.194 338.951 418.357 338.951" stroke="#003A73" stroke-width="2.612" stroke-miterlimit="10" stroke-linecap="round"/>
<path d="M418.357 108.394C474.665 108.394 520.311 154.109 520.311 210.5C520.311 266.891 474.665 312.605 418.357 312.605" stroke="#003A73" stroke-width="2.327" stroke-miterlimit="10" stroke-linecap="round"/>
<path d="M418.357 134.74C460.136 134.74 494.005 168.659 494.005 210.5C494.005 252.341 460.136 286.26 418.357 286.26" stroke="#003A73" stroke-width="2.042" stroke-miterlimit="10" stroke-linecap="round"/>
<path d="M418.357 161.085C445.608 161.085 467.699 183.209 467.699 210.5C467.699 237.791 445.608 259.914 418.357 259.914" stroke="#003A73" stroke-width="1.757" stroke-miterlimit="10" stroke-linecap="round"/>
</g>
<path d="M154.773 572.588C155.09 573.155 154.57 573.812 153.959 573.63L123.085 565.022V565.045L111.323 562.078V616.6H88.3656V562.508L76.672 565.045L45.82 573.63C45.2092 573.812 44.6891 573.155 45.006 572.589L69.321 529.459L45.82 536.006C45.2092 536.164 44.6891 535.507 45.006 534.94L99.2674 438.714C99.5391 438.216 100.24 438.216 100.512 438.714L154.773 534.94C155.09 535.507 154.57 536.164 153.959 536.006L130.436 529.459L154.773 572.588Z" fill="#007275"/>
<mask id="mask1_718_2129" style="mask-type:luminance" maskUnits="userSpaceOnUse" x="44" y="438" width="111" height="159">
<path d="M154.773 572.588C155.09 573.155 154.57 573.812 153.959 573.63L123.085 565.022V565.045L111.323 562.078V596.6H88.3656V562.508L76.672 565.045L45.82 573.63C45.2092 573.812 44.6891 573.155 45.006 572.589L69.321 529.459L45.82 536.006C45.2092 536.164 44.6891 535.507 45.006 534.94L99.2674 438.714C99.5391 438.216 100.24 438.216 100.512 438.714L154.773 534.94C155.09 535.507 154.57 536.164 153.959 536.006L130.436 529.459L154.773 572.588Z" fill="white"/>
</mask>
<g mask="url(#mask1_718_2129)">
<g opacity="0.3">
<g style="mix-blend-mode:multiply">
<path d="M73.3085 521.494L62.0536 523.715L99.2688 438.714L44.2482 536.285L68.8684 529.582L41.25 579.883L65.5649 574.4L74.1509 566.047H58.8561L84.0375 519.367L73.3085 521.494Z" fill="#04827A"/>
</g>
</g>
</g>
<path d="M114.241 487.862L131.37 518.905L110.383 488.386L114.241 487.862Z" fill="#4BB3A2"/>
<path d="M114.241 526.172L131.37 557.215L110.383 526.696L114.241 526.172Z" fill="#4BB3A2"/>
<path d="M315.105 565.94C315.51 566.663 314.845 567.502 314.065 567.27L274.642 556.279V556.308L259.623 552.518V616.6H230.309V553.068L215.377 556.308L175.982 567.27C175.202 567.502 174.538 566.663 174.943 565.94L205.99 510.867L175.982 519.227C175.202 519.429 174.538 518.59 174.943 517.867L244.229 394.995C244.576 394.359 245.471 394.359 245.818 394.995L315.105 517.867C315.509 518.59 314.845 519.429 314.065 519.227L284.029 510.867L315.105 565.94Z" fill="#007275"/>
<mask id="mask2_718_2129" style="mask-type:luminance" maskUnits="userSpaceOnUse" x="174" y="394" width="142" height="203">
<path d="M315.105 565.94C315.51 566.663 314.845 567.502 314.065 567.27L274.642 556.279V556.308L259.623 552.518V596.6H230.309V553.068L215.377 556.308L175.982 567.27C175.202 567.502 174.538 566.663 174.943 565.94L205.99 510.867L175.982 519.227C175.202 519.429 174.538 518.59 174.943 517.867L244.229 394.995C244.576 394.359 245.471 394.359 245.818 394.995L315.105 517.867C315.509 518.59 314.845 519.429 314.065 519.227L284.029 510.867L315.105 565.94Z" fill="white"/>
</mask>
<g mask="url(#mask2_718_2129)">
<g opacity="0.3">
<g style="mix-blend-mode:multiply">
<path d="M213.256 500.223L213.273 500.199L196.71 503.533L244.229 394.995L173.767 519.954L204.657 511.243L170.146 575.254L201.194 568.254L211.798 557.586H192.627L224.781 497.981L213.256 500.223Z" fill="#00969B"/>
</g>
</g>
</g>
<path d="M258.424 458.422L263.351 457.753L285.223 497.391" fill="#4BB3A2"/>
<path d="M285.223 546.309L258.424 507.34L263.351 506.671" fill="#4BB3A2"/>
<path d="M435.457 200.257L401.699 186.721V137.451L358.033 97.3024L400.292 -29.6561C401.943 -34.6269 406.574 -37.9685 411.808 -37.9685H435.457L435.457 200.257Z" fill="#07074B"/>
<path d="M216.033 349.399C212.049 349.399 208.241 347.429 205.946 343.994L192.809 324.297L390.59 191.953L398.112 227.585L357.201 254.955L348.132 313.62L219.244 348.965C218.177 349.255 217.097 349.399 216.033 349.399Z" fill="#07074B"/>
<path d="M622.874 345.572L418.98 222.882L447.952 200.868L490.122 226.245L546.971 209.437L633.871 311.104C637.275 315.084 637.751 320.777 635.056 325.271L622.874 345.572Z" fill="#07074B"/>
<path d="M473.767 620.061H359.279L399.371 250.095C400.396 240.192 408.685 232.705 418.651 232.705C428.63 232.705 436.921 240.205 437.936 250.147L473.767 620.061Z" fill="#07074B"/>
<mask id="mask3_718_2129" style="mask-type:luminance" maskUnits="userSpaceOnUse" x="359" y="212" width="115" height="389">
<path d="M473.767 600.061H359.279L399.371 230.095C400.396 220.192 408.685 212.705 418.651 212.705C428.63 212.705 436.921 220.205 437.936 230.147L473.767 600.061Z" fill="white"/>
</mask>
<g mask="url(#mask3_718_2129)">
<path d="M380.259 581.819L380.158 582.401L384.642 582.11L380.259 581.819Z" fill="#07074B"/>
</g>
<path d="M418.36 261.269C390.414 261.269 367.676 238.497 367.676 210.506C367.676 182.514 390.414 159.746 418.36 159.746C446.307 159.746 469.048 182.518 469.048 210.506C469.048 238.494 446.31 261.269 418.36 261.269Z" fill="#07074B"/>
<path d="M418.475 229.786C429.08 229.786 437.678 221.176 437.678 210.555C437.678 199.933 429.08 191.323 418.475 191.323C407.869 191.323 399.271 199.933 399.271 210.555C399.271 221.176 407.869 229.786 418.475 229.786Z" fill="#003A73"/>
</g>
<defs>
<clipPath id="clip0_718_2129">
<rect width="696" height="607" fill="white"/>
</clipPath>
</defs>
</svg>
