<svg width="382" height="445" viewBox="0 0 382 445" fill="none" xmlns="http://www.w3.org/2000/svg">
<path d="M114.431 137.681L109.161 139.124C108.903 139.194 108.688 138.918 108.819 138.685L119.728 119.355C120.079 118.733 120.974 118.733 121.325 119.355L132.234 138.685C132.365 138.918 132.15 139.194 131.892 139.124L126.622 137.681L131.788 146.835C132.085 147.361 131.6 147.983 131.018 147.824L121.175 145.131C120.75 145.015 120.303 145.015 119.878 145.131L110.035 147.824C109.453 147.983 108.968 147.361 109.265 146.835L114.431 137.681Z" fill="#7EECD2"/>
<path d="M230.83 183.393L239.032 81.8968C239.162 80.2776 240.514 79.0303 242.138 79.0303C243.761 79.0303 245.113 80.2776 245.243 81.8968L253.445 183.393H230.83Z" fill="#003A73"/>
<path d="M255.721 185.492H228.555L236.94 81.7271C237.157 79.0374 239.44 76.9302 242.138 76.9302C244.835 76.9302 247.118 79.0371 247.336 81.7271L255.721 185.492ZM233.106 181.292H251.17L243.151 82.0658C243.109 81.5412 242.664 81.1299 242.138 81.1299C241.611 81.1299 241.166 81.5409 241.124 82.0656L233.106 181.292Z" fill="#003A73"/>
<path d="M251.085 66.7777C251.085 61.9113 247.142 57.9663 242.278 57.9663C237.414 57.9663 233.471 61.9113 233.471 66.7777C233.471 71.6442 237.414 75.5892 242.278 75.5892C247.142 75.5892 251.085 71.6442 251.085 66.7777Z" fill="#003A73"/>
<path d="M242.278 77.6889C236.265 77.6889 231.373 72.7941 231.373 66.7774C231.373 60.7608 236.265 55.8662 242.278 55.8662C248.291 55.8662 253.183 60.761 253.183 66.7774C253.183 72.7939 248.291 77.6889 242.278 77.6889ZM242.278 60.0659C238.579 60.0659 235.57 63.0767 235.57 66.7774C235.57 70.4781 238.579 73.4891 242.278 73.4891C245.977 73.4891 248.986 70.4781 248.986 66.7774C248.986 63.0767 245.977 60.0659 242.278 60.0659Z" fill="#003A73"/>
<path d="M248.035 90.4439C247.913 90.3449 236.662 85.305 236.662 85.305L236.958 81.8674C237.19 79.1802 239.438 77.1167 242.133 77.1167C244.832 77.1167 247.081 79.1844 247.309 81.8749L248.035 90.4439Z" fill="#07074B"/>
<path d="M242.295 50.9711C244.254 50.9711 246.12 51.3476 247.851 52.0051C248.317 52.1821 248.814 51.839 248.814 51.3403V2.81415C248.814 2.4198 248.495 2.1001 248.1 2.1001H239.598C239.578 2.1001 239.558 2.10095 239.538 2.10262L237.235 2.29732C236.951 2.32136 236.709 2.5123 236.618 2.78298L226.447 33.3044C225.285 36.7912 226.28 40.6357 228.986 43.121L237.908 51.3144C238.085 51.4773 238.332 51.5368 238.565 51.478C239.765 51.1755 241.002 50.9711 242.295 50.9711Z" fill="#003A73"/>
<path d="M248.104 54.1515C247.768 54.1515 247.43 54.091 247.106 53.9682C245.539 53.3728 243.92 53.0709 242.295 53.0709C241.299 53.0709 240.277 53.2118 239.078 53.5142C238.154 53.7471 237.186 53.5025 236.488 52.8607L227.567 44.668C224.256 41.6273 223.035 36.906 224.456 32.6401L234.627 2.11863C234.983 1.05033 235.938 0.299202 237.059 0.204564L239.361 0.00977981C239.442 0.00311758 239.52 0 239.598 0H248.1C249.651 0 250.913 1.26224 250.913 2.81389V51.3401C250.913 52.2645 250.459 53.1297 249.699 53.6543C249.224 53.9826 248.666 54.1515 248.104 54.1515ZM242.295 48.8711C243.783 48.8711 245.263 49.0622 246.715 49.4406V4.19981H239.656L238.321 4.31281L228.438 33.9684C227.54 36.6659 228.312 39.6512 230.405 41.5739L238.786 49.2698C240.025 49.0019 241.179 48.8711 242.295 48.8711Z" fill="#003A73"/>
<path d="M269.669 65.7995L258.384 69.1317C258.124 69.2086 257.935 69.428 257.887 69.6952C257.296 72.977 255.706 75.8909 253.43 78.1422C253.1 78.4687 253.167 79.018 253.565 79.2572L293.989 103.564C294.327 103.767 294.765 103.657 294.968 103.319L299.327 96.0496C299.336 96.035 299.344 96.0202 299.351 96.0051L300.407 93.9218C300.537 93.6644 300.5 93.3537 300.312 93.1346L279.383 68.6776C276.995 65.8865 273.191 64.7595 269.669 65.7995Z" fill="#003A73"/>
<path d="M294.351 105.767C293.847 105.767 293.351 105.631 292.907 105.364L252.484 81.0574C251.734 80.6064 251.244 79.8497 251.14 78.9809C251.036 78.1135 251.333 77.2635 251.954 76.6491C253.982 74.6433 255.319 72.1099 255.821 69.3231C256.012 68.2652 256.766 67.4205 257.789 67.1179L269.075 63.7857C273.384 62.5137 278.056 63.8979 280.978 67.3119L301.906 91.7689C302.648 92.636 302.794 93.854 302.278 94.872L301.224 96.9546C301.189 97.0211 301.159 97.076 301.126 97.1301L296.768 104.399C296.381 105.045 295.767 105.5 295.038 105.682C294.81 105.739 294.58 105.767 294.351 105.767ZM256.102 78.3326L293.882 101.05L297.502 95.0107L298.117 93.7979L277.789 70.0436C275.941 67.8845 272.987 67.0089 270.263 67.814L259.78 70.9092C259.151 73.6472 257.898 76.1745 256.102 78.3326Z" fill="#003A73"/>
<path d="M226.392 66.883V66.8678C226.393 66.2839 225.742 65.9351 225.257 66.2595L182.969 94.5309C182.641 94.75 182.553 95.1936 182.772 95.5215L187.51 102.612C187.522 102.63 187.535 102.648 187.549 102.665L188.995 104.453C189.173 104.673 189.465 104.767 189.738 104.692L220.737 96.1976C224.279 95.2269 226.921 92.2647 227.483 88.6332L229.373 76.4224C229.401 76.2421 229.357 76.0596 229.253 75.9098C227.467 73.3395 226.392 70.2426 226.392 66.883Z" fill="#003A73"/>
<path d="M189.55 106.818C188.715 106.818 187.906 106.444 187.364 105.773L185.918 103.986C185.865 103.921 185.813 103.85 185.764 103.777L181.027 96.6883C180.61 96.0635 180.46 95.3133 180.606 94.5761C180.753 93.8385 181.178 93.2023 181.803 92.7847L224.091 64.5132C224.962 63.9315 226.076 63.8774 226.998 64.3718C227.921 64.8667 228.493 65.8247 228.49 66.8721L226.392 66.8827H228.49C228.49 69.6635 229.35 72.3704 230.976 74.7109C231.391 75.3087 231.558 76.0303 231.448 76.7439L229.557 88.9544C228.869 93.3973 225.625 97.0353 221.291 98.2229L190.293 106.717C190.047 106.785 189.797 106.818 189.55 106.818ZM189.22 101.392L190.057 102.427L220.183 94.172C222.923 93.4211 224.974 91.1208 225.409 88.3115L227.216 76.6416C225.755 74.3985 224.821 71.908 224.461 69.3168L185.287 95.5065L189.22 101.392ZM189.253 101.443L189.255 101.445C189.254 101.444 189.254 101.443 189.253 101.443Z" fill="#003A73"/>
<path d="M287.03 183.392L263.551 145.07C262.528 143.4 260.104 143.4 259.081 145.07L237.513 182.148L242.955 183.392" fill="#7EECD2"/>
<path d="M242.487 185.439L234.264 183.559L257.291 143.972C258.156 142.56 259.661 141.718 261.316 141.718C262.971 141.718 264.475 142.56 265.34 143.972L288.819 182.295L285.24 184.49L261.762 146.167C261.635 145.961 261.449 145.918 261.316 145.918C261.185 145.918 261.004 145.959 260.878 146.154L240.762 180.737L243.422 181.345L242.487 185.439Z" fill="#7EECD2"/>
<path d="M319.126 176.376L292.057 132.194C289.936 128.733 284.911 128.733 282.791 132.194L269.226 154.333L251.755 183.027C251.755 183.027 299.233 186.579 307.34 182.592C317.035 177.824 318.052 177.186 318.052 177.186L319.126 176.376Z" fill="#003A73"/>
<path d="M286.871 186.59C271.92 186.59 254.6 185.345 251.598 185.12L248.178 184.865L267.434 153.241L281.001 131.096C282.381 128.843 284.783 127.498 287.424 127.498C290.065 127.498 292.466 128.843 293.846 131.096L321.911 176.904L319.166 178.965C318.981 179.082 317.586 179.893 308.266 184.476C305.001 186.082 296.418 186.59 286.871 186.59ZM255.339 181.177C274.212 182.459 301.17 183.286 306.415 180.707C312.601 177.664 315.221 176.32 316.285 175.758L290.267 133.291C289.647 132.278 288.611 131.698 287.424 131.698C286.237 131.698 285.2 132.278 284.58 133.291L271.016 155.431L255.339 181.177Z" fill="#003A73"/>
<path d="M359.458 154.132L358.376 140.563C358.324 139.876 357.752 139.344 357.063 139.344C356.374 139.344 355.801 139.876 355.75 140.563L354.637 154.515" fill="#003A73"/>
<path d="M356.729 154.682L352.544 154.348L353.657 140.396C353.79 138.633 355.286 137.245 357.063 137.245C358.84 137.245 360.335 138.633 360.469 140.406L361.551 153.965L357.366 154.299L357.063 150.496L356.729 154.682Z" fill="#003A73"/>
<path d="M360.696 143.287L353.54 141.987L353.634 140.458C353.745 138.647 355.246 137.235 357.059 137.235C358.855 137.235 360.348 138.621 360.482 140.413L360.696 143.287Z" fill="#07074B"/>
<path d="M323.26 155.216L318.099 156.629C317.846 156.698 317.635 156.428 317.764 156.199L328.448 137.268C328.791 136.659 329.668 136.659 330.012 137.268L340.695 156.199C340.824 156.428 340.613 156.698 340.36 156.629L335.199 155.216L340.258 164.181C340.549 164.696 340.074 165.306 339.504 165.15L329.864 162.512C329.449 162.398 329.01 162.398 328.595 162.512L318.955 165.15C318.385 165.306 317.91 164.696 318.201 164.181L323.26 155.216Z" fill="#003A73"/>
<path d="M326.9 172.118H331.559V158.54H326.9V172.118Z" fill="#003A73"/>
<path d="M207.348 133.868L203.391 134.951C203.198 135.004 203.036 134.797 203.135 134.622L211.324 120.11C211.588 119.644 212.259 119.644 212.523 120.11L220.712 134.622C220.811 134.797 220.649 135.004 220.456 134.951L216.499 133.868L220.378 140.74C220.6 141.135 220.236 141.602 219.8 141.483L212.41 139.461C212.092 139.374 211.756 139.374 211.437 139.461L204.048 141.483C203.611 141.602 203.247 141.135 203.47 140.74L207.348 133.868Z" fill="#003A73"/>
<path d="M210.138 146.824H213.709V136.416H210.138V146.824Z" fill="#003A73"/>
<path d="M360.41 128.792C360.41 127.169 359.095 125.854 357.474 125.854C355.852 125.854 354.537 127.169 354.537 128.792C354.537 130.414 355.852 131.73 357.474 131.73C359.095 131.73 360.41 130.414 360.41 128.792Z" fill="#003A73"/>
<path d="M357.47 124.641C357.758 124.641 358.038 124.673 358.308 124.732C358.728 124.824 359.125 124.511 359.125 124.081V112.24H356.778L356.068 112.3L353.417 120.253C353.142 121.08 353.378 121.991 354.019 122.581L356.429 124.794C356.763 124.704 357.108 124.641 357.47 124.641Z" fill="#003A73"/>
<path d="M364.513 128.375L361.445 129.28C361.343 129.954 361.076 130.57 360.685 131.089C360.424 131.437 360.524 131.934 360.897 132.159L370.743 138.079L371.945 136.073L372.271 135.431L366.816 129.057C366.25 128.395 365.348 128.128 364.513 128.375Z" fill="#003A73"/>
<path d="M352.657 128.848L342.266 135.794L343.574 137.751L344.02 138.303L352.097 136.09C352.937 135.86 353.563 135.157 353.697 134.296L354.203 131.027C353.852 130.54 353.541 129.964 353.457 129.235C353.412 128.844 352.984 128.629 352.657 128.848Z" fill="#003A73"/>
<path d="M269.241 150.337L251.277 180.005H244.129L265.237 143.818L269.241 150.337Z" fill="#388D4A"/>
<path d="M151.797 145.027L148.873 108.374C148.793 107.312 147.908 106.491 146.844 106.491C145.779 106.491 144.895 107.312 144.815 108.374L141.891 145.027" fill="#003A73"/>
<path d="M145.123 145.285L138.658 144.769L141.582 108.116C141.787 105.392 144.098 103.247 146.844 103.247C149.589 103.247 151.901 105.392 152.106 108.131L155.029 144.769L148.564 145.285L146.844 123.721L145.123 145.285ZM145.64 108.632C145.64 108.636 145.64 108.64 145.641 108.643L145.64 108.632ZM148.048 108.618L148.048 108.629C148.048 108.625 148.048 108.621 148.048 108.618Z" fill="#003A73"/>
<path d="M146.916 96.3868C149.422 96.3868 151.453 94.3545 151.453 91.8475C151.453 89.3404 149.422 87.3081 146.916 87.3081C144.411 87.3081 142.38 89.3404 142.38 91.8475C142.38 94.3545 144.411 96.3868 146.916 96.3868Z" fill="#003A73"/>
<path d="M147.546 85.4333C147.991 85.4333 148.423 85.4828 148.841 85.5745C149.489 85.7171 150.102 85.2329 150.102 84.5687V66.2725H146.477L145.379 66.3653L141.284 78.6541C140.858 79.9315 141.222 81.34 142.214 82.2505L145.938 85.6703C146.454 85.531 146.986 85.4333 147.546 85.4333Z" fill="#003A73"/>
<path d="M158.428 91.2033L153.688 92.6029C153.53 93.6435 153.118 94.5948 152.514 95.3975C152.109 95.935 152.264 96.7035 152.84 97.05L168.054 106.198L169.912 103.099L170.415 102.106L161.987 92.2577C161.112 91.2351 159.718 90.8223 158.428 91.2033Z" fill="#003A73"/>
<path d="M140.109 91.9339L124.054 102.667L126.074 105.691L126.764 106.544L139.244 103.124C140.542 102.768 141.509 101.683 141.715 100.353L142.497 95.3018C141.955 94.5494 141.476 93.6586 141.345 92.532C141.275 91.928 140.614 91.5961 140.109 91.9339Z" fill="#003A73"/>
<path d="M152.543 113.623L152.11 108.094C151.887 105.343 149.591 103.224 146.832 103.224C144.05 103.224 141.742 105.379 141.551 108.156L141.45 109.622L152.543 113.623Z" fill="#07074B"/>
<path d="M182.796 149.459L188.592 139.999C190.712 136.538 195.738 136.538 197.858 139.999L203.969 149.974" fill="#7EECD2"/>
<path d="M202.18 151.071L196.068 141.096C195.448 140.084 194.412 139.503 193.225 139.503C192.038 139.503 191.002 140.084 190.381 141.096L184.585 150.556L181.007 148.361L186.803 138.901C188.183 136.648 190.584 135.303 193.225 135.303C195.866 135.303 198.267 136.648 199.647 138.901L205.759 148.876L202.18 151.071Z" fill="#7EECD2"/>
<path d="M154.222 153.07L167.802 130.905C170.249 126.912 176.047 126.912 178.493 130.905L190.175 149.973" fill="#003A73"/>
<path d="M156.012 154.168L152.433 151.973L166.013 129.808C167.547 127.305 170.214 125.811 173.148 125.811C176.082 125.811 178.749 127.305 180.282 129.808L191.965 148.876L188.386 151.071L176.704 132.003C175.939 130.755 174.61 130.01 173.148 130.01C171.686 130.01 170.356 130.755 169.592 132.003L156.012 154.168Z" fill="#003A73"/>
<path d="M186.326 139.673L190.363 146.384H196.841C196.841 146.384 193.382 140.49 190.795 135.541C188.818 136.14 187.147 137.608 186.341 139.635L186.326 139.673Z" fill="#388D4A"/>
<path d="M119.728 119.355L108.819 138.685C108.688 138.918 108.903 139.194 109.161 139.124L114.431 137.681L109.265 146.836C108.969 147.361 109.453 147.984 110.035 147.824L119.878 145.131C120.091 145.073 120.309 145.044 120.527 145.044V118.888C120.215 118.888 119.904 119.044 119.728 119.355Z" fill="#388D4A"/>
<path d="M101.363 132.786L96.4007 134.144C96.1577 134.211 95.9552 133.951 96.079 133.731L106.35 115.531C106.68 114.945 107.523 114.945 107.853 115.531L118.124 133.731C118.248 133.95 118.046 134.211 117.802 134.144L112.841 132.786L117.705 141.405C117.984 141.9 117.527 142.486 116.98 142.336L107.712 139.8C107.312 139.691 106.891 139.691 106.491 139.8L97.2237 142.336C96.6759 142.486 96.2195 141.9 96.4987 141.405L101.363 132.786Z" fill="#003A73"/>
<path d="M104.863 149.035H109.341V135.981H104.863V149.035Z" fill="#003A73"/>
<path d="M34.7598 254.222L4.01128 444.874H150.523L171.701 315.417L249.595 315.193C258.848 315.154 267.313 309.972 271.559 301.746L284.379 276.914C284.555 276.606 284.734 276.299 284.897 275.981L299.434 247.508L308.622 228.637C321.645 226.895 333.824 220.927 343.217 211.528L375.328 179.4C383.289 171.434 377.651 157.815 366.393 157.815H359.712C351.53 157.815 343.623 160.773 337.448 166.144L323.235 178.508C317.168 183.786 309.398 186.693 301.358 186.693H250.758H220.69L224.836 171.186C227.883 159.787 219.279 148.602 207.485 148.633L135.554 148.822C79.6969 148.969 48.3515 161.935 34.7598 254.222Z" fill="#4BB4A3"/>
<mask id="mask0_789_1783" style="mask-type:luminance" maskUnits="userSpaceOnUse" x="61" y="312" width="111" height="130">
<path d="M61.6323 441.574H150.483L171.662 312.128H61.6323V441.574Z" fill="white"/>
</mask>
<g mask="url(#mask0_789_1783)">
<path d="M159.163 446.756L133.282 446.797L159.163 438.057V446.756Z" fill="#008B7D"/>
<path d="M159.963 441.934L132.482 441.828L159.963 433.279V441.934Z" fill="#008B7D"/>
<path d="M160.763 437.111L131.682 436.859L160.763 428.5V437.111Z" fill="#008B7D"/>
<path d="M161.563 432.289L130.882 431.889L161.563 423.722V432.289Z" fill="#008B7D"/>
<path d="M162.363 427.466L130.082 426.92L162.363 418.944V427.466Z" fill="#008B7D"/>
<path d="M163.163 422.643L129.282 421.951L163.163 414.166V422.643Z" fill="#008B7D"/>
<path d="M163.964 417.821L128.482 416.981L163.964 409.387V417.821Z" fill="#008B7D"/>
<path d="M164.764 412.998L127.681 412.012L164.764 404.609V412.998Z" fill="#008B7D"/>
<path d="M165.564 408.176L126.881 407.043L165.564 399.831V408.176Z" fill="#008B7D"/>
<path d="M166.364 403.354L126.081 402.074L166.364 395.053V403.354Z" fill="#008B7D"/>
<path d="M167.164 398.531L125.281 397.105L167.164 390.274V398.531Z" fill="#008B7D"/>
<path d="M167.964 393.708L124.481 392.135L167.964 385.496V393.708Z" fill="#008B7D"/>
<path d="M168.764 388.886L123.681 387.166L168.764 380.718V388.886Z" fill="#008B7D"/>
<path d="M169.565 384.063L122.881 382.197L169.565 375.939V384.063Z" fill="#008B7D"/>
<path d="M170.365 379.241L122.08 377.227L170.365 371.161V379.241Z" fill="#008B7D"/>
<path d="M171.165 374.418L121.28 372.258L171.165 366.383V374.418Z" fill="#008B7D"/>
<path d="M171.965 369.596L120.48 367.289L171.965 361.605V369.596Z" fill="#008B7D"/>
<path d="M172.765 364.773L119.68 362.32L172.765 356.827V364.773Z" fill="#008B7D"/>
<path d="M173.565 359.951L118.88 357.35L173.565 352.048V359.951Z" fill="#008B7D"/>
<path d="M174.365 355.128L118.08 352.381L174.365 347.27V355.128Z" fill="#008B7D"/>
<path d="M175.166 350.306L117.28 347.412L175.166 342.492V350.306Z" fill="#008B7D"/>
<path d="M175.966 345.483L116.48 342.442L175.966 337.713V345.483Z" fill="#008B7D"/>
<path d="M176.766 340.66L115.679 337.473L176.766 332.935V340.66Z" fill="#008B7D"/>
<path d="M177.566 335.838L114.879 332.504L177.566 328.157V335.838Z" fill="#008B7D"/>
<path d="M178.366 331.016L114.079 327.535L178.366 323.379V331.016Z" fill="#008B7D"/>
<path d="M179.166 326.193L113.279 322.566L179.166 318.601V326.193Z" fill="#008B7D"/>
<path d="M179.966 321.37L112.479 317.596L179.966 313.822V321.37Z" fill="#008B7D"/>
</g>
<g style="mix-blend-mode:multiply">
<path d="M219.193 153.071C218.876 153.606 218.513 154.165 218.113 154.742C210.707 165.425 201.555 170.838 183.222 174.706L135.366 180.242L137.332 183.429L206.262 181.141C210.755 181.002 217.046 183.429 219.962 180.006L221.545 171.264C226.288 165.696 225.196 157.249 219.193 153.071Z" fill="#4BB4A3"/>
</g>
<g style="mix-blend-mode:multiply">
<path d="M374.865 158.635L332.632 195.579C322.723 204.247 310.347 209.587 297.246 210.847L175.407 222.568H254.328L293.437 226C312.281 227.654 330.838 220.547 343.762 206.726L375.806 172.461C379.517 168.212 377.71 161.553 372.362 159.766L374.865 158.635Z" fill="#4BB4A3"/>
</g>
<g style="mix-blend-mode:multiply">
<path d="M292.064 229.187C284.089 240.473 271.497 247.611 257.723 248.654L168.736 255.392L273.951 258.175C286.532 258.508 297.969 250.902 302.532 239.166L307.015 227.636L292.064 229.187Z" fill="#4BB4A3"/>
</g>
<g style="mix-blend-mode:multiply">
<path d="M276.584 261.419C269.694 269.626 259.77 274.683 249.085 275.431L164.79 281.335L256.692 284.003C268.945 284.358 280.404 277.957 286.531 267.335L292.064 257.742L276.584 261.419Z" fill="#4BB4A3"/>
</g>
<g style="mix-blend-mode:multiply">
<path d="M261.924 287.1C254.707 295.665 244.413 301.045 233.265 302.079L157.423 309.113L243.744 311.55C256.234 311.903 267.814 305.038 273.503 293.907L279.618 281.943L261.924 287.1Z" fill="#4BB4A3"/>
</g>
<path d="M193.667 180H135.912V186.785H193.667V180Z" fill="black"/>
<path d="M197.546 308.735H148.459V315.52H197.546V308.735Z" fill="black"/>
<path d="M277.825 262.122H168.736V255.337H277.825C284.969 255.337 291.39 251.364 294.581 244.968L304.861 224.357L310.928 227.387L300.648 247.997C296.302 256.71 287.556 262.122 277.825 262.122Z" fill="black"/>
<path d="M265.006 287.973H162.218V281.188H265.006C271.963 281.188 278.252 277.337 281.417 271.137L295.955 242.665L301.993 245.751L287.456 274.224C283.126 282.704 274.523 287.973 265.006 287.973Z" fill="black"/>
<path d="M153.368 444.966H0L31.0576 250.387C37.6179 206.49 48.8859 178.49 66.5136 162.302C74.8183 154.676 84.7269 149.415 96.8059 146.22C107.198 143.471 119.361 142.171 135.084 142.13L207.015 141.941H207.073C213.737 141.941 219.886 144.969 223.952 150.254C228.03 155.555 229.378 162.301 227.65 168.763L222.832 186.785H190.078V180H217.627L221.1 167.01C222.278 162.604 221.358 158.006 218.579 154.393C215.807 150.79 211.615 148.725 207.072 148.725C207.059 148.725 207.047 148.725 207.033 148.726L135.102 148.915C103.773 148.997 85.2296 154.324 71.0987 167.301C54.6763 182.382 44.0823 209.113 37.7587 251.423L7.94974 438.182H147.607L168.782 308.733L249.125 308.501C257.139 308.467 264.406 304.017 268.086 296.889L284.719 264.671L290.743 267.785L274.111 300.003C269.267 309.385 259.703 315.24 249.149 315.285L174.546 315.501L153.368 444.966Z" fill="black"/>
<path d="M300.184 229.265H175.407V222.48H300.184C315.36 222.48 329.628 216.567 340.359 205.83L372.47 173.701C375.691 170.478 375.618 166.38 374.475 163.619C373.332 160.858 370.487 157.908 365.932 157.908C354.259 157.908 342.979 162.128 334.17 169.791L329.513 173.841C319.918 182.188 307.63 186.785 294.915 186.785H185.208V180.001H294.915C305.995 180.001 316.703 175.995 325.065 168.721L329.721 164.67C339.764 155.934 352.624 151.124 365.932 151.124C372.538 151.124 378.211 154.916 380.739 161.023C383.267 167.129 381.936 173.825 377.265 178.498L345.154 210.627C333.142 222.646 317.171 229.265 300.184 229.265Z" fill="black"/>
</svg>
