<svg width="82" height="348" viewBox="0 0 82 348" fill="none" xmlns="http://www.w3.org/2000/svg">
<rect width="82" height="348" fill="#F0EEDB"/>
<path d="M79.8423 85.2521C76.1826 86.4362 73.1719 84.7741 71.5742 82.8205C69.9775 80.8674 68.9448 77.5856 70.8325 74.2404C72.2387 71.7624 71.9834 68.735 70.1826 66.527C68.3813 64.3195 65.4673 63.4611 62.7568 64.34L0 85.2521V90.977L64.5693 69.9278C65.0976 69.7554 65.437 70.0035 65.6303 70.2403C65.8232 70.4771 65.996 70.8599 65.7197 71.3472C62.9204 76.3076 63.4209 82.1284 67.0254 86.5386C70.6309 90.9488 76.2344 92.5977 81.6543 90.8399L82 90.7278V84.5523L79.8423 85.2521Z" fill="#00B0C2"/>
<path d="M79.8423 117.252C76.1826 118.436 73.1719 116.774 71.5742 114.821C69.9775 112.867 68.9448 109.586 70.8325 106.24C72.2387 103.762 71.9834 100.735 70.1826 98.527C68.3813 96.3195 65.4673 95.4611 62.7568 96.34L0 117.252V122.977L64.5693 101.928C65.0976 101.756 65.437 102.004 65.6303 102.24C65.8232 102.477 65.996 102.86 65.7197 103.347C62.9204 108.308 63.4209 114.129 67.0254 118.539C70.6309 122.949 76.2344 124.598 81.6543 122.84L82 122.728V116.552L79.8423 117.252Z" fill="#00B0C2"/>
<path d="M79.8423 149.252C76.1826 150.436 73.1719 148.774 71.5742 146.821C69.9775 144.867 68.9448 141.586 70.8325 138.24C72.2387 135.762 71.9834 132.735 70.1826 130.527C68.3813 128.32 65.4673 127.461 62.7568 128.34L0 149.252V154.977L64.5693 133.928C65.0976 133.756 65.437 134.004 65.6303 134.24C65.8232 134.477 65.996 134.86 65.7197 135.347C62.9204 140.308 63.4209 146.129 67.0254 150.539C70.6309 154.949 76.2344 156.598 81.6543 154.84L82 154.728V148.552L79.8423 149.252Z" fill="#00B0C2"/>
<path d="M79.8423 181.252C76.1826 182.436 73.1719 180.774 71.5742 178.821C69.9775 176.867 68.9448 173.586 70.8325 170.24C72.2387 167.762 71.9834 164.735 70.1826 162.527C68.3813 160.32 65.4673 159.461 62.7568 160.34L0 181.252V186.977L64.5693 165.928C65.0976 165.756 65.437 166.004 65.6303 166.24C65.8232 166.477 65.996 166.86 65.7197 167.347C62.9204 172.308 63.4209 178.129 67.0254 182.539C70.6309 186.949 76.2344 188.598 81.6543 186.84L82 186.728V180.552L79.8423 181.252Z" fill="#00B0C2"/>
<path d="M79.8423 213.252C76.1826 214.436 73.1719 212.774 71.5742 210.821C69.9775 208.867 68.9448 205.586 70.8325 202.24C72.2387 199.762 71.9834 196.735 70.1826 194.527C68.3813 192.32 65.4673 191.461 62.7568 192.34L0 213.252V218.977L64.5693 197.928C65.0976 197.756 65.437 198.004 65.6303 198.24C65.8232 198.477 65.996 198.86 65.7197 199.347C62.9204 204.308 63.4209 210.129 67.0254 214.539C70.6309 218.949 76.2344 220.598 81.6543 218.84L82 218.728V212.552L79.8423 213.252Z" fill="#00B0C2"/>
<path d="M79.8423 245.252C76.1826 246.436 73.1719 244.774 71.5742 242.821C69.9775 240.867 68.9448 237.586 70.8325 234.24C72.2387 231.762 71.9834 228.735 70.1826 226.527C68.3813 224.32 65.4673 223.461 62.7568 224.34L0 245.252V250.977L64.5693 229.928C65.0976 229.756 65.437 230.004 65.6303 230.24C65.8232 230.477 65.996 230.86 65.7197 231.347C62.9204 236.308 63.4209 242.129 67.0254 246.539C70.6309 250.949 76.2344 252.598 81.6543 250.84L82 250.728V244.552L79.8423 245.252Z" fill="#00B0C2"/>
<path d="M79.8423 277.252C76.1826 278.436 73.1719 276.774 71.5742 274.821C69.9775 272.867 68.9448 269.586 70.8325 266.24C72.2387 263.762 71.9834 260.735 70.1826 258.527C68.3813 256.32 65.4673 255.461 62.7568 256.34L0 277.252V282.977L64.5693 261.928C65.0976 261.756 65.437 262.004 65.6303 262.24C65.8232 262.477 65.996 262.86 65.7197 263.347C62.9204 268.308 63.4209 274.129 67.0254 278.539C70.6309 282.949 76.2344 284.598 81.6543 282.84L82 282.728V276.552L79.8423 277.252Z" fill="#00B0C2"/>
</svg>
