<svg width="45" height="348" viewBox="0 0 45 348" fill="none" xmlns="http://www.w3.org/2000/svg">
<g clip-path="url(#clip0_1118_9554)">
<rect width="45" height="348" fill="#FFFDEC"/>
<g clip-path="url(#clip1_1118_9554)">
<path d="M75.9801 85.7801L91.1201 80.7701L89.5501 76.0201L74.4201 81.0201C72.6601 81.5901 71.4301 80.3001 71.0901 79.8901C70.3401 78.9701 69.7701 77.3701 70.6101 75.8901C71.5501 74.2301 71.3801 72.2001 70.1701 70.7201C68.9601 69.2401 67.0101 68.6701 65.2001 69.2601L44.3701 76.0101L45.9101 80.7701L65.8301 74.3101C64.6401 77.1701 65.1401 80.5101 67.2201 83.0601C68.8701 85.0801 71.1501 86.1701 73.5201 86.1701C74.3301 86.1701 75.1601 86.0401 75.9701 85.7801H75.9801Z" fill="#DE5851"/>
<path d="M30.7902 85.7801L45.9302 80.7701L44.3602 76.0201L29.2302 81.0201C27.4702 81.5901 26.2402 80.3001 25.9002 79.8901C25.1502 78.9701 24.5802 77.3701 25.4202 75.8901C26.3602 74.2301 26.1902 72.2001 24.9802 70.7201C23.7702 69.2401 21.8202 68.6701 20.0102 69.2601L-0.819824 76.0101L0.720176 80.7701L20.6402 74.3101C19.4502 77.1701 19.9502 80.5101 22.0302 83.0601C23.6802 85.0801 25.9602 86.1701 28.3302 86.1701C29.1402 86.1701 29.9702 86.0401 30.7802 85.7801H30.7902Z" fill="#DE5851"/>
<path d="M-14.3998 85.7801L0.740234 80.7701L-0.829769 76.0201L-15.9598 81.0201C-17.7198 81.5901 -18.9498 80.3001 -19.2898 79.8901C-20.0398 78.9701 -20.6098 77.3701 -19.7698 75.8901C-18.8298 74.2301 -18.9998 72.2001 -20.2098 70.7201C-21.4198 69.2401 -23.3698 68.6701 -25.1798 69.2601L-46.0098 76.0101L-44.4698 80.7701L-24.5498 74.3101C-25.7398 77.1701 -25.2398 80.5101 -23.1598 83.0601C-21.5098 85.0801 -19.2298 86.1701 -16.8598 86.1701C-16.0498 86.1701 -15.2198 86.0401 -14.4098 85.7801H-14.3998Z" fill="#DE5851"/>
</g>
<g clip-path="url(#clip2_1118_9554)">
<path d="M75.9801 117.78L91.1201 112.77L89.5501 108.02L74.4201 113.02C72.6601 113.59 71.4301 112.3 71.0901 111.89C70.3401 110.97 69.7701 109.37 70.6101 107.89C71.5501 106.23 71.3801 104.2 70.1701 102.72C68.9601 101.24 67.0101 100.67 65.2001 101.26L44.3701 108.01L45.9101 112.77L65.8301 106.31C64.6401 109.17 65.1401 112.51 67.2201 115.06C68.8701 117.08 71.1501 118.17 73.5201 118.17C74.3301 118.17 75.1601 118.04 75.9701 117.78H75.9801Z" fill="#DE5851"/>
<path d="M30.7902 117.78L45.9302 112.77L44.3602 108.02L29.2302 113.02C27.4702 113.59 26.2402 112.3 25.9002 111.89C25.1502 110.97 24.5802 109.37 25.4202 107.89C26.3602 106.23 26.1902 104.2 24.9802 102.72C23.7702 101.24 21.8202 100.67 20.0102 101.26L-0.819824 108.01L0.720176 112.77L20.6402 106.31C19.4502 109.17 19.9502 112.51 22.0302 115.06C23.6802 117.08 25.9602 118.17 28.3302 118.17C29.1402 118.17 29.9702 118.04 30.7802 117.78H30.7902Z" fill="#DE5851"/>
<path d="M-14.3998 117.78L0.740234 112.77L-0.829769 108.02L-15.9598 113.02C-17.7198 113.59 -18.9498 112.3 -19.2898 111.89C-20.0398 110.97 -20.6098 109.37 -19.7698 107.89C-18.8298 106.23 -18.9998 104.2 -20.2098 102.72C-21.4198 101.24 -23.3698 100.67 -25.1798 101.26L-46.0098 108.01L-44.4698 112.77L-24.5498 106.31C-25.7398 109.17 -25.2398 112.51 -23.1598 115.06C-21.5098 117.08 -19.2298 118.17 -16.8598 118.17C-16.0498 118.17 -15.2198 118.04 -14.4098 117.78H-14.3998Z" fill="#DE5851"/>
</g>
<g clip-path="url(#clip3_1118_9554)">
<path d="M75.9801 149.78L91.1201 144.77L89.5501 140.02L74.4201 145.02C72.6601 145.59 71.4301 144.3 71.0901 143.89C70.3401 142.97 69.7701 141.37 70.6101 139.89C71.5501 138.23 71.3801 136.2 70.1701 134.72C68.9601 133.24 67.0101 132.67 65.2001 133.26L44.3701 140.01L45.9101 144.77L65.8301 138.31C64.6401 141.17 65.1401 144.51 67.2201 147.06C68.8701 149.08 71.1501 150.17 73.5201 150.17C74.3301 150.17 75.1601 150.04 75.9701 149.78H75.9801Z" fill="#DE5851"/>
<path d="M30.7902 149.78L45.9302 144.77L44.3602 140.02L29.2302 145.02C27.4702 145.59 26.2402 144.3 25.9002 143.89C25.1502 142.97 24.5802 141.37 25.4202 139.89C26.3602 138.23 26.1902 136.2 24.9802 134.72C23.7702 133.24 21.8202 132.67 20.0102 133.26L-0.819824 140.01L0.720176 144.77L20.6402 138.31C19.4502 141.17 19.9502 144.51 22.0302 147.06C23.6802 149.08 25.9602 150.17 28.3302 150.17C29.1402 150.17 29.9702 150.04 30.7802 149.78H30.7902Z" fill="#DE5851"/>
<path d="M-14.3998 149.78L0.740234 144.77L-0.829769 140.02L-15.9598 145.02C-17.7198 145.59 -18.9498 144.3 -19.2898 143.89C-20.0398 142.97 -20.6098 141.37 -19.7698 139.89C-18.8298 138.23 -18.9998 136.2 -20.2098 134.72C-21.4198 133.24 -23.3698 132.67 -25.1798 133.26L-46.0098 140.01L-44.4698 144.77L-24.5498 138.31C-25.7398 141.17 -25.2398 144.51 -23.1598 147.06C-21.5098 149.08 -19.2298 150.17 -16.8598 150.17C-16.0498 150.17 -15.2198 150.04 -14.4098 149.78H-14.3998Z" fill="#DE5851"/>
</g>
<g clip-path="url(#clip4_1118_9554)">
<path d="M75.9801 181.78L91.1201 176.77L89.5501 172.02L74.4201 177.02C72.6601 177.59 71.4301 176.3 71.0901 175.89C70.3401 174.97 69.7701 173.37 70.6101 171.89C71.5501 170.23 71.3801 168.2 70.1701 166.72C68.9601 165.24 67.0101 164.67 65.2001 165.26L44.3701 172.01L45.9101 176.77L65.8301 170.31C64.6401 173.17 65.1401 176.51 67.2201 179.06C68.8701 181.08 71.1501 182.17 73.5201 182.17C74.3301 182.17 75.1601 182.04 75.9701 181.78H75.9801Z" fill="#DE5851"/>
<path d="M30.7902 181.78L45.9302 176.77L44.3602 172.02L29.2302 177.02C27.4702 177.59 26.2402 176.3 25.9002 175.89C25.1502 174.97 24.5802 173.37 25.4202 171.89C26.3602 170.23 26.1902 168.2 24.9802 166.72C23.7702 165.24 21.8202 164.67 20.0102 165.26L-0.819824 172.01L0.720176 176.77L20.6402 170.31C19.4502 173.17 19.9502 176.51 22.0302 179.06C23.6802 181.08 25.9602 182.17 28.3302 182.17C29.1402 182.17 29.9702 182.04 30.7802 181.78H30.7902Z" fill="#DE5851"/>
<path d="M-14.3998 181.78L0.740234 176.77L-0.829769 172.02L-15.9598 177.02C-17.7198 177.59 -18.9498 176.3 -19.2898 175.89C-20.0398 174.97 -20.6098 173.37 -19.7698 171.89C-18.8298 170.23 -18.9998 168.2 -20.2098 166.72C-21.4198 165.24 -23.3698 164.67 -25.1798 165.26L-46.0098 172.01L-44.4698 176.77L-24.5498 170.31C-25.7398 173.17 -25.2398 176.51 -23.1598 179.06C-21.5098 181.08 -19.2298 182.17 -16.8598 182.17C-16.0498 182.17 -15.2198 182.04 -14.4098 181.78H-14.3998Z" fill="#DE5851"/>
</g>
<g clip-path="url(#clip5_1118_9554)">
<path d="M75.9801 213.78L91.1201 208.77L89.5501 204.02L74.4201 209.02C72.6601 209.59 71.4301 208.3 71.0901 207.89C70.3401 206.97 69.7701 205.37 70.6101 203.89C71.5501 202.23 71.3801 200.2 70.1701 198.72C68.9601 197.24 67.0101 196.67 65.2001 197.26L44.3701 204.01L45.9101 208.77L65.8301 202.31C64.6401 205.17 65.1401 208.51 67.2201 211.06C68.8701 213.08 71.1501 214.17 73.5201 214.17C74.3301 214.17 75.1601 214.04 75.9701 213.78H75.9801Z" fill="#DE5851"/>
<path d="M30.7902 213.78L45.9302 208.77L44.3602 204.02L29.2302 209.02C27.4702 209.59 26.2402 208.3 25.9002 207.89C25.1502 206.97 24.5802 205.37 25.4202 203.89C26.3602 202.23 26.1902 200.2 24.9802 198.72C23.7702 197.24 21.8202 196.67 20.0102 197.26L-0.819824 204.01L0.720176 208.77L20.6402 202.31C19.4502 205.17 19.9502 208.51 22.0302 211.06C23.6802 213.08 25.9602 214.17 28.3302 214.17C29.1402 214.17 29.9702 214.04 30.7802 213.78H30.7902Z" fill="#DE5851"/>
<path d="M-14.3998 213.78L0.740234 208.77L-0.829769 204.02L-15.9598 209.02C-17.7198 209.59 -18.9498 208.3 -19.2898 207.89C-20.0398 206.97 -20.6098 205.37 -19.7698 203.89C-18.8298 202.23 -18.9998 200.2 -20.2098 198.72C-21.4198 197.24 -23.3698 196.67 -25.1798 197.26L-46.0098 204.01L-44.4698 208.77L-24.5498 202.31C-25.7398 205.17 -25.2398 208.51 -23.1598 211.06C-21.5098 213.08 -19.2298 214.17 -16.8598 214.17C-16.0498 214.17 -15.2198 214.04 -14.4098 213.78H-14.3998Z" fill="#DE5851"/>
</g>
<g clip-path="url(#clip6_1118_9554)">
<path d="M75.9801 245.78L91.1201 240.77L89.5501 236.02L74.4201 241.02C72.6601 241.59 71.4301 240.3 71.0901 239.89C70.3401 238.97 69.7701 237.37 70.6101 235.89C71.5501 234.23 71.3801 232.2 70.1701 230.72C68.9601 229.24 67.0101 228.67 65.2001 229.26L44.3701 236.01L45.9101 240.77L65.8301 234.31C64.6401 237.17 65.1401 240.51 67.2201 243.06C68.8701 245.08 71.1501 246.17 73.5201 246.17C74.3301 246.17 75.1601 246.04 75.9701 245.78H75.9801Z" fill="#DE5851"/>
<path d="M30.7902 245.78L45.9302 240.77L44.3602 236.02L29.2302 241.02C27.4702 241.59 26.2402 240.3 25.9002 239.89C25.1502 238.97 24.5802 237.37 25.4202 235.89C26.3602 234.23 26.1902 232.2 24.9802 230.72C23.7702 229.24 21.8202 228.67 20.0102 229.26L-0.819824 236.01L0.720176 240.77L20.6402 234.31C19.4502 237.17 19.9502 240.51 22.0302 243.06C23.6802 245.08 25.9602 246.17 28.3302 246.17C29.1402 246.17 29.9702 246.04 30.7802 245.78H30.7902Z" fill="#DE5851"/>
<path d="M-14.3998 245.78L0.740234 240.77L-0.829769 236.02L-15.9598 241.02C-17.7198 241.59 -18.9498 240.3 -19.2898 239.89C-20.0398 238.97 -20.6098 237.37 -19.7698 235.89C-18.8298 234.23 -18.9998 232.2 -20.2098 230.72C-21.4198 229.24 -23.3698 228.67 -25.1798 229.26L-46.0098 236.01L-44.4698 240.77L-24.5498 234.31C-25.7398 237.17 -25.2398 240.51 -23.1598 243.06C-21.5098 245.08 -19.2298 246.17 -16.8598 246.17C-16.0498 246.17 -15.2198 246.04 -14.4098 245.78H-14.3998Z" fill="#DE5851"/>
</g>
<g clip-path="url(#clip7_1118_9554)">
<path d="M75.9801 277.78L91.1201 272.77L89.5501 268.02L74.4201 273.02C72.6601 273.59 71.4301 272.3 71.0901 271.89C70.3401 270.97 69.7701 269.37 70.6101 267.89C71.5501 266.23 71.3801 264.2 70.1701 262.72C68.9601 261.24 67.0101 260.67 65.2001 261.26L44.3701 268.01L45.9101 272.77L65.8301 266.31C64.6401 269.17 65.1401 272.51 67.2201 275.06C68.8701 277.08 71.1501 278.17 73.5201 278.17C74.3301 278.17 75.1601 278.04 75.9701 277.78H75.9801Z" fill="#DE5851"/>
<path d="M30.7902 277.78L45.9302 272.77L44.3602 268.02L29.2302 273.02C27.4702 273.59 26.2402 272.3 25.9002 271.89C25.1502 270.97 24.5802 269.37 25.4202 267.89C26.3602 266.23 26.1902 264.2 24.9802 262.72C23.7702 261.24 21.8202 260.67 20.0102 261.26L-0.819824 268.01L0.720176 272.77L20.6402 266.31C19.4502 269.17 19.9502 272.51 22.0302 275.06C23.6802 277.08 25.9602 278.17 28.3302 278.17C29.1402 278.17 29.9702 278.04 30.7802 277.78H30.7902Z" fill="#DE5851"/>
<path d="M-14.3998 277.78L0.740234 272.77L-0.829769 268.02L-15.9598 273.02C-17.7198 273.59 -18.9498 272.3 -19.2898 271.89C-20.0398 270.97 -20.6098 269.37 -19.7698 267.89C-18.8298 266.23 -18.9998 264.2 -20.2098 262.72C-21.4198 261.24 -23.3698 260.67 -25.1798 261.26L-46.0098 268.01L-44.4698 272.77L-24.5498 266.31C-25.7398 269.17 -25.2398 272.51 -23.1598 275.06C-21.5098 277.08 -19.2298 278.17 -16.8598 278.17C-16.0498 278.17 -15.2198 278.04 -14.4098 277.78H-14.3998Z" fill="#DE5851"/>
</g>
</g>
<defs>
<clipPath id="clip0_1118_9554">
<rect width="45" height="348" fill="white"/>
</clipPath>
<clipPath id="clip1_1118_9554">
<rect width="45.19" height="45.19" fill="white" transform="translate(0 55)"/>
</clipPath>
<clipPath id="clip2_1118_9554">
<rect width="45.19" height="45.19" fill="white" transform="translate(0 87)"/>
</clipPath>
<clipPath id="clip3_1118_9554">
<rect width="45.19" height="45.19" fill="white" transform="translate(0 119)"/>
</clipPath>
<clipPath id="clip4_1118_9554">
<rect width="45.19" height="45.19" fill="white" transform="translate(0 151)"/>
</clipPath>
<clipPath id="clip5_1118_9554">
<rect width="45.19" height="45.19" fill="white" transform="translate(0 183)"/>
</clipPath>
<clipPath id="clip6_1118_9554">
<rect width="45.19" height="45.19" fill="white" transform="translate(0 215)"/>
</clipPath>
<clipPath id="clip7_1118_9554">
<rect width="45.19" height="45.19" fill="white" transform="translate(0 247)"/>
</clipPath>
</defs>
</svg>
