<?xml version="1.0" encoding="UTF-8"?>
<svg id="Layer_2" data-name="Layer 2" xmlns="http://www.w3.org/2000/svg" viewBox="0 0 82 219.5318">
  <defs>
    <style>
      .cls-1 {
        fill: #00b0c2;
        stroke-width: 0px;
      }
    </style>
  </defs>
  <g id="Layer_1-2" data-name="Layer 1">
    <g>
      <path class="cls-1" d="M79.8423,21.2522c-3.6597,1.1841-6.6704-.478-8.2681-2.4316-1.5967-1.9531-2.6294-5.2349-.7417-8.5801,1.4062-2.478,1.1509-5.5054-.6499-7.7134-1.8013-2.2075-4.7153-3.0659-7.4258-2.187L0,21.2522v5.7249L64.5693,5.9279c.5283-.1724.8677.0757,1.061.3125.1929.2368.3657.6196.0894,1.1069-2.7993,4.9604-2.2988,10.7812,1.3057,15.1914,3.6055,4.4102,9.209,6.0591,14.6289,4.3013l.3457-.1121v-6.1755l-2.1577.6998Z"/>
      <path class="cls-1" d="M79.8423,53.2522c-3.6597,1.1841-6.6704-.478-8.2681-2.4316-1.5967-1.9531-2.6294-5.2349-.7417-8.5801,1.4062-2.478,1.1509-5.5054-.6499-7.7134-1.8013-2.2075-4.7153-3.0659-7.4258-2.187L0,53.2522v5.7249l64.5693-21.0491c.5283-.1724.8677.0757,1.061.3125.1929.2368.3657.6196.0894,1.1069-2.7993,4.9604-2.2988,10.7812,1.3057,15.1914,3.6055,4.4102,9.209,6.0591,14.6289,4.3013l.3457-.1121v-6.1755l-2.1577.6998Z"/>
      <path class="cls-1" d="M79.8423,85.2522c-3.6597,1.1841-6.6704-.478-8.2681-2.4316-1.5967-1.9531-2.6294-5.2349-.7417-8.5801,1.4062-2.478,1.1509-5.5054-.6499-7.7134-1.8013-2.2075-4.7153-3.0659-7.4258-2.187L0,85.2522v5.7249l64.5693-21.0491c.5283-.1724.8677.0757,1.061.3125.1929.2368.3657.6196.0894,1.1069-2.7993,4.9604-2.2988,10.7812,1.3057,15.1914,3.6055,4.4102,9.209,6.0591,14.6289,4.3013l.3457-.1121v-6.1755l-2.1577.6998Z"/>
      <path class="cls-1" d="M79.8423,117.2522c-3.6597,1.1841-6.6704-.478-8.2681-2.4316-1.5967-1.9531-2.6294-5.2349-.7417-8.5801,1.4062-2.478,1.1509-5.5054-.6499-7.7134-1.8013-2.2075-4.7153-3.0659-7.4258-2.187L0,117.2522v5.7249l64.5693-21.0491c.5283-.1724.8677.0757,1.061.3125.1929.2368.3657.6196.0894,1.1069-2.7993,4.9604-2.2988,10.7812,1.3057,15.1914,3.6055,4.4102,9.209,6.0591,14.6289,4.3013l.3457-.1121v-6.1755l-2.1577.6998Z"/>
      <path class="cls-1" d="M79.8423,149.2522c-3.6597,1.1841-6.6704-.478-8.2681-2.4316-1.5967-1.9531-2.6294-5.2349-.7417-8.5801,1.4062-2.478,1.1509-5.5054-.6499-7.7134-1.8013-2.2075-4.7153-3.0659-7.4258-2.187L0,149.2522v5.7249l64.5693-21.0491c.5283-.1724.8677.0757,1.061.3125.1929.2368.3657.6196.0894,1.1069-2.7993,4.9604-2.2988,10.7812,1.3057,15.1914,3.6055,4.4102,9.209,6.0591,14.6289,4.3013l.3457-.1121v-6.1755l-2.1577.6998Z"/>
      <path class="cls-1" d="M79.8423,181.2522c-3.6597,1.1841-6.6704-.478-8.2681-2.4316-1.5967-1.9531-2.6294-5.2349-.7417-8.5801,1.4062-2.478,1.1509-5.5054-.6499-7.7134-1.8013-2.2075-4.7153-3.0659-7.4258-2.187L0,181.2522v5.7249l64.5693-21.0491c.5283-.1724.8677.0757,1.061.3125.1929.2368.3657.6196.0894,1.1069-2.7993,4.9604-2.2988,10.7812,1.3057,15.1914,3.6055,4.4102,9.209,6.0591,14.6289,4.3013l.3457-.1121v-6.1755l-2.1577.6998Z"/>
      <path class="cls-1" d="M79.8423,213.2522c-3.6597,1.1841-6.6704-.478-8.2681-2.4316-1.5967-1.9531-2.6294-5.2349-.7417-8.5801,1.4062-2.478,1.1509-5.5054-.6499-7.7134-1.8013-2.2075-4.7153-3.0659-7.4258-2.187L0,213.2522v5.7249l64.5693-21.0491c.5283-.1724.8677.0757,1.061.3125.1929.2368.3657.6196.0894,1.1069-2.7993,4.9604-2.2988,10.7812,1.3057,15.1914,3.6055,4.4102,9.209,6.0591,14.6289,4.3013l.3457-.1121v-6.1755l-2.1577.6998Z"/>
    </g>
  </g>
</svg>